<svg xmlns="http://www.w3.org/2000/svg" viewBox="0 -1000 1000 1000">
	<path fill="#000000" d="M80 12C93.61712646484375 12 105 0.61712646484375 105 -13V-319H445V-13C445 0.61712646484375 456.38287353515625 12 470 12C483.61712646484375 12 495 0.61712646484375 495 -13V-344V-495C495 -621.476318359375 415.41175842285156 -728 275 -728C137.87242126464844 -728 55 -623.9353485107422 55 -495V-344V-13C55 0.61712646484375 66.38287353515625 12 80 12ZM445 -369H105V-495C105 -602.2002105712891 168.12757873535156 -678 275 -678C384.58824157714844 -678 445 -600.5581665039062 445 -495Z"/>
</svg>