<svg xmlns="http://www.w3.org/2000/svg" viewBox="0 -1000 1000 1000">
	<path fill="#000000" d="M80 12C93.61712646484375 12 105 0.61712646484375 105 -13V-206H355V-13C355 0.61712646484375 366.38287353515625 12 380 12C393.61712646484375 12 405 0.61712646484375 405 -13V-231V-342C405 -468.20594787597656 312.4335632324219 -532 230 -532C146.5398712158203 -532 55 -468.07098388671875 55 -342V-231V-13C55 0.61712646484375 66.38287353515625 12 80 12ZM485 -691C485 -704.6171264648438 473.61712646484375 -716 460 -716H0C-13.61712646484375 -716 -25 -704.6171264648438 -25 -691C-25 -677.3828735351562 -13.61712646484375 -666 0 -666H460C473.61712646484375 -666 485 -677.3828735351562 485 -691ZM485 171C485 157.38287353515625 473.61712646484375 146 460 146H0C-13.61712646484375 146 -25 157.38287353515625 -25 171C-25 184.61712646484375 -13.61712646484375 196 0 196H460C473.61712646484375 196 485 184.61712646484375 485 171ZM355 -256H105V-342C105 -439.92901611328125 171.4601287841797 -482 230 -482C287.5664367675781 -482 355 -439.80186462402344 355 -342Z"/>
</svg>