<svg xmlns="http://www.w3.org/2000/svg" viewBox="0 -1000 1000 1000">
	<path fill="#000000" d="M105 -320H334.9519958496094C358.64385986328125 -311.65675354003906 457 -269.5151824951172 457 -175C457 -103.25106811523438 408.0609893798828 -50 346 -50H105ZM387.28509521484375 -351.4980163574219C417.4521942138672 -380.9721221923828 457 -435.77845764160156 457 -517C457 -636.9469909667969 366.7313537597656 -716 260 -716H80C64.86746215820312 -716 55 -701.7299041748047 55 -691V-346V-25C55 -9.867462158203125 69.27009582519531 0 80 0H346C439.9390106201172 0 507 -80.74893188476562 507 -175C507 -273.7850341796875 432.43701171875 -327.8379364013672 387.28509521484375 -351.4980163574219ZM105 -370V-666H260C341.2686462402344 -666 407 -609.0530090332031 407 -517C407 -430.1906433105469 351.1490478515625 -383.7165069580078 331.61370849609375 -370Z"/>
</svg>