<svg xmlns="http://www.w3.org/2000/svg" viewBox="0 -1000 1000 1000">
	<path fill="#000000" d="M105 -285V-470H189C274.2911376953125 -470 313 -430.4116516113281 313 -375C313 -304.50978088378906 274.5008087158203 -288.75462341308594 264.2649383544922 -285ZM105 -235H266.14183044433594C281.9757843017578 -232.3379669189453 356.99998474121094 -215.69464111328125 356.99998474121094 -136C356.99998474121094 -73.43128967285156 339.77867126464844 -50 274.99998474121094 -50H104.99998474121094ZM325.4763946533203 -267.4979553222656C345.80418395996094 -289.0788269042969 362.99998474121094 -323.9145202636719 362.99998474121094 -375C362.99998474121094 -463.6438903808594 291.70884704589844 -520 188.99998474121094 -520H79.99998474121094C64.86744689941406 -520 54.99998474121094 -505.7299041748047 54.99998474121094 -495V-260V-25C54.99998474121094 -9.867462158203125 69.27008056640625 0 79.99998474121094 0H274.99998474121094C366.22129821777344 0 406.99998474121094 -54.51316833496094 406.99998474121094 -136C406.99998474121094 -209.079345703125 362.14552307128906 -249.08721923828125 325.4763946533203 -267.4979553222656ZM484.99998474121094 171C484.99998474121094 157.38287353515625 473.6171112060547 146 459.99998474121094 146H-1.52587890625e-05C-13.617141723632812 146 -25.000015258789062 157.38287353515625 -25.000015258789062 171C-25.000015258789062 184.61712646484375 -13.617141723632812 196 -1.52587890625e-05 196H459.99998474121094C473.6171112060547 196 484.99998474121094 184.61712646484375 484.99998474121094 171ZM484.99998474121094 -691C484.99998474121094 -704.6171264648438 473.6171112060547 -716 459.99998474121094 -716H-1.52587890625e-05C-13.617141723632812 -716 -25.000015258789062 -704.6171264648438 -25.000015258789062 -691C-25.000015258789062 -677.3828735351562 -13.617141723632812 -666 -1.52587890625e-05 -666H459.99998474121094C473.6171112060547 -666 484.99998474121094 -677.3828735351562 484.99998474121094 -691Z"/>
</svg>