<svg xmlns="http://www.w3.org/2000/svg" viewBox="0 -1000 1000 1000">
	<path fill="#000000" d="M442.4444580078125 -117.74447631835938C430.919189453125 -124.99667358398438 415.22267150878906 -121.42471313476562 407.97047424316406 -109.89944458007812C375.76995849609375 -58.72602844238281 331.38470458984375 -38 275 -38C172.99583435058594 -38 93 -108.76754760742188 93 -345C93 -602.7595672607422 173.3992462158203 -678 274 -678C329.9644317626953 -678 374.7082824707031 -656.165283203125 407.54820251464844 -599.9024200439453C411.8525848388672 -592.3544616699219 419.97564697265625 -587.26220703125 429.2808380126953 -587.26220703125C443.08082580566406 -587.26220703125 454.2808380126953 -598.4622039794922 454.2808380126953 -612.26220703125C454.2808380126953 -616.9258728027344 453.00169372558594 -621.2926177978516 450.7753601074219 -625.0304718017578C409.3722381591797 -696.0055389404297 345.50836181640625 -728 274 -728C132.6007537841797 -728 43 -609.2404327392578 43 -345C43 -99.23245239257812 135.00416564941406 12 275 12C345.5222625732422 12 408.79364013671875 -17.3248291015625 450.28948974609375 -83.2705078125C457.54168701171875 -94.7957763671875 453.9697265625 -110.49227905273438 442.4444580078125 -117.74447631835938Z"/>
</svg>