<svg xmlns="http://www.w3.org/2000/svg" viewBox="0 -1000 1000 1000">
	<path fill="#000000" d="M485 171C485 157.38287353515625 473.61712646484375 146 460 146H0C-13.61712646484375 146 -25 157.38287353515625 -25 171C-25 184.61712646484375 -13.61712646484375 196 0 196H460C473.61712646484375 196 485 184.61712646484375 485 171ZM485 -691C485 -704.6171264648438 473.61712646484375 -716 460 -716H0C-13.61712646484375 -716 -25 -704.6171264648438 -25 -691C-25 -677.3828735351562 -13.61712646484375 -666 0 -666H460C473.61712646484375 -666 485 -677.3828735351562 485 -691ZM398.8282928466797 -133.99940490722656C384.6636962890625 -133.902099609375 374.6109161376953 -120.60441589355469 374.07383728027344 -111.01753234863281C373.9010314941406 -106.5006103515625 376.9087219238281 -37.99998474121094 244.00001525878906 -37.99998474121094C149.51748657226562 -37.99998474121094 93.00001525878906 -95.04629516601562 93.00001525878906 -259.99998474121094C93.00001525878906 -423.02220153808594 149.72975158691406 -481.99998474121094 244.00001525878906 -481.99998474121094C377.6807861328125 -481.99998474121094 373.9505615234375 -410.4170227050781 374.0511474609375 -407.38783264160156C374.7593231201172 -394.7716979980469 385.8125457763672 -384.0885467529297 398.8310546875 -384.00054931640625C411.8676300048828 -383.9124450683594 422.9886779785156 -393.62059020996094 423.994140625 -408.0454864501953C424.0522918701172 -416.65020751953125 416.3058624267578 -531.9999847412109 244.00001525878906 -531.9999847412109C114.26246643066406 -531.9999847412109 43.00001525878906 -434.97776794433594 43.00001525878906 -259.99998474121094C43.00001525878906 -82.95367431640625 114.4825439453125 12.000015258789062 244.00001525878906 12.000015258789062C415.10411071777344 12.000015258789062 424.0635070800781 -99.84382629394531 423.99403381347656 -109.95722961425781C423.14617919921875 -122.10177612304688 413.01841735839844 -134.09686279296875 398.82830810546875 -133.9993896484375Z"/>
</svg>