<svg xmlns="http://www.w3.org/2000/svg" viewBox="0 -1000 1000 1000">
	<path fill="#000000" d="M80 0H211C304.7108612060547 0 390 -76.92048645019531 390 -225C390 -379.04742431640625 319.9927520751953 -520 163 -520H80C64.86746215820312 -520 55 -505.7299041748047 55 -495V-25C55 -9.867462158203125 69.27009582519531 0 80 0ZM105 -50V-470H163C279.7552947998047 -470 340 -368.95928955078125 340 -225C340 -97.07170104980469 273.2891387939453 -50 211 -50ZM485 171C485 157.38287353515625 473.61712646484375 146 460 146H0C-13.61712646484375 146 -25 157.38287353515625 -25 171C-25 184.61712646484375 -13.61712646484375 196 0 196H460C473.61712646484375 196 485 184.61712646484375 485 171ZM485 -691C485 -704.6171264648438 473.61712646484375 -716 460 -716H0C-13.61712646484375 -716 -25 -704.6171264648438 -25 -691C-25 -677.3828735351562 -13.61712646484375 -666 0 -666H460C473.61712646484375 -666 485 -677.3828735351562 485 -691Z"/>
</svg>