<svg xmlns="http://www.w3.org/2000/svg" viewBox="0 -1000 1000 1000">
	<path fill="#000000" d="M507 -25C507 -38.61712646484375 495.61712646484375 -50 482 -50H105V-320H335C348.61712646484375 -320 360 -331.38287353515625 360 -345C360 -358.61712646484375 348.61712646484375 -370 335 -370H105V-666H470C483.61712646484375 -666 495 -677.3828735351562 495 -691C495 -704.6171264648438 483.61712646484375 -716 470 -716H80C69.27009582519531 -716 55 -706.1325378417969 55 -691V-345V-25C55 -14.270095825195312 64.86746215820312 0 80 0H482C495.61712646484375 0 507 -11.38287353515625 507 -25Z"/>
</svg>