<svg xmlns="http://www.w3.org/2000/svg" viewBox="0 -1000 1000 1000">
	<path fill="#000000" d="M60 -534C60 -464.4356994628906 97.59907531738281 -402.97401428222656 153.41893005371094 -368.9932403564453C91.25581359863281 -339.87725830078125 43 -282.2075500488281 43 -198C43 -75.85337829589844 130.85330200195312 12 253 12C375.14662170410156 12 463 -75.85330200195312 463 -198C463 -282.2081298828125 414.7444305419922 -339.87762451171875 352.5813446044922 -368.993408203125C408.4010467529297 -402.9742126464844 446 -464.43580627441406 446 -534C446 -639.7449798583984 359.08546447753906 -728 253 -728C146.91453552246094 -728 60 -639.7449798583984 60 -534ZM93 -198C93 -289.605712890625 170.28172302246094 -341 253 -341C335.71783447265625 -341 413 -289.6047668457031 413 -198C413 -102.14669799804688 348.85337829589844 -38 253 -38C157.14669799804688 -38 93 -102.14662170410156 93 -198ZM253 -391C174.88648986816406 -391 110 -455.88648986816406 110 -534C110 -612.2550201416016 175.08546447753906 -678 253 -678C330.91453552246094 -678 396 -612.2550201416016 396 -534C396 -455.88648986816406 331.11351013183594 -391 253 -391Z"/>
</svg>