<svg xmlns="http://www.w3.org/2000/svg" viewBox="0 -1000 1000 1000">
	<path fill="#000000" d="M494 -691C494 -704.6171264648438 482.61712646484375 -716 469 -716H80C64.86746215820312 -716 55 -701.7299041748047 55 -691V-370C55 -355.6295928955078 67.63531494140625 -343.94960021972656 81.96142578125 -345.0770568847656C87.62033081054688 -345.5224151611328 93.56690979003906 -348.57505798339844 96.906005859375 -351.58140563964844C99.54151916503906 -354.05125427246094 187.9738006591797 -434 287 -434C408.92279052734375 -434 457 -340.7112121582031 457 -241C457 -147.34730529785156 443.2476501464844 -38 295 -38C125.3192138671875 -38 92.74436950683594 -143.7578125 91.56858825683594 -147.3495330810547C86.7235107421875 -160.29872131347656 73.193603515625 -166.70962524414062 60.72666931152344 -162.9185791015625C48.25372314453125 -159.12571716308594 40.522979736328125 -146.54946899414062 43.85285949707031 -132.47828674316406C45.78007507324219 -126.14057922363281 91.58148193359375 12 295 12C486.7523498535156 12 507 -146.65269470214844 507 -241C507 -355.2887878417969 445.07720947265625 -484 287 -484C210.6343231201172 -484 146.2198028564453 -449.1198272705078 105 -421.14540100097656V-666H469C482.61712646484375 -666 494 -677.3828735351562 494 -691Z"/>
</svg>