<svg xmlns="http://www.w3.org/2000/svg" viewBox="0 -1000 1000 1000">
	<path fill="#000000" d="M405 -211V-702C405 -716.3704071044922 392.36468505859375 -728.0503997802734 378.03857421875 -726.9229431152344C369.9939727783203 -726.2898254394531 362.56884765625 -721.4882507324219 358.60670471191406 -714.9354858398438L46.60670471191406 -198.93548583984375C39.17118835449219 -186.63827514648438 43.940185546875 -170.10556030273438 56.782867431640625 -163.6577606201172C60.24977111816406 -161.9171600341797 64.35374450683594 -161 68.00001525878906 -161H355.00001525878906V-15C355.00001525878906 -1.38287353515625 366.3828887939453 10 380.00001525878906 10C393.6171417236328 10 405.00001525878906 -1.38287353515625 405.00001525878906 -15V-161H482.00001525878906C495.6171417236328 -161 507.00001525878906 -172.38287353515625 507.00001525878906 -186C507.00001525878906 -199.61712646484375 495.6171417236328 -211 482.00001525878906 -211ZM355.00001525878906 -211H112.3310546875L355.00001525878906 -612.3371429443359Z"/>
</svg>