<svg xmlns="http://www.w3.org/2000/svg" viewBox="0 -1000 1000 1000">
	<path fill="#000000" d="M441.96434020996094 -590.4256896972656C453.7393035888672 -597.2649841308594 457.8651580810547 -612.8250885009766 451.02586364746094 -624.6000671386719C409.62940979003906 -695.8709564208984 345.65745544433594 -728 273.99998474121094 -728C132.6021728515625 -728 42.99998474121094 -609.239990234375 42.99998474121094 -345C42.99998474121094 -99.23077392578125 134.99349975585938 12 274.99998474121094 12C414.9958190917969 12 506.99998474121094 -99.23245239257812 506.99998474121094 -345C506.99998474121094 -360.1325378417969 492.7298889160156 -370 481.99998474121094 -370H277.99998474121094C264.3828582763672 -370 252.99998474121094 -358.61712646484375 252.99998474121094 -345C252.99998474121094 -331.38287353515625 264.3828582763672 -320 277.99998474121094 -320H456.6711120605469C450.79296875 -104.5765380859375 373.9937286376953 -38 274.9999694824219 -38C173.00645446777344 -38 92.99996948242188 -108.76922607421875 92.99996948242188 -345C92.99996948242188 -602.760009765625 173.3977813720703 -678 273.9999694824219 -678C330.0971374511719 -678 374.92884826660156 -656.0630340576172 407.78993225097656 -599.4872283935547C414.6292266845703 -587.7122497558594 430.1893310546875 -583.5863952636719 441.9643096923828 -590.4256896972656Z"/>
</svg>