<svg xmlns="http://www.w3.org/2000/svg" viewBox="0 -1000 1000 1000">
	<path fill="#000000" d="M485 171C485 157.38287353515625 473.61712646484375 146 460 146H0C-13.61712646484375 146 -25 157.38287353515625 -25 171C-25 184.61712646484375 -13.61712646484375 196 0 196H460C473.61712646484375 196 485 184.61712646484375 485 171ZM485 -691C485 -704.6171264648438 473.61712646484375 -716 460 -716H0C-13.61712646484375 -716 -25 -704.6171264648438 -25 -691C-25 -677.3828735351562 -13.61712646484375 -666 0 -666H460C473.61712646484375 -666 485 -677.3828735351562 485 -691ZM398.83103942871094 -384.0005645751953C413.0211486816406 -383.90464782714844 423.14759826660156 -395.9008483886719 423.9941101074219 -408.0454864501953C424.059814453125 -417.76780700683594 415.5176696777344 -531.9999847412109 243.99998474121094 -531.9999847412109C114.26295471191406 -531.9999847412109 42.99998474121094 -434.9776916503906 42.99998474121094 -259.99998474121094C42.99998474121094 -82.95362854003906 114.48219299316406 12.000015258789062 243.99998474121094 12.000015258789062C415.91233825683594 12.000015258789062 424.052001953125 -101.51197814941406 423.99884033203125 -109.25138854980469L421.99778747558594 -260.3310852050781C421.8081512451172 -274.64947509765625 408.91944885253906 -285 396.99998474121094 -285H274.99998474121094C261.3828582763672 -285 249.99998474121094 -273.61712646484375 249.99998474121094 -260C249.99998474121094 -246.38287353515625 261.3828582763672 -235 274.99998474121094 -235H372.32891845703125L373.99749755859375 -109.02268981933594C373.9892272949219 -108.80636596679688 377.60963439941406 -37.99998474121094 244 -37.99998474121094C149.51779174804688 -37.99998474121094 93 -95.04634094238281 93 -259.99998474121094C93 -423.02227783203125 149.72921752929688 -481.99998474121094 244 -481.99998474121094C377.1210632324219 -481.99998474121094 373.92877197265625 -411.0723571777344 374.05113220214844 -407.38783264160156C374.6311798095703 -397.05430603027344 384.65899658203125 -384.0963439941406 398.83103942871094 -384.00054931640625Z"/>
</svg>