<svg xmlns="http://www.w3.org/2000/svg" viewBox="0 -1000 1000 1000">
	<path fill="#000000" d="M80 -728C66.38287353515625 -728 55 -716.6171264648438 55 -703V-13C55 0.61712646484375 66.38287353515625 12 80 12C93.61712646484375 12 105 0.61712646484375 105 -13V-320H444.88975524902344L444.00010681152344 -13.072463989257812C443.9606475830078 0.544586181640625 455.31048583984375 11.960403442382812 468.92755126953125 11.9998779296875C482.54461669921875 12.039352416992188 493.96043395996094 0.68951416015625 493.9999084472656 -12.92755126953125L495.9999084472656 -702.9275512695312C496.03936767578125 -716.5446014404297 484.6895294189453 -727.9604187011719 471.0724639892578 -727.9998931884766C457.4553985595703 -728.0393676757812 446.0395812988281 -716.6895294189453 446.00010681152344 -703.0724639892578L445.03468322753906 -370H105V-703C105 -716.6171264648438 93.61712646484375 -728 80 -728Z"/>
</svg>