<svg xmlns="http://www.w3.org/2000/svg" viewBox="0 -1000 1000 1000">
	<path fill="#000000" d="M330 -520C316.38287353515625 -520 305 -508.61712646484375 305 -495V-285H105V-495C105 -508.61712646484375 93.61712646484375 -520 80 -520C66.38287353515625 -520 55 -508.61712646484375 55 -495V-260V-25C55 -11.38287353515625 66.38287353515625 0 80 0C93.61712646484375 0 105 -11.38287353515625 105 -25V-235H305V-25C305 -11.38287353515625 316.38287353515625 0 330 0C343.61712646484375 0 355 -11.38287353515625 355 -25V-495C355 -508.61712646484375 343.61712646484375 -520 330 -520ZM423 -691C423 -704.6171264648438 411.61712646484375 -716 398 -716H0C-13.61712646484375 -716 -25 -704.6171264648438 -25 -691C-25 -677.3828735351562 -13.61712646484375 -666 0 -666H398C411.61712646484375 -666 423 -677.3828735351562 423 -691ZM423 171C423 157.38287353515625 411.61712646484375 146 398 146H0C-13.61712646484375 146 -25 157.38287353515625 -25 171C-25 184.61712646484375 -13.61712646484375 196 0 196H398C411.61712646484375 196 423 184.61712646484375 423 171Z"/>
</svg>