<svg xmlns="http://www.w3.org/2000/svg" viewBox="0 -1000 1000 1000">
	<path fill="#000000" d="M80 -532C66.38287353515625 -532 55 -520.6171264648438 55 -507V-13C55 0.61712646484375 66.38287353515625 12 80 12C93.61712646484375 12 105 0.61712646484375 105 -13V-507C105 -520.6171264648438 93.61712646484375 -532 80 -532ZM185 -691C185 -704.6171264648438 173.61712646484375 -716 160 -716H0C-13.61712646484375 -716 -25 -704.6171264648438 -25 -691C-25 -677.3828735351562 -13.61712646484375 -666 0 -666H160C173.61712646484375 -666 185 -677.3828735351562 185 -691ZM185 171C185 157.38287353515625 173.61712646484375 146 160 146H0C-13.61712646484375 146 -25 157.38287353515625 -25 171C-25 184.61712646484375 -13.61712646484375 196 0 196H160C173.61712646484375 196 185 184.61712646484375 185 171Z"/>
</svg>