<svg xmlns="http://www.w3.org/2000/svg" viewBox="0 -1000 1000 1000">
	<path fill="#000000" d="M68 -200C54.38287353515625 -200 43 -188.61712646484375 43 -175C43 -100.57217407226562 68.43589782714844 12 168 12C263.1064758300781 12 300 -95.70606994628906 300 -175V-507C300 -520.6171264648438 288.61712646484375 -532 275 -532C261.38287353515625 -532 250 -520.6171264648438 250 -507V-175C250 -100.29393005371094 214.89352416992188 -38 168 -38C119.56410217285156 -38 93 -99.42782592773438 93 -175C93 -188.61712646484375 81.61712646484375 -200 68 -200ZM380 171C380 157.38287353515625 368.61712646484375 146 355 146H0C-13.61712646484375 146 -25 157.38287353515625 -25 171C-25 184.61712646484375 -13.61712646484375 196 0 196H355C368.61712646484375 196 380 184.61712646484375 380 171ZM380 -691C380 -704.6171264648438 368.61712646484375 -716 355 -716H-5C-18.61712646484375 -716 -30 -704.6171264648438 -30 -691C-30 -677.3828735351562 -18.61712646484375 -666 -5 -666H355C368.61712646484375 -666 380 -677.3828735351562 380 -691Z"/>
</svg>