<svg xmlns="http://www.w3.org/2000/svg" viewBox="0 -1000 1000 1000">
	<path fill="#000000" d="M80 -728C66.38287353515625 -728 55 -716.6171264648438 55 -703V-13C55 0.61712646484375 66.38287353515625 12 80 12C93.61712646484375 12 105 0.61712646484375 105 -13V-318.1515197753906C280.4041748046875 -295.3365478515625 453.98187255859375 -76.54716491699219 457.0276336669922 -11.8248291015625C457.66773986816406 1.777252197265625 469.5730895996094 12.612457275390625 483.1751708984375 11.972366333007812C496.7772521972656 11.332260131835938 507.6124572753906 -0.573089599609375 506.9723663330078 -14.1751708984375C502.8702850341797 -101.34431457519531 360.83543395996094 -279.2765808105469 195.21543884277344 -345.4851379394531C362.88832092285156 -423.8053436279297 485.2487487792969 -650.0864562988281 504.72662353515625 -692.5836334228516C510.4002685546875 -704.9624786376953 504.79522705078125 -720.052978515625 492.41636657714844 -725.7266235351562C480.0375213623047 -731.4002685546875 464.947021484375 -725.7952270507812 459.27337646484375 -713.4163665771484C437.71551513671875 -666.3810272216797 278.0332794189453 -389.7616271972656 105 -370.9502868652344V-703C105 -716.6171264648438 93.61712646484375 -728 80 -728Z"/>
</svg>