<svg xmlns="http://www.w3.org/2000/svg" viewBox="0 -1000 1000 1000">
	<path fill="#000000" d="M80 -532C66.38287353515625 -532 55 -520.6171264648438 55 -507V-13C55 0.61712646484375 66.38287353515625 12 80 12C93.61712646484375 12 105 0.61712646484375 105 -13V-233.4459991455078C274.0531921386719 -216.75262451171875 340.5464782714844 -79.08717346191406 376.34820556640625 -2.421905517578125C382.1099395751953 9.916183471679688 397.24000549316406 15.41351318359375 409.57810974121094 9.651779174804688C421.91619873046875 3.890045166015625 427.4135284423828 -11.240020751953125 421.65179443359375 -23.578125C392.4552001953125 -86.09925842285156 337.37794494628906 -205.37002563476562 207.07723999023438 -259.4299621582031C340.2213592529297 -317.06224060058594 404.34893798828125 -458.66868591308594 421.72662353515625 -496.5836486816406C427.4002685546875 -508.9624938964844 421.79522705078125 -524.0529937744141 409.41636657714844 -529.7266387939453C397.0375213623047 -535.4002838134766 381.947021484375 -529.7952423095703 376.27337646484375 -517.4163818359375C354.6439208984375 -470.2248229980469 273.40130615234375 -297.05645751953125 105 -285.5170593261719V-507.00001525878906C105 -520.6171417236328 93.61712646484375 -532.0000152587891 80 -532.0000152587891ZM492 -691.0000152587891C492 -704.6171417236328 480.61712646484375 -716.0000152587891 467 -716.0000152587891H0C-13.61712646484375 -716.0000152587891 -25 -704.6171417236328 -25 -691.0000152587891C-25 -677.3828887939453 -13.61712646484375 -666.0000152587891 0 -666.0000152587891H467C480.61712646484375 -666.0000152587891 492 -677.3828887939453 492 -691.0000152587891ZM492 170.99998474121094C492 157.3828582763672 480.61712646484375 145.99998474121094 467 145.99998474121094H0C-13.61712646484375 145.99998474121094 -25 157.3828582763672 -25 170.99998474121094C-25 184.6171112060547 -13.61712646484375 195.99998474121094 0 195.99998474121094H467C480.61712646484375 195.99998474121094 492 184.6171112060547 492 170.99998474121094Z"/>
</svg>