<svg xmlns="http://www.w3.org/2000/svg" viewBox="0 -1000 1000 1000">
	<path fill="#000000" d="M492 171C492 157.38287353515625 480.61712646484375 146 467 146H0C-13.61712646484375 146 -25 157.38287353515625 -25 171C-25 184.61712646484375 -13.61712646484375 196 0 196H467C480.61712646484375 196 492 184.61712646484375 492 171ZM492 -691C492 -704.6171264648438 480.61712646484375 -716 467 -716H0C-13.61712646484375 -716 -25 -704.6171264648438 -25 -691C-25 -677.3828735351562 -13.61712646484375 -666 0 -666H467C480.61712646484375 -666 492 -677.3828735351562 492 -691ZM80 -532C66.38287353515625 -532 55 -520.6171264648438 55 -507V-25C55 -9.867462158203125 69.27009582519531 0 80 0H399C412.61712646484375 0 424 -11.38287353515625 424 -25C424 -38.61712646484375 412.61712646484375 -50 399 -50H105V-507C105 -520.6171264648438 93.61712646484375 -532 80 -532Z"/>
</svg>