<svg xmlns="http://www.w3.org/2000/svg" viewBox="0 -1000 1000 1000">
	<path fill="#000000" d="M80 12C93.61712646484375 12 105 0.61712646484375 105 -13V-604.8380889892578L253.0455780029297 -333.0415802001953C259.91944885253906 -320.42181396484375 276.6024627685547 -316.2086639404297 288.6440124511719 -324.0514678955078C292.10430908203125 -326.30519104003906 295.17218017578125 -329.76959228515625 296.95440673828125 -333.0415802001953L444.99998474121094 -604.8380889892578V-13C444.99998474121094 0.61712646484375 456.3828582763672 12 469.99998474121094 12C483.6171112060547 12 494.99998474121094 0.61712646484375 494.99998474121094 -13V-703C494.99998474121094 -710.3811340332031 490.900634765625 -719.2221984863281 483.6440124511719 -723.9485168457031C471.6024627685547 -731.7913208007812 454.91944885253906 -727.5781707763672 448.0455627441406 -714.9584045410156L274.99998474121094 -397.26446533203125L101.95440673828125 -714.9584045410156C98.42375183105469 -721.4403381347656 90.59478759765625 -727.2434997558594 81.96142578125 -727.9229431152344C67.63531494140625 -729.0503997802734 55 -717.3704071044922 55 -703V-13C55 0.61712646484375 66.38287353515625 12 80 12Z"/>
</svg>