<svg xmlns="http://www.w3.org/2000/svg" viewBox="0 -1000 1000 1000">
	<path fill="#000000" d="M80 12C93.61712646484375 12 105 0.61712646484375 105 -13V-415.4772186279297L254.4716796875 -162.29049682617188C261.7772979736328 -149.91567993164062 278.5958557128906 -146.28118896484375 290.35935974121094 -154.53518676757812C293.29005432128906 -156.59153747558594 295.92124938964844 -159.5397491455078 297.5850372314453 -162.38705444335938L445 -414.6642150878906V-13C445 0.61712646484375 456.38287353515625 12 470 12C483.61712646484375 12 495 0.61712646484375 495 -13V-507C495 -513.0075073242188 491.3826599121094 -522.5839385986328 484.26756286621094 -527.5289306640625C472.4672088623047 -535.7301483154297 455.6650848388672 -532.0203704833984 448.4149627685547 -519.6129455566406L275.8894500732422 -224.36309814453125L101.5283203125 -519.7095031738281C98.57933044433594 -524.7047271728516 90.59638977050781 -531.2433624267578 81.96142578125 -531.9229431152344C67.63531494140625 -533.0503997802734 55 -521.3704071044922 55 -507V-13C55 0.61712646484375 66.38287353515625 12 80 12ZM575 -691C575 -704.6171264648438 563.6171264648438 -716 550 -716H0C-13.61712646484375 -716 -25 -704.6171264648438 -25 -691C-25 -677.3828735351562 -13.61712646484375 -666 0 -666H550C563.6171264648438 -666 575 -677.3828735351562 575 -691ZM575 171C575 157.38287353515625 563.6171264648438 146 550 146H0C-13.61712646484375 146 -25 157.38287353515625 -25 171C-25 184.61712646484375 -13.61712646484375 196 0 196H550C563.6171264648438 196 575 184.61712646484375 575 171Z"/>
</svg>