<svg xmlns="http://www.w3.org/2000/svg" viewBox="0 -1000 1000 1000">
	<path fill="#000000" d="M485 171C485 157.38287353515625 473.61712646484375 146 460 146H0C-13.61712646484375 146 -25 157.38287353515625 -25 171C-25 184.61712646484375 -13.61712646484375 196 0 196H460C473.61712646484375 196 485 184.61712646484375 485 171ZM485 -691C485 -704.6171264648438 473.61712646484375 -716 460 -716H0C-13.61712646484375 -716 -25 -704.6171264648438 -25 -691C-25 -677.3828735351562 -13.61712646484375 -666 0 -666H460C473.61712646484375 -666 485 -677.3828735351562 485 -691ZM80 12C93.61712646484375 12 105 0.61712646484375 105 -13V-417.6701202392578L358.6316833496094 -0.023284912109375C366.0909118652344 12.259567260742188 382.9534454345703 15.684234619140625 394.6132049560547 7.284332275390625C401.1841125488281 2.550537109375 405 -5.543548583984375 405 -13V-507C405 -520.6171264648438 393.61712646484375 -532 380 -532C366.38287353515625 -532 355 -520.6171264648438 355 -507V-102.32987976074219L101.36831665039062 -519.9767150878906C98.65736389160156 -524.4407501220703 90.58268737792969 -531.2444458007812 81.96142578125 -531.9229431152344C67.63531494140625 -533.0503997802734 55 -521.3704071044922 55 -507V-13C55 0.61712646484375 66.38287353515625 12 80 12Z"/>
</svg>