<svg xmlns="http://www.w3.org/2000/svg" viewBox="0 -1000 1000 1000">
	<path fill="#000000" d="M457 -25C457 -11.38287353515625 468.38287353515625 0 482 0H689C703.3704071044922 0 715.0503997802734 -12.63531494140625 713.9229431152344 -26.96142578125C713.7183532714844 -29.560928344726562 712.3355560302734 -34.01689147949219 711.9712219238281 -34.865234375L504.9712219238281 -516.865234375C499.30052185058594 -530.0694732666016 483.08154296875 -535.8155975341797 470.3629150390625 -529.1264190673828C465.14805603027344 -526.3837280273438 460.72071838378906 -520.9055328369141 458.9424591064453 -516.6617584228516L275 -77.68797302246094L91.05754089355469 -516.6617584228516C85.79490661621094 -529.2208557128906 70.89732360839844 -535.3201446533203 58.338226318359375 -530.0575256347656C45.77911376953125 -524.7949066162109 39.67982482910156 -509.89732360839844 44.94244384765625 -497.3382263183594L251.94244384765625 -3.338226318359375C254.07984924316406 1.762603759765625 258.3241271972656 6.5340423583984375 263.5589904785156 9.228439331054688C276.3362579345703 15.804916381835938 292.50379943847656 9.915618896484375 298.0575408935547 -3.3382415771484375L482.28297424316406 -442.98731994628906L651.0555419921875 -50H482.00001525878906C468.3828887939453 -50 457.00001525878906 -38.61712646484375 457.00001525878906 -25Z"/>
</svg>