<svg xmlns="http://www.w3.org/2000/svg" viewBox="0 -1000 1000 1000">
	<path fill="#000000" d="M150.2001953125 -599.2001953125C150.2001953125 -569.1475677490234 160.6376495361328 -540.7483673095703 178.28074645996094 -518.2702178955078C112.71974182128906 -479.6031951904297 44 -392.3109436035156 44 -260C44 -104.72148132324219 135.2259979248047 12 276 12C416.75453186035156 12 508.2108917236328 -104.69822692871094 507.9999694824219 -260.03395080566406C507.9830627441406 -272.4960021972656 497.2142639160156 -285 483 -285H276C262.38287353515625 -285 251 -273.61712646484375 251 -260C251 -246.38287353515625 262.38287353515625 -235 276 -235H457.138427734375C448.0492706298828 -112.04763793945312 376.71388244628906 -38 276 -38C168.7740020751953 -38 94 -123.27851867675781 94 -260C94 -387.13604736328125 167.82569885253906 -460.85089111328125 220.04022216796875 -483.5697784423828C236.7847442626953 -474.92478942871094 255.74208068847656 -470 276 -470C346.85557556152344 -470 401.7998046875 -530.2478942871094 401.7998046875 -599.2001953125C401.7998046875 -668.2447357177734 346.72723388671875 -728 276 -728C205.2725067138672 -728 150.2001953125 -668.2449188232422 150.2001953125 -599.2001953125ZM200.2001953125 -599.2001953125C200.2001953125 -642.1554718017578 234.7274932861328 -678 276 -678C317.27276611328125 -678 351.7998046875 -642.1556549072266 351.7998046875 -599.2001953125C351.7998046875 -556.1524963378906 317.14442443847656 -520 276 -520C234.8553009033203 -520 200.2001953125 -556.1522827148438 200.2001953125 -599.2001953125Z"/>
</svg>