<svg xmlns="http://www.w3.org/2000/svg" viewBox="0 -1000 1000 1000">
	<path fill="#000000" d="M274.8529510498047 -150.00042724609375C288.4698486328125 -149.9203338623047 299.9194793701172 -161.23605346679688 299.9995880126953 -174.8529510498047L300.9995880126953 -344.8529510498047C301.0796813964844 -358.4698486328125 289.7639617919922 -369.9194793701172 276.1470642089844 -369.9995880126953C262.5301818847656 -370.0796813964844 251.08055114746094 -358.7639617919922 251.0004425048828 -345.1470642089844L250.0004425048828 -175.14706420898438C249.92034912109375 -161.53016662597656 261.23606872558594 -150.08053588867188 274.85296630859375 -150.00042724609375ZM-36.19007873535156 75.97688293457031C-44.917633056640625 86.42945861816406 -43.47566223144531 102.46255493164062 -33.023101806640625 111.19010925292969C-31.310348510742188 112.62020874023438 50.0745849609375 190.531982421875 74.99911499023438 195.54258728027344C76.95257568359375 195.93528747558594 105.00001525878906 194.89071655273438 105.00001525878906 171.00001525878906V65.00001525878906C105.00001525878906 -76.93388366699219 167.69459533691406 -149.99998474121094 275.00001525878906 -149.99998474121094C382.3019256591797 -149.99998474121094 445.00001525878906 -76.90452575683594 445.00001525878906 65.00001525878906V171.00001525878906C445.00001525878906 184.6171417236328 456.3828887939453 196.00001525878906 470.00001525878906 196.00001525878906C483.6171417236328 196.00001525878906 495.00001525878906 184.6171417236328 495.00001525878906 171.00001525878906V65.00001525878906C495.00001525878906 -93.09544372558594 415.69810485839844 -199.99998474121094 275.00001525878906 -199.99998474121094C134.30543518066406 -199.99998474121094 55.00001525878906 -93.12663269042969 55.00001525878906 65.00001525878906V119.21699523925781C30.082489013671875 98.72607421875 -0.97686767578125 72.80992126464844 -0.97686767578125 72.80992126464844C-11.429428100585938 64.08236694335938 -27.4625244140625 65.52433776855469 -36.19007873535156 75.97689819335938ZM275.00001525878906 -727.9999847412109C131.60220336914062 -727.9999847412109 43.00001525878906 -632.1559906005859 43.00001525878906 -524.9999847412109C43.00001525878906 -403.9182434082031 133.99212646484375 -319.99998474121094 276.00001525878906 -319.99998474121094C417.3505096435547 -319.99998474121094 507.00001525878906 -405.1418914794922 507.00001525878906 -524.9999847412109C507.00001525878906 -630.8638153076172 418.5428466796875 -727.9999847412109 275.00001525878906 -727.9999847412109ZM275.00001525878906 -677.9999847412109C394.7187194824219 -677.9999847412109 457.00001525878906 -601.1361541748047 457.00001525878906 -524.9999847412109C457.00001525878906 -434.8580780029297 395.8660125732422 -369.99998474121094 276.00001525878906 -369.99998474121094C154.82423400878906 -369.99998474121094 93.00001525878906 -434.08172607421875 93.00001525878906 -524.9999847412109C93.00001525878906 -602.3752288818359 155.13629150390625 -677.9999847412109 275.00001525878906 -677.9999847412109Z"/>
</svg>