<svg xmlns="http://www.w3.org/2000/svg" viewBox="0 -1000 1000 1000">
	<path fill="#000000" d="M25 -323C25 -295.39097595214844 47.39210510253906 -273 75 -273C102.60902404785156 -273 125 -295.39210510253906 125 -323C125 -350.60902404785156 102.60789489746094 -373 75 -373C47.39097595214844 -373 25 -350.60789489746094 25 -323ZM375 -323C375 -295.39097595214844 397.39210510253906 -273 425 -273C452.60902404785156 -273 475 -295.39210510253906 475 -323C475 -350.60902404785156 452.60789489746094 -373 425 -373C397.39097595214844 -373 375 -350.60789489746094 375 -323ZM76.64826965332031 -25H423.3517303466797C411.57862854003906 63.15992736816406 338.18516540527344 127 250.00001525878906 127C206.28553771972656 88.66983032226562 88.42141723632812 63.159698486328125 76.64828491210938 -25ZM475.00001525878906 -50C475.00001525878906 -178.87940979003906 374.5293884277344 -269 252.00001525878906 -269C129.94705200195312 -269 25.000015258789062 -179.53347778320312 25.000015258789062 -50C25.000015258789062 78.24821472167969 126.32421875 177 250.00001525878906 177C373.67601013183594 177 475.00001525878906 78.24790954589844 475.00001525878906 -50ZM423.3757019042969 -75H76.71714782714844C88.74241638183594 -160.98329162597656 162.47979736328125 -219 252.00001525878906 -219C341.1332702636719 -219 411.9183349609375 -161.46710205078125 423.3757019042969 -75Z"/>
</svg>