<svg xmlns="http://www.w3.org/2000/svg" viewBox="0 -1000 1000 1000">
	<path fill="#000000" d="M80 -183C66.3828125 -183 55 -171.6171875 55 -158V325C55 340.1328125 69.2705078125 350 80 350H470C485.1328125 350 495 335.7294921875 495 325V-158C495 -171.6171875 483.6171875 -183 470 -183C456.3828125 -183 445 -171.6171875 445 -158V300H105V-158C105 -171.6171875 93.6171875 -183 80 -183ZM234 90C234 112.6220703125 252.3779296875 131 275 131C297.6220703125 131 316 112.6220703125 316 90C316 67.3779296875 297.6220703125 49 275 49C252.3779296875 49 234 67.3779296875 234 90Z"/>
</svg>