<svg xmlns="http://www.w3.org/2000/svg" viewBox="0 -1000 1000 1000">
	<path fill="#000000" d="M43 -13C43 0.61712646484375 54.38287353515625 12 68 12C126.82481384277344 12 151.92788696289062 -50.5174560546875 165.2863006591797 -97.80781555175781C180.88426208496094 -48.29707336425781 208.63406372070312 12 268 12C371.43211364746094 12 393 -73.91427612304688 393 -213V-507C393 -520.6171264648438 381.61712646484375 -532 368 -532C354.38287353515625 -532 343 -520.6171264648438 343 -507V-213C343 -68.07791137695312 324.56788635253906 -38 268 -38C211.14523315429688 -38 188.6464385986328 -247.47122192382812 187.96981811523438 -261.22813415527344C187.50218200683594 -270.7359161376953 178.9423065185547 -283.4797821044922 165.58062744140625 -284.866455078125C151.2869873046875 -286.34983825683594 138.3651123046875 -274.9876708984375 138.0077362060547 -260.62171936035156C137.63938903808594 -245.81475830078125 119.75082397460938 -38 68 -38C54.38287353515625 -38 43 -26.61712646484375 43 -13Z"/>
</svg>