<svg xmlns="http://www.w3.org/2000/svg" viewBox="0 -1000 1000 1000">
	<path fill="#000000" d="M93 -260C93 -396.72142028808594 167.77545166015625 -482 275 -482C382.2259979248047 -482 457 -396.7214813232422 457 -260C457 -130.33531188964844 383.3493957519531 -50 275 -50C166.65084838867188 -50 93 -130.33526611328125 93 -260ZM43 -260C43 -109.66473388671875 135.34915161132812 0 275 0C414.6506042480469 0 507 -109.66468811035156 507 -260C507 -415.2785186767578 415.7740020751953 -532 275 -532C134.22454833984375 -532 43 -415.27857971191406 43 -260ZM441 209C454.61712646484375 209 466 197.61712646484375 466 184C466 80.88740539550781 419.95887756347656 -50 275 -50C164.21347045898438 -50 116.71025085449219 30.668075561523438 102.25668334960938 109.57781982421875L45.9317626953125 23.330276489257812C38.48606872558594 11.929046630859375 22.731491088867188 8.622528076171875 11.330276489257812 16.068222045898438C-0.0709381103515625 23.513916015625 -3.3774566650390625 39.26849365234375 4.0682373046875 50.669708251953125L100.0682373046875 197.66970825195312C103.69332885742188 203.2206268310547 111.12286376953125 208.2999725341797 119.03857421875 208.92294311523438C133.36468505859375 210.05039978027344 146 198.3704071044922 146 184C146 87.34629821777344 173.3443145751953 0 275 0C378.3312683105469 0 416 89.11259460449219 416 184C416 197.61712646484375 427.38287353515625 209 441 209Z"/>
</svg>