<svg xmlns="http://www.w3.org/2000/svg" viewBox="0 -1000 1000 1000">
	<path fill="#000000" d="M43.809906005859375 -108.02311706542969C35.08235168457031 -97.57054138183594 36.524322509765625 -81.53744506835938 46.97688293457031 -72.80989074707031C48.68963623046875 -71.37979125976562 130.07456970214844 6.531982421875 154.9990997314453 11.542587280273438C156.9525604248047 11.935287475585938 185 10.890716552734375 185 -12.999984741210938C185 -24.704055786132812 161 -131.495361328125 161 -199.99998474121094C161 -283.7744903564453 198.68795776367188 -344.99998474121094 290 -344.99998474121094C382.3238830566406 -344.99998474121094 440 -278.84666442871094 440 -199.99998474121094V-12.999984741210938C440 0.6171417236328125 451.38287353515625 12.000015258789062 465 12.000015258789062C478.61712646484375 12.000015258789062 490 0.6171417236328125 490 -12.999984741210938V-199.99998474121094C490 -305.15330505371094 409.6858825683594 -394.99998474121094 290 -394.99998474121094C165.27493286132812 -394.99998474121094 111 -300.26454162597656 111 -199.99998474121094C111 -161.2042999267578 117.22991943359375 -114.79910278320312 123.72772216796875 -74.07273864746094C101.87294006347656 -92.12120056152344 79.02311706542969 -111.19007873535156 79.02311706542969 -111.19007873535156C68.570556640625 -119.91763305664062 52.53746032714844 -118.47566223144531 43.809906005859375 -108.02310180664062ZM290 -715.9999847412109C276.38287353515625 -715.9999847412109 265 -704.6171112060547 265 -690.9999847412109V-369.99998474121094C265 -356.3828582763672 276.38287353515625 -344.99998474121094 290 -344.99998474121094C303.61712646484375 -344.99998474121094 315 -356.3828582763672 315 -369.99998474121094V-690.9999847412109C315 -704.6171112060547 303.61712646484375 -715.9999847412109 290 -715.9999847412109ZM90 -690.9999847412109V-494.99998474121094C90 -479.86744689941406 104.27009582519531 -469.99998474121094 115 -469.99998474121094H465C480.1325378417969 -469.99998474121094 490 -484.27008056640625 490 -494.99998474121094V-690.9999847412109C490 -706.1325225830078 475.7299041748047 -715.9999847412109 465 -715.9999847412109H115C99.86746215820312 -715.9999847412109 90 -701.7298889160156 90 -690.9999847412109ZM140 -665.9999847412109H440V-519.9999847412109H140Z"/>
</svg>