<svg xmlns="http://www.w3.org/2000/svg" viewBox="0 -1000 1000 1000">
	<path fill="#000000" d="M43 -495C43 -481.38287353515625 54.38287353515625 -470 68 -470H127C140.61712646484375 -470 152 -481.38287353515625 152 -495C152 -508.61712646484375 140.61712646484375 -520 127 -520H68C54.38287353515625 -520 43 -508.61712646484375 43 -495ZM411 -495C411 -508.61712646484375 399.61712646484375 -520 386 -520H327C313.38287353515625 -520 302 -508.61712646484375 302 -495C302 -481.38287353515625 313.38287353515625 -470 327 -470H386C399.61712646484375 -470 411 -481.38287353515625 411 -495ZM152 -495C152 -536.1558532714844 185.8445587158203 -570 227 -570C268.1558532714844 -570 302 -536.1554412841797 302 -495C302 -453.8441467285156 268.1554412841797 -420 227 -420C185.84414672851562 -420 152 -453.8445587158203 152 -495ZM102 -495C102 -426.1554412841797 158.15585327148438 -370 227 -370C295.8445587158203 -370 352 -426.1558532714844 352 -495C352 -563.8445587158203 295.8441467285156 -620 227 -620C158.1554412841797 -620 102 -563.8441467285156 102 -495ZM227 -688C213.38287353515625 -688 202 -676.6171264648438 202 -663V-595C202 -581.3828735351562 213.38287353515625 -570 227 -570C240.61712646484375 -570 252 -581.3828735351562 252 -595V-663C252 -676.6171264648438 240.61712646484375 -688 227 -688ZM409.2444152832031 -34.20310974121094L409.24424743652344 -34.20286560058594C409.1560516357422 -34.42613220214844 409.0643005371094 -34.648681640625 408.968994140625 -34.87046813964844L249.968994140625 -404.87046813964844C248.12567138671875 -409.1599426269531 243.7853240966797 -414.41729736328125 238.64210510253906 -417.12379455566406C225.9250030517578 -423.81585693359375 209.7047119140625 -418.0734100341797 204.03102111816406 -404.87046813964844L45.03102111816406 -34.87046813964844C45.027801513671875 -34.86296081542969 43.28559875488281 -29.611099243164062 43.07707214355469 -26.961441040039062C41.949615478515625 -12.635330200195312 53.629608154296875 -1.52587890625e-05 68.00001525878906 -1.52587890625e-05H386.00001525878906C386.23985290527344 -1.52587890625e-05 386.47898864746094 -0.0035400390625 386.7173767089844 -0.01055908203125L386.7218780517578 -0.01043701171875C389.86378479003906 -0.1011810302734375 392.9826202392578 -0.7900238037109375 395.87046813964844 -2.0310211181640625C400.48838806152344 -4.015472412109375 404.2143249511719 -7.3046112060546875 406.80723571777344 -11.2940673828125C409.4490509033203 -15.25152587890625 411.00001525878906 -19.973556518554688 411.00001525878906 -25C411.00001525878906 -28.143203735351562 410.4015197753906 -31.2806396484375 409.2444305419922 -34.20310974121094ZM348.04615783691406 -50H105.953857421875L227 -331.6797180175781Z"/>
</svg>