<svg xmlns="http://www.w3.org/2000/svg" viewBox="0 -1000 1000 1000">
	<path fill="#000000" d="M386 -619C259.7283477783203 -619 206.19459533691406 -510.805908203125 202.01651000976562 -395.9084930419922C201.47824096679688 -381.1061553955078 214.58770751953125 -370 227 -370C303.6783447265625 -370 411 -429.7776184082031 411 -594C411 -609.1325378417969 396.7299041748047 -619 386 -619ZM359.8136444091797 -566.7450408935547C351.0799865722656 -472.0745391845703 299.70924377441406 -434.37713623046875 254.2360382080078 -423.3372039794922C263.9475402832031 -502.5294952392578 297.9128875732422 -555.3407745361328 359.81365966796875 -566.7450561523438ZM94.05560302734375 -566.7691497802734C156.4049530029297 -555.2822265625 190.33584594726562 -502.0048522949219 199.8511962890625 -422.6026611328125C150.70748901367188 -432.30067443847656 102.05569458007812 -468.68572998046875 94.05558776855469 -566.7691497802734ZM68 -619.0000152587891C57.27009582519531 -619.0000152587891 43 -609.1325531005859 43 -594.0000152587891C43 -430.9128112792969 140.11752319335938 -370.00001525878906 227 -370.00001525878906C239.41229248046875 -370.00001525878906 252.52175903320312 -381.1061706542969 251.98348999023438 -395.90850830078125C247.80540466308594 -510.80592346191406 194.2716522216797 -619.0000152587891 68 -619.0000152587891ZM409.2444152832031 -34.203125L409.24424743652344 -34.202880859375C409.1560516357422 -34.4261474609375 409.0643005371094 -34.64869689941406 408.968994140625 -34.8704833984375L249.968994140625 -404.8704833984375C248.12567138671875 -409.1599578857422 243.7853240966797 -414.4173126220703 238.64210510253906 -417.1238098144531C225.9250030517578 -423.8158721923828 209.7047119140625 -418.07342529296875 204.03102111816406 -404.8704833984375L45.03102111816406 -34.8704833984375C45.027801513671875 -34.86297607421875 43.28559875488281 -29.611114501953125 43.07707214355469 -26.961456298828125C41.949615478515625 -12.635345458984375 53.629608154296875 -3.0517578125e-05 68.00001525878906 -3.0517578125e-05H386.00001525878906C386.23985290527344 -3.0517578125e-05 386.47898864746094 -0.0035552978515625 386.7173767089844 -0.0105743408203125L386.7218780517578 -0.0104522705078125C389.86378479003906 -0.1011962890625 392.9826202392578 -0.7900390625 395.87046813964844 -2.031036376953125C400.48838806152344 -4.0154876708984375 404.2143249511719 -7.30462646484375 406.80723571777344 -11.294082641601562C409.4490509033203 -15.251541137695312 411.00001525878906 -19.97357177734375 411.00001525878906 -25.000015258789062C411.00001525878906 -28.143218994140625 410.4015197753906 -31.280654907226562 409.2444305419922 -34.203125ZM348.04615783691406 -50.00001525878906H105.953857421875L227 -331.6797332763672Z"/>
</svg>