<svg xmlns="http://www.w3.org/2000/svg" viewBox="0 -1000 1000 1000">
	<path fill="#000000" d="M100 -625C86.38287353515625 -625 75 -613.6171264648438 75 -600V100C75 115.13253784179688 89.27009582519531 125 100 125H800C815.1325378417969 125 825 110.72990417480469 825 100V-600C825 -613.6171264648438 813.6171264648438 -625 800 -625C786.3828735351562 -625 775 -613.6171264648438 775 -600V75H125V-600C125 -613.6171264648438 113.61712646484375 -625 100 -625ZM408 200C408 227.60902404785156 430.39210510253906 250 458 250C485.60902404785156 250 508 227.60789489746094 508 200C508 172.39097595214844 485.60789489746094 150 458 150C430.39097595214844 150 408 172.39210510253906 408 200Z"/>
</svg>