<svg xmlns="http://www.w3.org/2000/svg" viewBox="0 -1000 1000 1000">
	<path fill="#000000" d="M75 -250C75 -110.73681640625 150.1336212158203 10.3143310546875 262.24725341796875 75H100C84.86746215820312 75 75 89.27009582519531 75 100V218C75 231.61712646484375 86.38287353515625 243 100 243C113.61712646484375 243 125 231.61712646484375 125 218V125H450H775V222C775 235.61712646484375 786.3828735351562 247 800 247C813.6171264648438 247 825 235.61712646484375 825 222V100C825 84.86746215820312 810.7299041748047 75 800 75H637.7527618408203C749.8664245605469 10.314285278320312 824.9999847412109 -110.7369384765625 824.9999847412109 -250C824.9999847412109 -457.7681427001953 657.7678985595703 -625 449.99998474121094 -625C242.23184204101562 -625 74.99998474121094 -457.7679138183594 74.99998474121094 -250ZM449.99998474121094 75C269.7678985595703 75 124.99998474121094 -69.76814270019531 124.99998474121094 -250C124.99998474121094 -430.2320861816406 269.76812744140625 -575 449.99998474121094 -575C630.2320709228516 -575 774.9999847412109 -430.2318572998047 774.9999847412109 -250C774.9999847412109 -69.76791381835938 630.2318420410156 75 449.99998474121094 75Z"/>
</svg>