<svg xmlns="http://www.w3.org/2000/svg" viewBox="0 -1000 1000 1000">
	<path fill="#000000" d="M175.04782104492188 9.473312377929688C187.2886962890625 15.438812255859375 202.5078125 10.193069458007812 208.4733123779297 -2.0478057861328125L362.4733123779297 -318.0478057861328C368.4388122558594 -330.28868103027344 363.1930694580078 -345.50779724121094 350.9521942138672 -351.4732971191406C338.71131896972656 -357.43878173828125 323.49220275878906 -352.1930389404297 317.5267028808594 -339.95216369628906L163.52670288085938 -23.952163696289062C157.5612030029297 -11.711288452148438 162.80694580078125 3.5078277587890625 175.04782104492188 9.47332763671875ZM199.04782104492188 -351.4732971191406C186.80694580078125 -345.5078125 181.5612030029297 -330.2886962890625 187.5266876220703 -318.0478210449219L341.5266876220703 -2.047821044921875C347.49217224121094 10.19305419921875 362.71128845214844 15.438796997070312 374.95216369628906 9.473312377929688C387.1930389404297 3.5078125 392.43878173828125 -11.7113037109375 386.4732971191406 -23.952178955078125L232.47329711914062 -339.9521789550781C226.5078125 -352.19305419921875 211.2886962890625 -357.4387969970703 199.04782104492188 -351.4733123779297ZM251.9424591064453 -516.6617584228516L44.94245910644531 -22.661758422851562C39.38873291015625 -9.40789794921875 46.52833557128906 6.2477569580078125 60.17706298828125 10.744522094726562C62.68559265136719 11.57098388671875 65.55116271972656 12.000015258789062 68.00001525878906 12.000015258789062H482.00001525878906C496.37042236328125 12.000015258789062 508.0504150390625 -0.6352996826171875 506.92295837402344 -14.961410522460938C506.7157287597656 -17.594436645507812 506.00396728515625 -20.403167724609375 505.05755615234375 -22.6617431640625L298.05755615234375 -516.6617431640625C292.50379943847656 -529.9155883789062 276.3362579345703 -535.8048858642578 263.5589904785156 -529.2284088134766C258.30455017089844 -526.5239410400391 253.98193359375 -521.5289001464844 251.9424591064453 -516.6617279052734ZM275 -442.31199645996094L444.41819763183594 -37.999969482421875H105.58180236816406Z"/>
</svg>