<svg xmlns="http://www.w3.org/2000/svg" viewBox="0 -1000 1000 1000">
	<path fill="#000000" d="M284.2966003417969 -346.36248779296875C263.7263641357422 -380.57220458984375 225.19004821777344 -411.900390625 165 -411.900390625C104.63926696777344 -411.900390625 43 -373.65904235839844 43 -260C43 -141.31539916992188 96.02462768554688 -91.900390625 171 -91.900390625C228.94854736328125 -91.900390625 265.7524719238281 -123.36488342285156 285.1886291503906 -157.19215393066406C304.9778137207031 -123.25242614746094 342.3133087158203 -91.900390625 401 -91.900390625C485.90928649902344 -91.900390625 530 -142.73594665527344 530 -258.900390625C530 -374.72607421875 467.6201629638672 -411.900390625 397 -411.900390625C339.41651916503906 -411.900390625 303.2507781982422 -380.1963195800781 284.2966003417969 -346.36248779296875ZM310.02288818359375 -252.90505981445312C310.1243438720703 -256.14593505859375 310.62615966796875 -265.75440979003906 312.8294372558594 -277.7431640625C319.70079040527344 -315.1324920654297 338.3093566894531 -361.900390625 397 -361.900390625C446.3798370361328 -361.900390625 480 -351.07470703125 480 -258.900390625C480 -155.76405334472656 456.09071350097656 -141.900390625 401 -141.900390625C330.0207977294922 -141.900390625 314.57489013671875 -205.99183654785156 310.8278503417969 -240.13584899902344C310.1801452636719 -246.03787231445312 310.03448486328125 -250.36550903320312 310.0086212158203 -251.46408081054688C310.02288818359375 -252.02056884765625 310.02288818359375 -252.4208984375 310.02288818359375 -252.90505981445312ZM260.0158233642578 -253.22938537597656C260.0158386230469 -252.61013793945312 260.0013427734375 -252.3168182373047 260 -251.95201110839844C259.99810791015625 -251.75181579589844 259.91741943359375 -244.44467163085938 258.40032958984375 -233.8511505126953C253.15863037109375 -197.24966430664062 235.94683837890625 -141.90037536621094 171.00001525878906 -141.90037536621094C125.97538757324219 -141.90037536621094 93.00001525878906 -157.24903869628906 93.00001525878906 -259.99998474121094C93.00001525878906 -351.5811767578125 129.36074829101562 -361.90037536621094 165.00001525878906 -361.90037536621094C230.30311584472656 -361.90037536621094 249.73849487304688 -314.3423156738281 257.0119323730469 -277.9839172363281C259.4095916748047 -265.99853515625 259.9449920654297 -256.243896484375 260.0158386230469 -253.2293701171875Z"/>
</svg>