<svg xmlns="http://www.w3.org/2000/svg" viewBox="0 -1000 1000 1000">
	<path fill="#000000" d="M11.578170776367188 -129.90077209472656C2.372589111328125 -119.86668395996094 3.0651397705078125 -103.78378295898438 13.0992431640625 -94.57818603515625L93.92237854003906 -20.42852783203125L122.01675415039062 5.34613037109375C122.74998474121094 6.026092529296875 122.16909790039062 5.486175537109375 122.91207885742188 6.1555023193359375C131.50100708007812 12.874130249023438 146.16067504882812 14.494720458984375 156.0390625 5.2939605712890625C165.46054077148438 -3.4812164306640625 166.1559295654297 -19.008331298828125 157.97998046875 -29.299530029296875C157.58262634277344 -30.062301635742188 156.7811737060547 -31.777236938476562 155.81788635253906 -34.70979309082031C152.6925506591797 -44.22418212890625 148 -66.5218505859375 148 -110.00003051757812C148 -245.58348083496094 207.87564086914062 -286.0000305175781 288 -286.0000305175781C381.2662658691406 -286.0000305175781 445 -243.8487091064453 445 -110.00003051757812V-13.000030517578125C445 0.617095947265625 456.38287353515625 11.999969482421875 470 11.999969482421875C483.61712646484375 11.999969482421875 495 0.617095947265625 495 -13.000030517578125V-110.00003051757812C495 -268.17869567871094 404.7669372558594 -336.0000305175781 288 -336.0000305175781C180.58334350585938 -336.0000305175781 98 -266.4165802001953 98 -110.00003051757812C98 -100.61039733886719 98.20033264160156 -91.94075012207031 98.558349609375 -84.02958679199219L46.90077209472656 -131.42185974121094C36.86668395996094 -140.62744140625 20.783782958984375 -139.9348907470703 11.57818603515625 -129.90078735351562ZM213.20021057128906 -408.20021057128906C213.20021057128906 -449.97991943359375 246.06832885742188 -482.00001525878906 289.00001525878906 -482.00001525878906C331.9316711425781 -482.00001525878906 364.79981994628906 -449.97998046875 364.79981994628906 -408.20021057128906C364.79981994628906 -367.134521484375 331.72279357910156 -336.00001525878906 288.00001525878906 -336.00001525878906C244.7519073486328 -336.00001525878906 213.20021057128906 -366.47271728515625 213.20021057128906 -408.20021057128906ZM163.20021057128906 -408.20021057128906C163.20021057128906 -337.9277038574219 219.2481231689453 -286.00001525878906 288.00001525878906 -286.00001525878906C356.27723693847656 -286.00001525878906 414.79981994628906 -337.2658996582031 414.79981994628906 -408.20021057128906C414.79981994628906 -478.4204406738281 358.068359375 -532.0000152587891 289.00001525878906 -532.0000152587891C219.93170166015625 -532.0000152587891 163.20021057128906 -478.4205017089844 163.20021057128906 -408.20021057128906Z"/>
</svg>