<svg xmlns="http://www.w3.org/2000/svg" viewBox="0 -1000 1000 1000">
	<path fill="#000000" d="M43 -10C43 145.2783203125 134.2255859375 262 275 262C415.775390625 262 507 145.2783203125 507 -10C507 -165.2783203125 415.7744140625 -282 275 -282C134.224609375 -282 43 -165.2783203125 43 -10ZM300 15H456.1357421875C448.2666015625 126.6630859375 387.314453125 198.9140625 300 210.3916015625ZM250 15V210.3916015625C162.6845703125 198.9140625 101.7333984375 126.6630859375 93.8642578125 15ZM300 -35V-230.3916015625C387.3154296875 -218.9140625 448.2666015625 -146.6630859375 456.1357421875 -35ZM250 -35H93.8642578125C101.7333984375 -146.6630859375 162.685546875 -218.9140625 250 -230.3916015625Z"/>
</svg>