<svg xmlns="http://www.w3.org/2000/svg" viewBox="0 -1000 1000 1000">
	<path fill="#000000" d="M58.33824157714844 10.057540893554688C70.89735412597656 15.320144653320312 85.79493713378906 9.220855712890625 91.05755615234375 -3.3382568359375L275.2829895019531 -442.9873352050781L444.05555725097656 -50.00001525878906H275.0000305175781C261.3829040527344 -50.00001525878906 250.00003051757812 -38.61714172363281 250.00003051757812 -25.000015258789062C250.00003051757812 -11.382888793945312 261.3829040527344 -1.52587890625e-05 275.0000305175781 -1.52587890625e-05H482.0000305175781C482.0000305175781 -1.52587890625e-05 487.5156707763672 -0.47161865234375 490.03260803222656 -1.3256072998046875C503.6410369873047 -5.9428558349609375 510.64195251464844 -21.661026000976562 504.97125244140625 -34.86524963378906L297.97125244140625 -516.8652496337891C295.95396423339844 -521.5625305175781 291.6450958251953 -526.5499114990234 286.4410400390625 -529.2284545898438C273.6637725830078 -535.804931640625 257.49623107910156 -529.9156341552734 251.94248962402344 -516.6617736816406L44.94248962402344 -22.661773681640625C39.67988586425781 -10.1026611328125 45.7791748046875 4.794921875 58.338287353515625 10.057540893554688Z"/>
</svg>