<svg xmlns="http://www.w3.org/2000/svg" viewBox="0 -1000 1000 1000">
	<path fill="#000000" d="M378 150C378 193.0679931640625 416.3375701904297 225 458 225C499.6624755859375 225 538 193.06797790527344 538 150C538 106.9320068359375 499.6624298095703 75 458 75C416.3375244140625 75 378 106.93202209472656 378 150ZM428 150C428 139.06797790527344 440.2620849609375 125 458 125C475.7379608154297 125 488 139.0679931640625 488 150C488 160.93202209472656 475.7379150390625 175 458 175C440.2620391845703 175 428 160.9320068359375 428 150ZM75 -250C75 -42.2314453125 242.232421875 125 450 125C657.7685546875 125 825 -42.232421875 825 -250C825 -457.7685546875 657.767578125 -625 450 -625C242.2314453125 -625 75 -457.767578125 75 -250ZM125 -250C125 -430.232421875 269.7685546875 -575 450 -575C630.232421875 -575 775 -430.2314453125 775 -250C775 -69.767578125 630.2314453125 75 450 75C269.767578125 75 125 -69.7685546875 125 -250Z"/>
</svg>