<svg xmlns="http://www.w3.org/2000/svg" viewBox="0 -1000 1000 1000">
	<path fill="#000000" d="M351.2783203125 -364.1962890625C289.6318359375 -195.8037109375 171.54296875 -27.3701171875 171.54296875 -27.3701171875C163.7158203125 -16.2275390625 166.4873046875 -0.3701171875 177.6298828125 7.45703125C189.2412109375 15.6142578125 204.3955078125 11.515625 212.0048828125 2.013671875C214.298828125 -1.251953125 380.7431640625 -236.1533203125 426.0302734375 -440.228515625C432.9150390625 -471.255859375 437 -501.75 437 -531C437 -651.1865234375 338.2392578125 -728 240 -728C131.197265625 -728 43 -639.8037109375 43 -531C43 -424.12890625 132.796875 -333 240 -333C280.998046875 -333 319.466796875 -343.919921875 351.2783203125 -364.1962890625ZM387 -531C387 -439.5595703125 325.232421875 -383 240 -383C161.203125 -383 93 -451.87109375 93 -531C93 -612.1962890625 158.802734375 -678 240 -678C313.7607421875 -678 387 -620.8134765625 387 -531Z"/>
</svg>