<svg xmlns="http://www.w3.org/2000/svg" viewBox="0 -1000 1000 1000">
	<path fill="#000000" d="M575 171C575 157.38287353515625 563.6171264648438 146 550 146H0C-13.61712646484375 146 -25 157.38287353515625 -25 171C-25 184.61712646484375 -13.61712646484375 196 0 196H550C563.6171264648438 196 575 184.61712646484375 575 171ZM575 -691C575 -704.6171264648438 563.6171264648438 -716 550 -716H0C-13.61712646484375 -716 -25 -704.6171264648438 -25 -691C-25 -677.3828735351562 -13.61712646484375 -666 0 -666H550C563.6171264648438 -666 575 -677.3828735351562 575 -691ZM93 -260C93 -396.72142028808594 167.77545166015625 -482 275 -482C382.2259979248047 -482 457 -396.7214813232422 457 -260C457 -123.27857971191406 382.22454833984375 -38 275 -38C167.7740020751953 -38 93 -123.27851867675781 93 -260ZM43 -260C43 -104.72148132324219 134.2259979248047 12 275 12C415.77545166015625 12 507 -104.72142028808594 507 -260C507 -415.2785186767578 415.7740020751953 -532 275 -532C134.22454833984375 -532 43 -415.27857971191406 43 -260Z"/>
</svg>