<svg xmlns="http://www.w3.org/2000/svg" viewBox="0 -1000 1000 1000">
	<path fill="#000000" d="M473 -691C473 -704.6171264648438 461.61712646484375 -716 448 -716H0C-13.61712646484375 -716 -25 -704.6171264648438 -25 -691C-25 -677.3828735351562 -13.61712646484375 -666 0 -666H448C461.61712646484375 -666 473 -677.3828735351562 473 -691ZM473 171C473 157.38287353515625 461.61712646484375 146 448 146H0C-13.61712646484375 146 -25 157.38287353515625 -25 171C-25 184.61712646484375 -13.61712646484375 196 0 196H448C461.61712646484375 196 473 184.61712646484375 473 171ZM55 -195V-13C55 0.61712646484375 66.38287353515625 12 80 12C93.61712646484375 12 105 0.61712646484375 105 -13V-170H250C333.5878601074219 -170 405 -226.57040405273438 405 -340C405 -455.6768035888672 321.80157470703125 -520 237 -520H80C66.38287353515625 -520 55 -508.61712646484375 55 -495ZM105 -470H237C296.19842529296875 -470 355 -428.3310089111328 355 -340C355 -251.42178344726562 308.4121398925781 -220 250 -220H105Z"/>
</svg>