<svg xmlns="http://www.w3.org/2000/svg" viewBox="0 -1000 1000 1000">
	<path fill="#000000" d="M51.9423828125 6.1611328125C62.37890625 14.9072265625 78.4140625 13.4951171875 87.1611328125 3.0576171875L501.1611328125 -490.9423828125C509.9072265625 -501.37890625 508.4951171875 -517.4140625 498.0576171875 -526.1611328125C487.62109375 -534.9072265625 471.5859375 -533.4951171875 462.8388671875 -523.0576171875L48.8388671875 -29.0576171875C40.0927734375 -18.62109375 41.5048828125 -2.5859375 51.9423828125 6.1611328125ZM357 -88C357 -115.607421875 379.390625 -138 407 -138C434.607421875 -138 457 -115.609375 457 -88C457 -60.392578125 434.609375 -38 407 -38C379.392578125 -38 357 -60.390625 357 -88ZM307 -88C307 -32.779296875 351.783203125 12 407 12C462.220703125 12 507 -32.783203125 507 -88C507 -143.220703125 462.216796875 -188 407 -188C351.779296875 -188 307 -143.216796875 307 -88ZM93 -432C93 -459.607421875 115.390625 -482 143 -482C170.607421875 -482 193 -459.609375 193 -432C193 -404.392578125 170.609375 -382 143 -382C115.392578125 -382 93 -404.390625 93 -432ZM43 -432C43 -376.779296875 87.783203125 -332 143 -332C198.220703125 -332 243 -376.783203125 243 -432C243 -487.220703125 198.216796875 -532 143 -532C87.779296875 -532 43 -487.216796875 43 -432Z"/>
</svg>