<svg xmlns="http://www.w3.org/2000/svg" viewBox="0 -1000 1000 1000">
	<path fill="#000000" d="M43 -345C43 -99.23245239257812 135.00416564941406 12 275 12C330.90673828125 12 379.1576690673828 -5.736053466796875 416.9524688720703 -42.69218444824219L464.32232666015625 4.67767333984375C473.9510955810547 14.306427001953125 490.0489044189453 14.306427001953125 499.67767333984375 4.67767333984375C509.3064270019531 -4.9510955810546875 509.3064270019531 -21.048904418945312 499.67767333984375 -30.67767333984375L448.50025939941406 -81.85508728027344C485.8883972167969 -140.40306091308594 507.00001525878906 -227.26390075683594 507.00001525878906 -345.00001525878906C507.00001525878906 -609.5158081054688 415.2151641845703 -728.0000152587891 274.00001525878906 -728.0000152587891C132.60076904296875 -728.0000152587891 43.00001525878906 -609.2404479980469 43.00001525878906 -345.00001525878906ZM93.00001525878906 -345.00001525878906C93.00001525878906 -602.7595825195312 173.39926147460938 -678.0000152587891 274.00001525878906 -678.0000152587891C374.7848663330078 -678.0000152587891 457.00001525878906 -602.4842224121094 457.00001525878906 -345.00001525878906C457.00001525878906 -108.76924133300781 376.9935302734375 -38.00001525878906 275.00001525878906 -38.00001525878906C172.995849609375 -38.00001525878906 93.00001525878906 -108.76756286621094 93.00001525878906 -345.00001525878906Z"/>
</svg>