<svg xmlns="http://www.w3.org/2000/svg" viewBox="0 -1000 1000 1000">
	<path fill="#000000" d="M43 -260C43 -104.72148132324219 134.2259979248047 12 275 12C334.39178466796875 12 384.96392822265625 -8.775405883789062 423.5870666503906 -44.456634521484375L462.72596740722656 2.922027587890625C471.3984680175781 13.420318603515625 487.42376708984375 14.946533203125 497.92205810546875 6.2740478515625C508.4203338623047 -2.3984527587890625 509.94654846191406 -18.423751831054688 501.27406311035156 -28.922042846679688L456.7232208251953 -82.85200500488281C489.0261993408203 -129.74717712402344 507.00001525878906 -191.07516479492188 507.00001525878906 -260.00001525878906C507.00001525878906 -415.2785339355469 415.7740173339844 -532.0000152587891 275.00001525878906 -532.0000152587891C134.2245635986328 -532.0000152587891 43.00001525878906 -415.2785949707031 43.00001525878906 -260.00001525878906ZM93.00001525878906 -260.00001525878906C93.00001525878906 -396.721435546875 167.7754669189453 -482.00001525878906 275.00001525878906 -482.00001525878906C382.22601318359375 -482.00001525878906 457.00001525878906 -396.72149658203125 457.00001525878906 -260.00001525878906C457.00001525878906 -193.73709106445312 439.4358673095703 -139.55767822265625 409.12608337402344 -101.31370544433594C409.11004638671875 -101.30050659179688 409.09400939941406 -101.28729248046875 409.0779724121094 -101.27406311035156C406.68511962890625 -99.29734802246094 404.75836181640625 -96.93864440917969 403.312255859375 -94.3504638671875C371.40077209472656 -58.07133483886719 327.01902770996094 -38.00001525878906 275.00001525878906 -38.00001525878906C167.77401733398438 -38.00001525878906 93.00001525878906 -123.27853393554688 93.00001525878906 -260.00001525878906ZM575.0000152587891 -691.0000152587891C575.0000152587891 -704.6171417236328 563.6171417236328 -716.0000152587891 550.0000152587891 -716.0000152587891H1.52587890625e-05C-13.617111206054688 -716.0000152587891 -24.999984741210938 -704.6171417236328 -24.999984741210938 -691.0000152587891C-24.999984741210938 -677.3828887939453 -13.617111206054688 -666.0000152587891 1.52587890625e-05 -666.0000152587891H550.0000152587891C563.6171417236328 -666.0000152587891 575.0000152587891 -677.3828887939453 575.0000152587891 -691.0000152587891ZM575.0000152587891 170.99998474121094C575.0000152587891 157.3828582763672 563.6171417236328 145.99998474121094 550.0000152587891 145.99998474121094H1.52587890625e-05C-13.617111206054688 145.99998474121094 -24.999984741210938 157.3828582763672 -24.999984741210938 170.99998474121094C-24.999984741210938 184.6171112060547 -13.617111206054688 195.99998474121094 1.52587890625e-05 195.99998474121094H550.0000152587891C563.6171417236328 195.99998474121094 575.0000152587891 184.6171112060547 575.0000152587891 170.99998474121094Z"/>
</svg>