<svg xmlns="http://www.w3.org/2000/svg" viewBox="0 -1000 1000 1000">
	<path fill="#000000" d="M26.907577514648438 -609.7023773193359C38.99406433105469 -602.2723541259766 53.94677734375 -607.3939819335938 60.79612731933594 -617.1105499267578C63.48039245605469 -621.3732757568359 101.28890991210938 -677.9999847412109 166.99998474121094 -677.9999847412109C250.3434600830078 -677.9999847412109 294.99998474121094 -627.0697326660156 294.99998474121094 -524.9999847412109C294.99998474121094 -423.60997009277344 163.9240264892578 -370.52903747558594 157.5922088623047 -368.17388916015625C147.13548278808594 -363.56773376464844 141.5732879638672 -353.91075134277344 141.99998474121094 -343.993408203125V-174.99998474121094C141.99998474121094 -161.3828582763672 153.3828582763672 -149.99998474121094 166.99998474121094 -149.99998474121094C180.6171112060547 -149.99998474121094 191.99998474121094 -161.3828582763672 191.99998474121094 -174.99998474121094V-328.202392578125C235.15692138671875 -347.43408203125 344.99998474121094 -407.8860168457031 344.99998474121094 -524.9999694824219C344.99998474121094 -645.0122528076172 281.65650939941406 -727.9999694824219 166.99998474121094 -727.9999694824219C69.13925170898438 -727.9999694824219 20.434219360351562 -646.9096527099609 18.290985107421875 -643.4232025146484C12.579208374023438 -632.672119140625 14.81866455078125 -617.1338348388672 26.907562255859375 -609.7023468017578ZM123.99998474121094 -28.999969482421875C123.99998474121094 -6.377899169921875 142.37791442871094 12.000030517578125 164.99998474121094 12.000030517578125C187.62205505371094 12.000030517578125 205.99998474121094 -6.377899169921875 205.99998474121094 -28.999969482421875C205.99998474121094 -51.622039794921875 187.62205505371094 -69.99996948242188 164.99998474121094 -69.99996948242188C142.37791442871094 -69.99996948242188 123.99998474121094 -51.622039794921875 123.99998474121094 -28.999969482421875Z"/>
</svg>