<svg xmlns="http://www.w3.org/2000/svg" viewBox="0 -1000 1000 1000">
	<path fill="#000000" d="M494.01268005371094 8.924774169921875C505.9547882080078 2.38165283203125 510.46791076660156 -13.070571899414062 503.92478942871094 -25.012680053710938L336.9348449707031 -329.7921447753906C429.69189453125 -351.66253662109375 507 -411.3006286621094 507 -520C507 -664.6626892089844 361.53321838378906 -716 237 -716H80C66.38287353515625 -716 55 -704.6171264648438 55 -691V-345V-13C55 0.61712646484375 66.38287353515625 12 80 12C93.61712646484375 12 105 0.61712646484375 105 -13V-320H250C261.4800109863281 -320 273.0069580078125 -320.4866485595703 284.4764862060547 -321.47900390625L460.0752258300781 -0.9873199462890625C466.61834716796875 10.954788208007812 482.07057189941406 15.467910766601562 494.01268005371094 8.924789428710938ZM105 -665.9999847412109H237C356.46678161621094 -665.9999847412109 457 -619.3451080322266 457 -519.9999847412109C457 -419.6591796875 366.3132019042969 -369.99998474121094 250 -369.99998474121094H105Z"/>
</svg>