<svg xmlns="http://www.w3.org/2000/svg" viewBox="0 -1000 1000 1000">
	<path fill="#000000" d="M445 -691C445 -704.6171264648438 433.61712646484375 -716 420 -716H0C-13.61712646484375 -716 -25 -704.6171264648438 -25 -691C-25 -677.3828735351562 -13.61712646484375 -666 0 -666H420C433.61712646484375 -666 445 -677.3828735351562 445 -691ZM445 171C445 157.38287353515625 433.61712646484375 146 420 146H0C-13.61712646484375 146 -25 157.38287353515625 -25 171C-25 184.61712646484375 -13.61712646484375 196 0 196H420C433.61712646484375 196 445 184.61712646484375 445 171ZM349.4396667480469 -2.2840728759765625C361.8126983642578 -7.9704132080078125 367.4022521972656 -23.066650390625 361.71592712402344 -35.43968200683594L269.95989990234375 -235.093994140625C271.3290100097656 -235.21348571777344 272.71617126464844 -235.4312286376953 273.6824035644531 -235.6543731689453C279.2921142578125 -236.96170043945312 363 -260.82557678222656 363 -375.0000305175781C363 -463.6439208984375 291.7088623046875 -520.0000305175781 189 -520.0000305175781H80C64.86746215820312 -520.0000305175781 55 -505.7299346923828 55 -495.0000305175781V-260.0000305175781V-25.000030517578125C55 -11.382904052734375 66.38287353515625 -3.0517578125e-05 80 -3.0517578125e-05C93.61712646484375 -3.0517578125e-05 105 -11.382904052734375 105 -25.000030517578125V-235.00003051757812H214.9756317138672L316.28407287597656 -14.56036376953125C321.9704132080078 -2.1873321533203125 337.066650390625 3.4022216796875 349.43968200683594 -2.2841033935546875ZM105.00001525878906 -285.0000305175781V-470.0000305175781H189.00001525878906C274.29115295410156 -470.0000305175781 313.00001525878906 -430.41168212890625 313.00001525878906 -375.0000305175781C313.00001525878906 -304.5098114013672 274.5008239746094 -288.75465393066406 264.26495361328125 -285.0000305175781Z"/>
</svg>