<svg xmlns="http://www.w3.org/2000/svg" viewBox="0 -1000 1000 1000">
	<path fill="#000000" d="M448.1806335449219 -627.9425354003906C458.99798583984375 -637.126953125 458.8470458984375 -652.8250427246094 451.5658874511719 -662.5818481445312C445.2523498535156 -670.0178833007812 400.53407287597656 -716 269 -716C168.35324096679688 -716 43 -672.2803802490234 43 -537C43 -262.9135284423828 457 -341.8701171875 457 -163C457 -99.10238647460938 386.29180908203125 -38 275 -38C154.4949951171875 -38 87.4031982421875 -105.92384338378906 85.34425354003906 -108.01654052734375C74.85780334472656 -117.60122680664062 60.02265930175781 -117.04176330566406 50.642181396484375 -107.99183654785156C41.2598876953125 -98.94015502929688 40.09629821777344 -84.2237548828125 49.46272277832031 -73.20755004882812C52.62275695800781 -69.93208312988281 131.7233123779297 12 275 12C400.12225341796875 12 507 -58.897613525390625 507 -163C507 -412.7720642089844 93 -326.90782165527344 93 -537C93 -629.7196197509766 175.64675903320312 -666 269 -666C378.83892822265625 -666 411.59226989746094 -632.1497955322266 411.59226989746094 -632.1497955322266C423.4393615722656 -619.8529052734375 437.3262481689453 -618.7266693115234 448.1806335449219 -627.9425354003906Z"/>
</svg>