<svg xmlns="http://www.w3.org/2000/svg" viewBox="0 -1000 1000 1000">
	<path fill="#000000" d="M362.66485595703125 -457.563232421875C371.4270324707031 -468.72535705566406 368.139892578125 -484.07615661621094 359.0546417236328 -492.1798400878906C354.0892791748047 -496.0776062011719 306.5387420654297 -532 215 -532C116.49156188964844 -532 43 -456.61265563964844 43 -378C43 -260.50144958496094 197.1934356689453 -230.6592559814453 197.1934356689453 -230.6592559814453C197.6060333251953 -230.56072998046875 198.1909942626953 -230.44046020507812 198.5000762939453 -230.3839111328125C207.24749755859375 -228.77215576171875 337 -197.4130859375 337 -130C337 -71.65879821777344 296.86585998535156 -38 214 -38C144.76058959960938 -38 83.54949951171875 -95.83329772949219 81.03298950195312 -98.31344604492188C70.27247619628906 -107.76579284667969 55.49150085449219 -106.87991333007812 46.29058837890625 -97.6458740234375C37.088714599609375 -88.41085815429688 36.21568298339844 -73.67437744140625 45.79765319824219 -62.845062255859375C47.74554443359375 -60.90415954589844 118.0380859375 12 214 12C311.13414001464844 12 387 -36.28846740722656 387 -130C387 -249.8582763671875 213.7532958984375 -278.36146545410156 208.3290557861328 -279.4107666015625C194.2569122314453 -282.98028564453125 93 -315.7273406982422 93 -378C93 -425.38734436035156 141.50843811035156 -482 215 -482C289.47972106933594 -482 325.71897888183594 -454.7169494628906 328.474853515625 -452.6479949951172C337.96669006347656 -446.11671447753906 353.9066619873047 -446.4062042236328 362.66485595703125 -457.563232421875ZM454 -691C454 -704.6171264648438 442.61712646484375 -716 429 -716H0C-13.61712646484375 -716 -25 -704.6171264648438 -25 -691C-25 -677.3828735351562 -13.61712646484375 -666 0 -666H429C442.61712646484375 -666 454 -677.3828735351562 454 -691ZM454 171C454 157.38287353515625 442.61712646484375 146 429 146H0C-13.61712646484375 146 -25 157.38287353515625 -25 171C-25 184.61712646484375 -13.61712646484375 196 0 196H429C442.61712646484375 196 454 184.61712646484375 454 171Z"/>
</svg>