<svg xmlns="http://www.w3.org/2000/svg" viewBox="0 -1000 1000 1000">
	<path fill="#000000" d="M73.861328125 97.26953125C87.0703125 102.45703125 100.830078125 94.8994140625 105.982421875 83.869140625C107.6474609375 79.6298828125 125 35.4873046875 125 -29C125 -51.6220703125 106.6220703125 -70 84 -70C61.3779296875 -70 43 -51.6220703125 43 -29C43 -10.390625 55.4365234375 5.3466796875 72.44140625 10.34375C68.2548828125 42.44921875 60.314453125 63.341796875 59.4130859375 65.6865234375C55.73828125 77.103515625 60.6552734375 92.0830078125 73.861328125 97.26953125ZM43 -491C43 -468.3779296875 61.3779296875 -450 84 -450C106.6220703125 -450 125 -468.3779296875 125 -491C125 -513.6220703125 106.6220703125 -532 84 -532C61.3779296875 -532 43 -513.6220703125 43 -491Z"/>
</svg>