<svg xmlns="http://www.w3.org/2000/svg" viewBox="0 -1000 1000 1000">
	<path fill="#000000" d="M128.72129821777344 -351.8040771484375C190.367919921875 -520.19580078125 308.4569396972656 -688.6294403076172 308.4569396972656 -688.6294403076172C316.2843780517578 -699.7720489501953 313.5131378173828 -715.6295318603516 302.37054443359375 -723.4569549560547C290.75880432128906 -731.6139373779297 275.6041564941406 -727.5160369873047 267.99462890625 -718.013427734375C265.7010192871094 -714.7483978271484 99.25660705566406 -479.8470153808594 53.97001647949219 -275.77162170410156C47.08465576171875 -244.74404907226562 42.99998474121094 -214.25045776367188 42.99998474121094 -185C42.99998474121094 -64.81385803222656 141.76075744628906 12 239.99998474121094 12C348.8027648925781 12 436.99998474121094 -76.19673156738281 436.99998474121094 -185C436.99998474121094 -291.8711700439453 347.20314025878906 -383 239.99998474121094 -383C199.001708984375 -383 160.53286743164062 -372.0802764892578 128.72128295898438 -351.8040771484375ZM92.99998474121094 -185C92.99998474121094 -276.4400939941406 154.76805114746094 -333 239.99998474121094 -333C318.7968292236328 -333 386.99998474121094 -264.1288299560547 386.99998474121094 -185C386.99998474121094 -103.80326843261719 321.19720458984375 -38 239.99998474121094 -38C166.2392120361328 -38 92.99998474121094 -95.18614196777344 92.99998474121094 -185Z"/>
</svg>