<svg xmlns="http://www.w3.org/2000/svg" viewBox="0 -1000 1000 1000">
	<path fill="#000000" d="M43 -495C43 -481.38287353515625 54.38287353515625 -470 68 -470H200.89605712890625L199.00022888183594 -13.103729248046875C198.9437255859375 0.513275146484375 210.27926635742188 11.943283081054688 223.8962860107422 11.999786376953125C237.51329040527344 12.056289672851562 248.94329833984375 0.7207489013671875 248.9998016357422 -12.896270751953125L250.89649963378906 -470H368.00001525878906C381.6171417236328 -470 393.00001525878906 -481.38287353515625 393.00001525878906 -495C393.00001525878906 -508.61712646484375 381.6171417236328 -520 368.00001525878906 -520H68.00001525878906C54.38288879394531 -520 43.00001525878906 -508.61712646484375 43.00001525878906 -495ZM461.00001525878906 -691C461.00001525878906 -704.6171264648438 449.6171417236328 -716 436.00001525878906 -716H1.52587890625e-05C-13.617111206054688 -716 -24.999984741210938 -704.6171264648438 -24.999984741210938 -691C-24.999984741210938 -677.3828735351562 -13.617111206054688 -666 1.52587890625e-05 -666H436.00001525878906C449.6171417236328 -666 461.00001525878906 -677.3828735351562 461.00001525878906 -691ZM461.00001525878906 171C461.00001525878906 157.38287353515625 449.6171417236328 146 436.00001525878906 146H1.52587890625e-05C-13.617111206054688 146 -24.999984741210938 157.38287353515625 -24.999984741210938 171C-24.999984741210938 184.61712646484375 -13.617111206054688 196 1.52587890625e-05 196H436.00001525878906C449.6171417236328 196 461.00001525878906 184.61712646484375 461.00001525878906 171Z"/>
</svg>