<svg xmlns="http://www.w3.org/2000/svg" viewBox="0 -1000 1000 1000">
	<path fill="#000000" d="M86 -510C99.61712646484375 -510 111 -521.3828735351562 111 -535C111 -612.6085815429688 179.17970275878906 -678 267 -678C354.81866455078125 -678 423 -612.6048583984375 423 -535C423 -433.35137939453125 269.80604553222656 -392.3097229003906 260.4475402832031 -390.1441955566406C245.81602478027344 -385.57887268066406 239.07879638671875 -371.5526580810547 243.1347198486328 -358.55360412597656C246.2437286376953 -348.5894317626953 255.68711853027344 -341.6655578613281 265.42210388183594 -341.0498504638672C276.06163024902344 -340.4105987548828 457 -324.0430450439453 457 -198C457 -107.24421691894531 385.5646209716797 -38 278 -38C158.21575927734375 -38 96.51544189453125 -94.71794128417969 92.98564147949219 -198.8469696044922C92.52432250976562 -212.45628356933594 80.76234436035156 -223.4469757080078 67.15303039550781 -222.9856414794922C53.54371643066406 -222.52432250976562 42.55302429199219 -210.76234436035156 43.01435852050781 -197.1530303955078C47.48455810546875 -65.28205871582031 137.78424072265625 12 278 12C408.4353790283203 12 507 -76.75578308105469 507 -198C507 -304.9548034667969 420.6617889404297 -353.15167236328125 356.80810546875 -373.5950012207031C406.97198486328125 -399.813232421875 473 -450.1994934082031 473 -535C473 -643.3951416015625 379.18133544921875 -728 267 -728C154.82029724121094 -728 61 -643.3914184570312 61 -535C61 -521.3828735351562 72.38287353515625 -510 86 -510Z"/>
</svg>