<svg xmlns="http://www.w3.org/2000/svg" viewBox="0 -1000 1000 1000">
	<path fill="#000000" d="M80 -532C66.3828125 -532 55 -520.6171875 55 -507V-25C55 -9.8671875 69.2705078125 0 80 0H470C485.1328125 0 495 -14.2705078125 495 -25V-507C495 -520.6171875 483.6171875 -532 470 -532C456.3828125 -532 445 -520.6171875 445 -507V-50H105V-507C105 -520.6171875 93.6171875 -532 80 -532ZM234 104C234 126.6220703125 252.3779296875 145 275 145C297.6220703125 145 316 126.6220703125 316 104C316 81.3779296875 297.6220703125 63 275 63C252.3779296875 63 234 81.3779296875 234 104Z"/>
</svg>