<svg xmlns="http://www.w3.org/2000/svg" viewBox="0 -1000 1000 1000">
	<path fill="#000000" d="M43 -25C43 -11.38287353515625 54.38287353515625 0 68 0H151C162.8529815673828 0 172.73553466796875 -9.146469116210938 175.2116241455078 -18.771286010742188L275 -406.65834045410156L374.7883758544922 -18.771286010742188C377.7415466308594 -7.2920989990234375 389.0618133544922 -1.52587890625e-05 399.00001525878906 -1.52587890625e-05H482.00001525878906C495.6171417236328 -1.52587890625e-05 507.00001525878906 -11.382888793945312 507.00001525878906 -25.000015258789062C507.00001525878906 -38.61714172363281 495.6171417236328 -50.00001525878906 482.00001525878906 -50.00001525878906H418.3825225830078L299.21165466308594 -513.2287292480469C297.4273681640625 -520.1643676757812 291.304443359375 -527.8381042480469 283.1091003417969 -530.6483154296875C269.5156707763672 -535.3095550537109 254.36875915527344 -527.1459503173828 250.78839111328125 -513.2287139892578L131.61752319335938 -50H68.00003051757812C54.382904052734375 -50 43.000030517578125 -38.61712646484375 43.000030517578125 -25Z"/>
</svg>