<svg xmlns="http://www.w3.org/2000/svg" viewBox="0 -1000 1000 1000">
	<path fill="#000000" d="M55.6728515625 8.7490234375C67.5185546875 15.4638671875 83.03515625 11.173828125 89.7490234375 -0.6728515625L208 -209.30078125L326.2509765625 -0.6728515625C332.96484375 11.173828125 348.4814453125 15.4638671875 360.3271484375 8.7490234375C372.173828125 2.03515625 376.4638671875 -13.4814453125 369.7490234375 -25.3271484375L236.736328125 -260L369.7490234375 -494.6728515625C376.4638671875 -506.5185546875 372.173828125 -522.03515625 360.3271484375 -528.7490234375C348.4814453125 -535.4638671875 332.96484375 -531.173828125 326.2509765625 -519.3271484375L208 -310.69921875L89.7490234375 -519.3271484375C83.03515625 -531.173828125 67.5185546875 -535.4638671875 55.6728515625 -528.7490234375C43.826171875 -522.03515625 39.5361328125 -506.5185546875 46.2509765625 -494.6728515625L179.263671875 -260L46.2509765625 -25.3271484375C39.5361328125 -13.4814453125 43.826171875 2.03515625 55.6728515625 8.7490234375Z"/>
</svg>