<svg xmlns="http://www.w3.org/2000/svg" viewBox="0 -1000 1000 1000">
	<path fill="#000000" d="M48.36918640136719 2.4800262451171875C56.800933837890625 13.172653198242188 72.78742980957031 15.062576293945312 83.48004150390625 6.630828857421875L445.00001525878906 -278.4483642578125V-13C445.00001525878906 0.61712646484375 456.3828887939453 12 470.00001525878906 12C483.6171417236328 12 495.00001525878906 0.61712646484375 495.00001525878906 -13V-330C495.00001525878906 -333.3570251464844 493.5782775878906 -339.7126922607422 490.7848358154297 -343.8921203613281C482.79942321777344 -355.83958435058594 465.8041076660156 -358.5289764404297 454.5199890136719 -349.6308135986328L52.519989013671875 -32.63081359863281C41.827362060546875 -24.199066162109375 39.93743896484375 -8.212570190429688 48.36918640136719 2.48004150390625ZM80 -531.9999847412109C66.38287353515625 -531.9999847412109 55 -520.6171112060547 55 -506.99998474121094V-189.99998474121094C55 -175.62957763671875 67.63531494140625 -163.9495849609375 81.96142578125 -165.07704162597656C86.94146728515625 -165.46897888183594 92.88557434082031 -168.32330322265625 95.48002624511719 -170.36917114257812L497.4800262451172 -487.3691711425781C508.1726531982422 -495.80091857910156 510.0625762939453 -511.78741455078125 501.6308288574219 -522.4800262451172C493.1990966796875 -533.1726379394531 477.2126007080078 -535.0625610351562 466.5199890136719 -526.6308135986328L105.00001525878906 -241.55162048339844V-506.99998474121094C105.00001525878906 -520.6171112060547 93.61714172363281 -531.9999847412109 80.00001525878906 -531.9999847412109Z"/>
</svg>