<svg xmlns="http://www.w3.org/2000/svg" viewBox="0 -1000 1000 1000">
	<path fill="#000000" d="M364.6995086669922 -366.83612060546875C342.27154541015625 -436.0231018066406 297.43092346191406 -532 205.00001525878906 -532C95.02223205566406 -532 43.00001525878906 -392.9151611328125 43.00001525878906 -260C43.00001525878906 -118.1524658203125 96.51264953613281 12 211.00001525878906 12C299.5292053222656 12 343.20628356933594 -78.64958190917969 365.08868408203125 -143.67434692382812C387.2769317626953 -78.45103454589844 431.65614318847656 12 521.0000152587891 12C655.2845916748047 12 690.0000152587891 -120.34019470214844 690.0000152587891 -258.900390625C690.0000152587891 -393.5170440673828 641.5792083740234 -532 517.0000152587891 -532C428.2989501953125 -532 386.0787353515625 -435.2824401855469 364.69952392578125 -366.83612060546875ZM390.222412109375 -252.01947021484375C390.7246398925781 -255.71556091308594 391.7015838623047 -262.4687957763672 393.2077331542969 -271.185791015625C405.27320861816406 -341.01597595214844 446.4131622314453 -482 517 -482C592.4208068847656 -482 640 -392.2837371826172 640 -258.900390625C640 -118.15980529785156 606.7154235839844 -38 521 -38C442.39747619628906 -38 402.32044982910156 -181.68731689453125 392.0514221191406 -240.6691131591797C391.19688415527344 -245.57728576660156 390.58807373046875 -249.5223388671875 390.22239685058594 -252.01947021484375ZM339.80267333984375 -252.18719482421875C339.31451416015625 -248.82872009277344 338.3683776855469 -242.71807861328125 336.89723205566406 -234.75794982910156C324.9647979736328 -170.19338989257812 284.6122589111328 -38 211 -38C145.48736572265625 -38 93 -120.4119873046875 93 -260C93 -392.3250732421875 146.977783203125 -482 205 -482C286.363037109375 -482 327.7245330810547 -327.5032501220703 337.97569274902344 -264.484375C338.8713684082031 -258.9781951904297 339.4689178466797 -254.74664306640625 339.80267333984375 -252.18719482421875Z"/>
</svg>