<svg xmlns="http://www.w3.org/2000/svg" viewBox="0 -1000 1000 1000">
	<path fill="#000000" d="M107.32232666015625 -92.32232666015625C116.95109558105469 -82.69357299804688 133.0489044189453 -82.69357299804688 142.67767333984375 -92.32232666015625L275 -224.6446533203125L407.32232666015625 -92.32232666015625C416.9510955810547 -82.69357299804688 433.0489044189453 -82.69357299804688 442.67767333984375 -92.32232666015625C452.3064270019531 -101.95109558105469 452.3064270019531 -118.04890441894531 442.67767333984375 -127.67767333984375L292.67767333984375 -277.67767333984375C285.0904846191406 -285.2648620605469 268.02264404296875 -288.37799072265625 257.32232666015625 -277.67767333984375L107.32232666015625 -127.67767333984375C97.69357299804688 -118.04890441894531 97.69357299804688 -101.95109558105469 107.32232666015625 -92.32232666015625ZM344 -427C344 -457.1558532714844 368.8443145751953 -482 399 -482C429.1558532714844 -482 454 -457.1556854248047 454 -427C454 -396.8441467285156 429.1556854248047 -372 399 -372C368.8441467285156 -372 344 -396.8443145751953 344 -427ZM294 -427C294 -369.1556854248047 341.1558532714844 -322 399 -322C456.8443145751953 -322 504 -369.1558532714844 504 -427C504 -484.8443145751953 456.8441467285156 -532 399 -532C341.1556854248047 -532 294 -484.8441467285156 294 -427ZM93 -427C93 -457.1558532714844 117.84431457519531 -482 148 -482C178.15585327148438 -482 203 -457.1556854248047 203 -427C203 -396.8441467285156 178.1556854248047 -372 148 -372C117.84414672851562 -372 93 -396.8443145751953 93 -427ZM43 -427C43 -369.1556854248047 90.15585327148438 -322 148 -322C205.8443145751953 -322 253 -369.1558532714844 253 -427C253 -484.8443145751953 205.84414672851562 -532 148 -532C90.15568542480469 -532 43 -484.8441467285156 43 -427Z"/>
</svg>