<svg xmlns="http://www.w3.org/2000/svg" viewBox="0 -1000 1000 1000">
	<path fill="#000000" d="M116 -649C116 -626.3779296875 134.3779296875 -608 157 -608C179.6220703125 -608 198 -626.3779296875 198 -649C198 -671.6220703125 179.6220703125 -690 157 -690C134.3779296875 -690 116 -671.6220703125 116 -649ZM358 -649C358 -626.3779296875 376.3779296875 -608 399 -608C421.6220703125 -608 440 -626.3779296875 440 -649C440 -671.6220703125 421.6220703125 -690 399 -690C376.3779296875 -690 358 -671.6220703125 358 -649ZM43 -260C43 -104.7216796875 134.2255859375 12 275 12C415.775390625 12 507 -104.7216796875 507 -260C507 -415.2783203125 415.7744140625 -532 275 -532C134.224609375 -532 43 -415.2783203125 43 -260ZM93.8642578125 -285C102.4638671875 -407.0380859375 174.470703125 -482 275 -482C375.5302734375 -482 447.5361328125 -407.0380859375 456.1357421875 -285ZM456.1357421875 -235C447.5361328125 -112.9619140625 375.529296875 -38 275 -38C174.4697265625 -38 102.4638671875 -112.9619140625 93.8642578125 -235Z"/>
</svg>