<svg xmlns="http://www.w3.org/2000/svg" viewBox="0 -1000 1000 1000">
	<path fill="#000000" d="M93 -109C93 -148.19290161132812 124.80714416503906 -180 164 -180C203.19290161132812 -180 235 -148.19285583496094 235 -109C235 -69.80709838867188 203.19285583496094 -38 164 -38C124.80709838867188 -38 93 -69.80714416503906 93 -109ZM183.22662353515625 -228.4796600341797L113.26901245117188 -470H260C273.61712646484375 -470 285 -481.38287353515625 285 -495C285 -508.61712646484375 273.61712646484375 -520 260 -520H80C64.87809753417969 -520 51.21107482910156 -504.5330352783203 55.987060546875 -488.0445251464844L131.97279357910156 -225.7128448486328C80.69895935058594 -211.66629028320312 43.00001525878906 -164.7206268310547 43.00001525878906 -108.99998474121094C43.00001525878906 -42.192840576171875 97.19291687011719 12.000015258789062 164.00001525878906 12.000015258789062C230.80715942382812 12.000015258789062 285.00001525878906 -42.19288635253906 285.00001525878906 -108.99998474121094C285.00001525878906 -169.2642364501953 240.90228271484375 -219.26402282714844 183.2266387939453 -228.47964477539062Z"/>
</svg>