<svg xmlns="http://www.w3.org/2000/svg" viewBox="0 -1000 1000 1000">
	<path fill="#000000" d="M193.27587890625 -131.4176483154297C197.98126220703125 -127.18281555175781 203.97341918945312 -125.09956359863281 209.95425415039062 -125.09956359863281C216.8385467529297 -125.09956359863281 223.7078094482422 -127.8597412109375 228.5823516845703 -133.27589416503906L300 -212.6288299560547L371.4176483154297 -133.27589416503906C376.2922058105469 -127.8597412109375 383.1614685058594 -125.09956359863281 390.04576110839844 -125.09956359863281C396.02659606933594 -125.09956359863281 402.0187530517578 -127.18281555175781 406.72413635253906 -131.41766357421875C412.1402893066406 -136.29220581054688 414.9004669189453 -143.16146850585938 414.9004669189453 -150.04576110839844C414.9004669189453 -156.02659606933594 412.8172149658203 -162.0187530517578 408.5823669433594 -166.72413635253906L333.6340789794922 -250.00001525878906L408.5823669433594 -333.27589416503906C412.81719970703125 -337.9812774658203 414.90045166015625 -343.9734344482422 414.90045166015625 -349.9542694091797C414.90045166015625 -356.83856201171875 412.14027404785156 -363.70782470703125 406.72412109375 -368.5823669433594C402.01873779296875 -372.8172149658203 396.0265808105469 -374.9004669189453 390.0457458496094 -374.9004669189453C383.1614532470703 -374.9004669189453 376.2921905517578 -372.1402893066406 371.4176483154297 -366.72413635253906L300 -287.37120056152344L228.5823516845703 -366.72413635253906C223.70779418945312 -372.1402893066406 216.83853149414062 -374.9004669189453 209.95423889160156 -374.9004669189453C203.97340393066406 -374.9004669189453 197.9812469482422 -372.8172149658203 193.27586364746094 -368.5823669433594C187.85971069335938 -363.70782470703125 185.0995330810547 -356.83856201171875 185.0995330810547 -349.9542694091797C185.0995330810547 -343.9734344482422 187.1827850341797 -337.9812774658203 191.41763305664062 -333.27589416503906L266.3659210205078 -250.00001525878906L191.41763305664062 -166.72413635253906C187.18280029296875 -162.0187530517578 185.09954833984375 -156.02659606933594 185.09954833984375 -150.04576110839844C185.09954833984375 -143.16146850585938 187.85972595214844 -136.29220581054688 193.27587890625 -131.41766357421875Z"/>
</svg>