<svg xmlns="http://www.w3.org/2000/svg" viewBox="0 -1000 1000 1000">
	<path fill="#000000" d="M296.8407287597656 -321.2018585205078C320.302001953125 -315.4117126464844 345.96795654296875 -312.00001525878906 373 -312.00001525878906C445.37957763671875 -312.00001525878906 502 -344.1638641357422 502 -421.00001525878906C502 -489.0457458496094 447.4536437988281 -532.0000152587891 375 -532.0000152587891C292.5688018798828 -532.0000152587891 263.5071716308594 -460.96197509765625 253.11216735839844 -390.83343505859375C167.48846435546875 -435.13609313964844 126.50192260742188 -515.8789672851562 125.07376098632812 -518.7586669921875C119.10414123535156 -529.2281951904297 104.74815368652344 -535.6928405761719 92.00489807128906 -529.4523620605469C79.26054382324219 -523.2113494873047 75.5450439453125 -507.9584503173828 80.20213317871094 -496.7104797363281C82.20320129394531 -492.62425231933594 132.44937133789062 -388.9912414550781 247.76409912109375 -337.99444580078125C244.39549255371094 -287.1933135986328 244.38156127929688 -232.442626953125 240.73365783691406 -184.0690155029297C218.9292755126953 -202.45623779296875 190.89053344726562 -216.00001525878906 157 -216.00001525878906C95.79891967773438 -216.00001525878906 38 -175.222412109375 38 -105.00001525878906C38 -30.348602294921875 84.92991638183594 11.999984741210938 157 11.999984741210938C214.84490966796875 11.999984741210938 250.90188598632812 -22.991363525390625 269.0111846923828 -68.26612854003906C294.5450744628906 -31.531646728515625 327.9053039550781 11.999984741210938 385 11.999984741210938C497.08428955078125 11.999984741210938 502.9300994873047 -80.92617797851562 503.0101623535156 -85.33097839355469C502.3646240234375 -99.77667236328125 491.4890594482422 -109.75895690917969 478.454345703125 -109.99588012695312C465.43511962890625 -110.23252868652344 454.13104248046875 -99.94502258300781 453.087646484375 -87.0927734375C452.80116271972656 -81.85232543945312 453.555908203125 -38.00001525878906 385 -38.00001525878906C349.82508850097656 -38.00001525878906 326.6062927246094 -72.96420288085938 291.75486755371094 -123.62442016601562C289.81658935546875 -126.44189453125 287.5267639160156 -129.73101806640625 285.36383056640625 -132.79397583007812C285.9743347167969 -136.80703735351562 286.54335021972656 -140.89097595214844 287.06068420410156 -144.94021606445312C294.24720764160156 -201.19007873535156 293.7379608154297 -264.3551330566406 296.8407287597656 -321.2018737792969ZM232.33468627929688 -120.35630798339844C231.6646270751953 -117.2177734375 230.93067932128906 -114.00848388671875 230.2218475341797 -111.155517578125C217.7845001220703 -61.09678649902344 198.62722778320312 -38.00001525878906 157 -38.00001525878906C107.07008361816406 -38.00001525878906 88 -55.63580322265625 88 -105.00001525878906C88 -142.85183715820312 116.12295532226562 -166.00001525878906 157 -166.00001525878906C185.646728515625 -166.00001525878906 205.72738647460938 -151.99166870117188 226.5443572998047 -127.44790649414062C228.43450927734375 -125.21937561035156 230.41250610351562 -122.79074096679688 232.33468627929688 -120.35630798339844ZM301.02081298828125 -371.82676696777344C310.21217346191406 -447.01853942871094 329.3079833984375 -482.00001525878906 375 -482.00001525878906C428.5463562011719 -482.00001525878906 452 -456.97381591796875 452 -421.00001525878906C452 -377.83616638183594 432.68096923828125 -362.00001525878906 373 -362.00001525878906C346.67457580566406 -362.00001525878906 322.75083923339844 -365.66807556152344 301.02081298828125 -371.82676696777344Z"/>
</svg>