<svg xmlns="http://www.w3.org/2000/svg" viewBox="0 -1000 1000 1000">
	<path fill="#000000" d="M80 -533C66.3828125 -533 55 -521.6171875 55 -508V-25C55 -9.8671875 69.2705078125 0 80 0H470C485.1328125 0 495 -14.2705078125 495 -25V-508C495 -521.6171875 483.6171875 -533 470 -533C456.3828125 -533 445 -521.6171875 445 -508V-50H105V-508C105 -521.6171875 93.6171875 -533 80 -533ZM234 -260C234 -237.3779296875 252.3779296875 -219 275 -219C297.6220703125 -219 316 -237.3779296875 316 -260C316 -282.6220703125 297.6220703125 -301 275 -301C252.3779296875 -301 234 -282.6220703125 234 -260Z"/>
</svg>