<svg xmlns="http://www.w3.org/2000/svg" viewBox="0 -1000 1000 1000">
	<path fill="#000000" d="M400.06341552734375 146H105.93658447265625L253 -196.61802673339844ZM460.9731140136719 161.13914489746094L278 -265.1387481689453V-284.5193328857422C326.85523986816406 -294.50437927246094 365.4956512451172 -333.14495849609375 375.4806671142578 -382.00001525878906H438C451.61712646484375 -382.00001525878906 463 -393.3828887939453 463 -407.00001525878906C463 -420.6171417236328 451.61712646484375 -432.00001525878906 438 -432.00001525878906H375.4806823730469C365.4956359863281 -480.8552551269531 326.8550567626953 -519.4956665039062 278 -529.4806823730469V-607.0000152587891C278 -620.6171417236328 266.61712646484375 -632.0000152587891 253 -632.0000152587891C239.38287353515625 -632.0000152587891 228 -620.6171417236328 228 -607.0000152587891V-529.4806976318359C179.14476013183594 -519.4956512451172 140.5043487548828 -480.8550720214844 130.5193328857422 -432.00001525878906H68C54.38287353515625 -432.00001525878906 43 -420.6171417236328 43 -407.00001525878906C43 -393.3828887939453 54.38287353515625 -382.00001525878906 68 -382.00001525878906H130.51931762695312C140.50436401367188 -333.144775390625 179.1449432373047 -294.5043640136719 228 -284.51934814453125V-265.1387481689453L45.026885986328125 161.13914489746094C39.35871887207031 174.34445190429688 46.362640380859375 190.061279296875 59.971954345703125 194.67593383789062C62.4390869140625 195.51248168945312 67.08833312988281 195.99998474121094 68 195.99998474121094H438C452.3704071044922 195.99998474121094 464.05039978027344 183.3646697998047 462.9229431152344 169.03855895996094C462.7185516357422 166.4414825439453 461.33270263671875 161.97689819335938 460.9731140136719 161.13914489746094ZM253 -482.00001525878906C294.1558532714844 -482.00001525878906 328 -448.15545654296875 328 -407.00001525878906C328 -365.8441619873047 294.1554412841797 -332.00001525878906 253 -332.00001525878906C211.84414672851562 -332.00001525878906 178 -365.8445739746094 178 -407.00001525878906C178 -448.15586853027344 211.8445587158203 -482.00001525878906 253 -482.00001525878906Z"/>
</svg>