<svg xmlns="http://www.w3.org/2000/svg" viewBox="0 -1000 1000 1000">
	<path fill="#000000" d="M491.5217742919922 206.67800903320312C503.8741455078125 200.94696044921875 509.4090576171875 185.83059692382812 503.67799377441406 173.4782257080078L408.47059631347656 -31.726058959960938C470.6649475097656 -79.36103820800781 506.99998474121094 -162.00189208984375 506.99998474121094 -259.99998474121094C506.99998474121094 -415.27830505371094 415.77439880371094 -531.9999847412109 274.99998474121094 -531.9999847412109C134.22459411621094 -531.9999847412109 42.99998474121094 -415.27830505371094 42.99998474121094 -259.99998474121094C42.99998474121094 -162.00205993652344 79.33528137207031 -79.36131286621094 141.52947998046875 -31.726303100585938L46.32197570800781 173.4782257080078C40.590911865234375 185.8306121826172 46.125823974609375 200.9469757080078 58.47821044921875 206.6780242919922C70.83058166503906 212.40908813476562 85.94694519042969 206.87417602539062 91.67799377441406 194.52178955078125L184.8023223876953 -6.192779541015625C211.79531860351562 5.601318359375 242.03952026367188 12 274.99998474121094 12C307.9605407714844 12 338.2047576904297 5.6013641357421875 365.1977233886719 -6.1926422119140625L458.3219757080078 194.5217742919922C464.0530242919922 206.8741455078125 479.1693878173828 212.4090576171875 491.5217590332031 206.67799377441406ZM92.99998474121094 -260.00001525878906C92.99998474121094 -396.72169494628906 167.77537536621094 -482.00001525878906 274.99998474121094 -482.00001525878906C382.22557067871094 -482.00001525878906 456.99998474121094 -396.72169494628906 456.99998474121094 -260.00001525878906C456.99998474121094 -123.27833557128906 382.22459411621094 -38.00001525878906 274.99998474121094 -38.00001525878906C167.77439880371094 -38.00001525878906 92.99998474121094 -123.27833557128906 92.99998474121094 -260.00001525878906Z"/>
</svg>