<svg xmlns="http://www.w3.org/2000/svg" viewBox="0 -1000 1000 1000">
	<path fill="#000000" d="M483.4709930419922 108.36207580566406C472.3370361328125 99.59063720703125 456.4669647216797 103.40020751953125 449.4516906738281 111.23770141601562C446.36439514160156 114.86306762695312 410.3484191894531 158.00001525878906 304.99998474121094 158.00001525878906C187.71902465820312 158.00001525878906 142.99998474121094 113.12197875976562 142.99998474121094 76.00001525878906C142.99998474121094 25.879425048828125 175.75941467285156 3.930694580078125 190.97079467773438 -3.614471435546875C216.37709045410156 6.5309295654296875 244.52772521972656 12.000015258789062 274.99998474121094 12.000015258789062C415.7754364013672 12.000015258789062 506.99998474121094 -104.72140502929688 506.99998474121094 -259.99998474121094C506.99998474121094 -415.27850341796875 415.77398681640625 -531.9999847412109 274.99998474121094 -531.9999847412109C134.2245330810547 -531.9999847412109 42.99998474121094 -415.278564453125 42.99998474121094 -259.99998474121094C42.99998474121094 -161.61123657226562 79.62574768066406 -78.7025146484375 142.27476501464844 -31.158187866210938C118.58146667480469 -11.86395263671875 92.99998474121094 21.5665283203125 92.99998474121094 76.00001525878906C92.99998474121094 158.9913330078125 182.28094482421875 208.00001525878906 304.99998474121094 208.00001525878906C432.8904266357422 208.00001525878906 483.10430908203125 149.2257080078125 488.12403869628906 142.85397338867188C495.0425567626953 132.8367919921875 494.61781311035156 117.14370727539062 483.4709777832031 108.36209106445312ZM92.99998474121094 -259.99998474121094C92.99998474121094 -396.7214050292969 167.7754364013672 -481.99998474121094 274.99998474121094 -481.99998474121094C382.2259826660156 -481.99998474121094 456.99998474121094 -396.7214660644531 456.99998474121094 -259.99998474121094C456.99998474121094 -123.278564453125 382.2245330810547 -37.99998474121094 274.99998474121094 -37.99998474121094C167.77398681640625 -37.99998474121094 92.99998474121094 -123.27850341796875 92.99998474121094 -259.99998474121094Z"/>
</svg>