<svg xmlns="http://www.w3.org/2000/svg" viewBox="0 -1000 1000 1000">
	<path fill="#000000" d="M383.082763671875 -270.42152404785156C443.5157775878906 -300.98851013183594 507 -337.19976806640625 507 -394.99998474121094C507 -503.57557678222656 425.6537322998047 -531.9999847412109 384 -531.9999847412109C333.0127410888672 -531.9999847412109 278 -483.67523193359375 278 -373.99998474121094C278 -344.57476806640625 290.4311828613281 -315.9855041503906 306.6587371826172 -289.5751953125C275.380615234375 -275.5018615722656 242.07130432128906 -261.3342590332031 210.4927520751953 -247.1588897705078C149.8413848876953 -301.86692810058594 94 -358.5831298828125 94 -391.99998474121094C94 -458.9416961669922 153.99444580078125 -481.5654754638672 159.8519744873047 -483.61314392089844C170.7399139404297 -488.01026916503906 179.1989288330078 -501.4261169433594 174.7230682373047 -514.8876953125C170.24586486816406 -528.3533325195312 155.62841796875 -534.0789947509766 143.857666015625 -530.9709014892578C140.37937927246094 -529.8143920898438 44 -497.9890594482422 44 -391.99998474121094C44 -328.0639953613281 108.94459533691406 -271.71644592285156 161.3818359375 -224.14178466796875C104.37959289550781 -195.8123779296875 43 -163.1070556640625 43 -108.99998474121094C43 -29.762786865234375 109.05012512207031 12.000015258789062 164 12.000015258789062C220.32505798339844 12.000015258789062 305 -45.68739318847656 305 -123.99998474121094C305 -157.78204345703125 277.1874237060547 -184.28720092773438 250.4794921875 -210.2183837890625C278.559814453125 -222.5926971435547 308.3765563964844 -235.3949737548828 336.4796600341797 -248.1913299560547C392.015625 -180.44837951660156 464.50804138183594 -126.12435913085938 466.5804443359375 -124.56242370605469C478.65150451660156 -116.60165405273438 493.1180877685547 -119.54194641113281 500.9646911621094 -129.95303344726562C509.1605529785156 -140.82749938964844 506.9214324951172 -156.76882934570312 496.0469512939453 -164.9646759033203C496.0469512939453 -164.9646759033203 432.93336486816406 -212.61216735839844 383.082763671875 -270.4215087890625ZM352.3026428222656 -310.9439392089844C336.6151580810547 -335.3124084472656 328 -357.91929626464844 328 -373.9999694824219C328 -468.32472229003906 368.9872589111328 -481.9999694824219 384 -481.9999694824219C408.3462677001953 -481.9999694824219 457 -470.42437744140625 457 -394.9999694824219C457 -377.528076171875 421.96400451660156 -345.3285217285156 352.3026428222656 -310.9439239501953ZM201.30213928222656 -187.9082489013672C237.31597900390625 -154.517822265625 254.99998474121094 -128.01646423339844 254.99998474121094 -123.99998474121094C254.99998474121094 -82.31257629394531 195.6749267578125 -37.99998474121094 163.99998474121094 -37.99998474121094C130.94985961914062 -37.99998474121094 92.99998474121094 -62.2371826171875 92.99998474121094 -108.99998474121094C92.99998474121094 -122.15864562988281 128.5028076171875 -153.4507598876953 201.3021240234375 -187.90826416015625Z"/>
</svg>