<svg xmlns="http://www.w3.org/2000/svg" viewBox="0 -1000 1000 1000">
	<path fill="#000000" d="M105 -666H250V-370H105ZM55 -691V-345C55 -329.8674621582031 69.27009582519531 -320 80 -320H250V-198.8251495361328C124.94679260253906 -186.8025360107422 55 -83.50376892089844 55 65.00001525878906V119.21699523925781C30.082473754882812 98.72607421875 -0.9768829345703125 72.80992126464844 -0.9768829345703125 72.80992126464844C-11.429443359375 64.08236694335938 -27.462539672851562 65.52433776855469 -36.190093994140625 75.97689819335938C-44.91764831542969 86.42945861816406 -43.475677490234375 102.46255493164062 -33.02311706542969 111.19010925292969C-31.31036376953125 112.62020874023438 50.07456970214844 190.531982421875 74.99909973144531 195.54258728027344C76.95256042480469 195.93528747558594 105 194.89071655273438 105 171.00001525878906V65.00001525878906C105 -76.93388366699219 167.694580078125 -149.99998474121094 275 -149.99998474121094C382.3019104003906 -149.99998474121094 445 -76.90452575683594 445 65.00001525878906V171.00001525878906C445 184.6171417236328 456.38287353515625 196.00001525878906 470 196.00001525878906C483.61712646484375 196.00001525878906 495 184.6171417236328 495 171.00001525878906V65.00001525878906C495 -83.47470092773438 425.05609130859375 -186.7992706298828 300 -198.8248748779297V-319.99998474121094H470C485.1325378417969 -319.99998474121094 495 -334.27008056640625 495 -344.99998474121094V-690.9999847412109C495 -706.1325225830078 480.7299041748047 -715.9999847412109 470 -715.9999847412109H275H80C64.86746215820312 -715.9999847412109 55 -701.7298889160156 55 -690.9999847412109ZM300 -369.99998474121094V-665.9999847412109H445V-369.99998474121094Z"/>
</svg>