<svg xmlns="http://www.w3.org/2000/svg" viewBox="0 -1000 1000 1000">
	<path fill="#000000" d="M122.36976623535156 -191.35012817382812C175.9217987060547 -84.02589416503906 260.5924072265625 12 379.99998474121094 12C520.7739868164062 12 611.9999847412109 -104.72148132324219 611.9999847412109 -260C611.9999847412109 -415.27857971191406 520.7754364013672 -532 379.99998474121094 -532C260.60398864746094 -532 175.91604614257812 -435.9625549316406 122.3697509765625 -328.6498718261719C102.82197570800781 -394.7784729003906 92.99998474121094 -460.02088928222656 92.99998474121094 -507C92.99998474121094 -520.6171264648438 81.61711120605469 -532 67.99998474121094 -532C54.38285827636719 -532 42.99998474121094 -520.6171264648438 42.99998474121094 -507C42.99998474121094 -444.1752624511719 57.4766845703125 -360.5144500732422 86.15769958496094 -278.0064392089844C88.15093994140625 -272.2724151611328 90.42054748535156 -265.9911651611328 92.65716552734375 -260C90.42054748535156 -254.0088348388672 88.15093994140625 -247.7275848388672 86.15769958496094 -241.99356079101562C57.47676086425781 -159.4857635498047 42.99998474121094 -75.82441711425781 42.99998474121094 -13C42.99998474121094 0.61712646484375 54.38285827636719 12 67.99998474121094 12C81.61711120605469 12 92.99998474121094 0.61712646484375 92.99998474121094 -13C92.99998474121094 -59.97953796386719 102.82188415527344 -125.22120666503906 122.3697509765625 -191.35012817382812ZM146.30995178222656 -260C148.37973022460938 -265.10923767089844 150.5490264892578 -270.29974365234375 152.68682861328125 -275.24217224121094C203.26454162597656 -392.17344665527344 281.4264831542969 -482 379.99998474121094 -482C487.2245330810547 -482 561.9999847412109 -396.72142028808594 561.9999847412109 -260C561.9999847412109 -123.27851867675781 487.2259826660156 -38 379.99998474121094 -38C281.1839904785156 -38 202.8616180419922 -128.3091583251953 152.31015014648438 -245.63035583496094C150.3042449951172 -250.28570556640625 148.2605438232422 -255.18499755859375 146.30995178222656 -260Z"/>
</svg>