<svg xmlns="http://www.w3.org/2000/svg" viewBox="0 -1000 1000 1000">
	<path fill="#000000" d="M195 -370C195 -312.1556854248047 242.15585327148438 -265 300 -265C357.8443145751953 -265 405 -312.1558532714844 405 -370C405 -427.8443145751953 357.8441467285156 -475 300 -475C242.1556854248047 -475 195 -427.8441467285156 195 -370ZM245 -370C245 -400.1558532714844 269.8443145751953 -425 300 -425C330.1558532714844 -425 355 -400.1556854248047 355 -370C355 -339.8441467285156 330.1556854248047 -315 300 -315C269.8441467285156 -315 245 -339.8443145751953 245 -370ZM55 -130C55 -72.15568542480469 102.15585327148438 -25 160 -25C217.8443145751953 -25 265 -72.15585327148438 265 -130C265 -187.8443145751953 217.84414672851562 -235 160 -235C102.15568542480469 -235 55 -187.84414672851562 55 -130ZM105 -130C105 -160.15585327148438 129.8443145751953 -185 160 -185C190.15585327148438 -185 215 -160.1556854248047 215 -130C215 -99.84414672851562 190.1556854248047 -75 160 -75C129.84414672851562 -75 105 -99.84431457519531 105 -130ZM335 -130C335 -72.15568542480469 382.1558532714844 -25 440 -25C497.8443145751953 -25 545 -72.15585327148438 545 -130C545 -187.8443145751953 497.8441467285156 -235 440 -235C382.1556854248047 -235 335 -187.84414672851562 335 -130ZM385 -130C385 -160.15585327148438 409.8443145751953 -185 440 -185C470.1558532714844 -185 495 -160.1556854248047 495 -130C495 -99.84414672851562 470.1556854248047 -75 440 -75C409.8441467285156 -75 385 -99.84431457519531 385 -130Z"/>
</svg>