<svg xmlns="http://www.w3.org/2000/svg" viewBox="0 -1000 1000 1000">
	<path fill="#000000" d="M315 -38C168.80783081054688 -38 93 -169.61270141601562 93 -300C93 -399.19667053222656 135.2889404296875 -482 195 -482C259.07374572753906 -482 293.9529724121094 -443.0921325683594 296.5836181640625 -440.0863342285156C297.6479949951172 -438.8812561035156 298.96693420410156 -437.75636291503906 300.4804229736328 -436.7590637207031C304.5968322753906 -433.7739715576172 309.6243133544922 -432 315 -432C320.4205627441406 -432 325.48707580566406 -433.8037109375 329.6224822998047 -436.8340759277344C330.9376525878906 -437.75425720214844 332.20916748046875 -438.83302307128906 333.4194793701172 -440.0842590332031C336.2228546142578 -443.3368377685547 369.85137939453125 -482 435 -482C496.71141052246094 -482 537 -399.48866271972656 537 -300C537 -156.0967559814453 460.20147705078125 -38 315 -38ZM315 12C495.85711669921875 12 587 -139.9032440185547 587 -300C587 -400.51133728027344 547.2885894775391 -532 435 -532C394.8175811767578 -532 362.8351745605469 -520.3735809326172 340 -507.7285614013672V-637C340 -650.6171264648438 328.61712646484375 -662 315 -662C301.38287353515625 -662 290 -650.6171264648438 290 -637V-507.6260223388672C266.8443908691406 -520.593994140625 235.2238311767578 -532.0000152587891 195 -532.0000152587891C84.7110595703125 -532.0000152587891 43 -400.8033447265625 43 -300.00001525878906C43 -154.38731384277344 131.03005981445312 11.999984741210938 315 11.999984741210938Z"/>
</svg>