<svg xmlns="http://www.w3.org/2000/svg" viewBox="0 -1000 1000 1000">
	<path fill="#000000" d="M80 -532C66.38287353515625 -532 55 -520.6171264648438 55 -507V-274.97747802734375C48.25526428222656 -265.8236541748047 49.23094177246094 -253.23985290527344 55 -245.0942840576172V-13C55 0.61712646484375 66.38287353515625 12 80 12C93.61712646484375 12 105 0.61712646484375 105 -13V-196.13601684570312L312.60626220703125 4.9571075439453125C322.38722229003906 14.431228637695312 338.4829864501953 14.174728393554688 347.9571075439453 4.3937530517578125C357.43121337890625 -5.38720703125 357.1747131347656 -21.48297119140625 347.39373779296875 -30.95709228515625L110.93244934082031 -259.99998474121094L347.39373779296875 -489.0428771972656C357.1747131347656 -498.51698303222656 357.43121337890625 -514.6127471923828 347.9571075439453 -524.3937072753906C338.4829864501953 -534.1746826171875 322.38722229003906 -534.4311828613281 312.60626220703125 -524.9570770263672L105 -323.86395263671875V-506.9999694824219C105 -520.6170959472656 93.61712646484375 -531.9999694824219 80 -531.9999694824219Z"/>
</svg>