<svg xmlns="http://www.w3.org/2000/svg" viewBox="0 -1000 1000 1000">
	<path fill="#000000" d="M93.94059753417969 -480.52528381347656C199.29949951171875 -467.5917053222656 238.4856719970703 -378.1087188720703 248.07620239257812 -286.77085876464844C161.45909118652344 -298.67689514160156 102.51902770996094 -366.55625915527344 93.94061279296875 -480.5252685546875ZM456.0594177246094 -480.5252685546875C447.4809875488281 -366.5562438964844 388.5409240722656 -298.6768798828125 301.92381286621094 -286.7708435058594C311.51434326171875 -378.10870361328125 350.7005157470703 -467.59169006347656 456.0594024658203 -480.52525329589844ZM482 -531.9999694824219C366.8061218261719 -531.9999694824219 305.2050323486328 -465.64227294921875 275 -388.1280517578125C244.7949676513672 -465.64227294921875 183.19387817382812 -531.9999694824219 68 -531.9999694824219C57.27009582519531 -531.9999694824219 43 -522.1325073242188 43 -506.9999694824219C43 -356.32630920410156 123.91380310058594 -248.72665405273438 250 -236.2193603515625V-12.999969482421875C250 0.617156982421875 261.38287353515625 12.000030517578125 275 12.000030517578125C288.61712646484375 12.000030517578125 300 0.617156982421875 300 -12.999969482421875V-236.2193603515625C426.08619689941406 -248.72665405273438 507 -356.32630920410156 507 -506.9999694824219C507 -522.1325073242188 492.7299041748047 -531.9999694824219 482 -531.9999694824219Z"/>
</svg>