<svg xmlns="http://www.w3.org/2000/svg" viewBox="0 -1000 1000 1000">
	<path fill="#000000" d="M235 -109C235 -148.193359375 203.1923828125 -180 164 -180C124.806640625 -180 93 -148.1923828125 93 -109C93 -69.806640625 124.8076171875 -38 164 -38C203.193359375 -38 235 -69.8076171875 235 -109ZM144.7734375 -228.4794921875L214.7314453125 -470H68C54.3828125 -470 43 -481.3828125 43 -495C43 -508.6171875 54.3828125 -520 68 -520H248C263.1220703125 -520 276.7890625 -504.533203125 272.0126953125 -488.044921875L196.02734375 -225.712890625C247.30078125 -211.666015625 285 -164.720703125 285 -109C285 -42.1923828125 230.806640625 12 164 12C97.1923828125 12 43 -42.193359375 43 -109C43 -169.2646484375 87.09765625 -219.263671875 144.7734375 -228.4794921875Z"/>
</svg>