<svg xmlns="http://www.w3.org/2000/svg" viewBox="0 -1000 1000 1000">
	<path fill="#000000" d="M51.942047119140625 6.16094970703125C62.37872314453125 14.907485961914062 78.41441345214844 13.494644165039062 87.16094970703125 3.057952880859375L501.16094970703125 -490.9420471191406C509.90748596191406 -501.37872314453125 508.49464416503906 -517.4144134521484 498.0579528808594 -526.1609497070312C487.62127685546875 -534.9074859619141 471.58558654785156 -533.4946441650391 462.83905029296875 -523.0579528808594L48.83905029296875 -29.057952880859375C40.09251403808594 -18.62127685546875 41.50535583496094 -2.5855865478515625 51.942047119140625 6.16094970703125ZM357 -88C357 -115.60726928710938 379.39088439941406 -138 407 -138C434.6072692871094 -138 457 -115.60911560058594 457 -88C457 -60.392730712890625 434.60911560058594 -38 407 -38C379.3927307128906 -38 357 -60.39088439941406 357 -88ZM307 -88C307 -32.77903747558594 351.7830505371094 12 407 12C462.22096252441406 12 507 -32.783050537109375 507 -88C507 -143.22096252441406 462.2169494628906 -188 407 -188C351.77903747558594 -188 307 -143.21694946289062 307 -88ZM93 -432C93 -459.6072692871094 115.39088439941406 -482 143 -482C170.60726928710938 -482 193 -459.60911560058594 193 -432C193 -404.3927307128906 170.60911560058594 -382 143 -382C115.39273071289062 -382 93 -404.39088439941406 93 -432ZM43 -432C43 -376.77903747558594 87.78305053710938 -332 143 -332C198.22096252441406 -332 243 -376.7830505371094 243 -432C243 -487.22096252441406 198.21694946289062 -532 143 -532C87.77903747558594 -532 43 -487.2169494628906 43 -432Z"/>
</svg>