<svg xmlns="http://www.w3.org/2000/svg" viewBox="0 -1000 1000 1000">
	<path fill="#000000" d="M307.0000305175781 -13.963607788085938C307.0206756591797 0.226837158203125 319.0996856689453 10.254409790039062 331.25079345703125 11.001129150390625C331.25079345703125 11.001129150390625 507 16.401336669921875 507 -113.99998474121094C507 -283.5869598388672 357 -283.39979553222656 357 -406.99998474121094C357 -475.4222106933594 471.8824768066406 -481.9552764892578 482.03639221191406 -482.00001525878906C495.65350341796875 -482.01983642578125 507.01979064941406 -493.4192657470703 506.9999694824219 -507.036376953125C506.9810028076172 -520.0732421875 497.1818084716797 -531.1141662597656 482.74920654296875 -532.0010986328125C482.74920654296875 -532.0010986328125 307 -537.9132385253906 307 -406.99998474121094C307 -236.5729522705078 457 -236.65948486328125 457 -113.99998474121094C457 -45.61053466796875 342.09730529785156 -39.01470947265625 331.96360778808594 -38.99995422363281C318.34649658203125 -38.980133056640625 306.98020935058594 -27.580703735351562 307.0000305175781 -13.963592529296875ZM43.000030517578125 -12.963592529296875C43.02067565917969 1.2268524169921875 55.09968566894531 11.254425048828125 67.25079345703125 12.001144409179688C67.25079345703125 12.001144409179688 243 17.401351928710938 243 -112.99996948242188C243 -283.3069763183594 93 -283.5779571533203 93 -405.9999694824219C93 -474.4221954345703 207.88247680664062 -480.95526123046875 218.03639221191406 -481C231.65350341796875 -481.0198211669922 243.01979064941406 -492.41925048828125 242.99996948242188 -506.03636169433594C242.9810028076172 -519.0732269287109 233.1818084716797 -530.1141510009766 218.74920654296875 -531.0010833740234C218.74920654296875 -531.0010833740234 43 -536.9132232666016 43 -405.9999694824219C43 -236.42198181152344 193 -236.7201690673828 193 -112.99996948242188C193 -44.61051940917969 78.09730529785156 -38.01469421386719 67.96360778808594 -37.99993896484375C54.34649658203125 -37.98011779785156 42.98020935058594 -26.5806884765625 43.000030517578125 -12.963577270507812Z"/>
</svg>