<svg xmlns="http://www.w3.org/2000/svg" viewBox="0 -1000 1000 1000">
	<path fill="#000000" d="M43 -495C43 -481.38287353515625 54.38287353515625 -470 68 -470H275C349.4340362548828 -470 407.1077423095703 -435.2345886230469 436.18243408203125 -370H68C57.27009582519531 -370 43 -360.1325378417969 43 -345V-175C43 -164.2700958251953 52.867462158203125 -150 68 -150H437.2649688720703C408.2742156982422 -79.01712036132812 349.4611358642578 -37.84295654296875 275.052734375 -37.99993896484375C259.9373016357422 -38.031829833984375 249.99998474121094 -23.827484130859375 249.99998474121094 -13V183C249.99998474121094 196.61712646484375 261.3828582763672 208 274.99998474121094 208C288.6171112060547 208 299.99998474121094 196.61712646484375 299.99998474121094 183V10.774398803710938C426.1508483886719 -2.06805419921875 506.99998474121094 -113.79922485351562 506.99998474121094 -260.00001525878906C506.99998474121094 -416.4916534423828 414.0438537597656 -520.0000152587891 274.99998474121094 -520.0000152587891H67.99998474121094C54.38285827636719 -520.0000152587891 42.99998474121094 -508.6171417236328 42.99998474121094 -495.00001525878906ZM108.99998474121094 -260.00001525878906C108.99998474121094 -282.62208557128906 127.37791442871094 -301.00001525878906 149.99998474121094 -301.00001525878906C172.62205505371094 -301.00001525878906 190.99998474121094 -282.62208557128906 190.99998474121094 -260.00001525878906C190.99998474121094 -237.37794494628906 172.62205505371094 -219.00001525878906 149.99998474121094 -219.00001525878906C127.37791442871094 -219.00001525878906 108.99998474121094 -237.37794494628906 108.99998474121094 -260.00001525878906ZM280.99998474121094 -260.00001525878906C280.99998474121094 -282.62208557128906 299.37791442871094 -301.00001525878906 321.99998474121094 -301.00001525878906C344.62205505371094 -301.00001525878906 362.99998474121094 -282.62208557128906 362.99998474121094 -260.00001525878906C362.99998474121094 -237.37794494628906 344.62205505371094 -219.00001525878906 321.99998474121094 -219.00001525878906C299.37791442871094 -219.00001525878906 280.99998474121094 -237.37794494628906 280.99998474121094 -260.00001525878906Z"/>
</svg>