<svg xmlns="http://www.w3.org/2000/svg" viewBox="0 -1000 1000 1000">
	<path fill="#000000" d="M353 -25C353 -11.38287353515625 364.38287353515625 0 378 0H586C600.3704071044922 0 612.0503997802734 -12.63531494140625 610.9229431152344 -26.96142578125C610.7166137695312 -29.583099365234375 609.36181640625 -33.96022033691406 608.9539184570312 -34.905426025390625L400.95391845703125 -516.9054260253906C395.26011657714844 -530.0997161865234 379.0310974121094 -535.8174438476562 366.32420349121094 -529.1060180664062C361.1142120361328 -526.3542327880859 356.69598388671875 -520.8669281005859 354.92584228515625 -516.6220245361328L171.88861083984375 -77.68807983398438L91.04087829589844 -269.70143127441406C85.75665283203125 -282.25146484375 70.84858703613281 -288.3251190185547 58.298553466796875 -283.0408935546875C45.74853515625 -277.7566833496094 39.67488098144531 -262.84861755371094 44.9591064453125 -250.298583984375L148.9591064453125 -3.298583984375C151.10533142089844 1.7986907958984375 155.35780334472656 6.562744140625 160.59730529785156 9.248123168945312C173.38589477539062 15.802566528320312 189.54327392578125 9.885421752929688 195.07415771484375 -3.3779754638671875L378.3941345214844 -442.9899444580078L547.983154296875 -49.99998474121094H378C364.38287353515625 -49.99998474121094 353 -38.61711120605469 353 -24.999984741210938Z"/>
</svg>