<svg xmlns="http://www.w3.org/2000/svg" viewBox="0 -1000 1000 1000">
	<path fill="#000000" d="M379.3816223144531 -587.3159942626953C388.4691467285156 -577.1748199462891 404.5428466796875 -576.2940826416016 414.6840057373047 -585.3816070556641L491.6840057373047 -654.3816070556641C501.82518005371094 -663.4691314697266 502.70591735839844 -679.5428314208984 493.61839294433594 -689.6839904785156C484.53086853027344 -699.8251495361328 468.45716857910156 -700.7058868408203 458.3160095214844 -691.6183624267578L381.3160095214844 -622.6183624267578C371.1748352050781 -613.5308380126953 370.2940979003906 -597.4571380615234 379.3816223144531 -587.3159790039062ZM275 -577.9999847412109C288.61712646484375 -577.9999847412109 300 -589.3828582763672 300 -602.9999847412109V-702.9999847412109C300 -716.6171112060547 288.61712646484375 -727.9999847412109 275 -727.9999847412109C261.38287353515625 -727.9999847412109 250 -716.6171112060547 250 -702.9999847412109V-602.9999847412109C250 -589.3828582763672 261.38287353515625 -577.9999847412109 275 -577.9999847412109ZM56.381622314453125 -689.6839904785156C47.294097900390625 -679.5428466796875 48.174835205078125 -663.4691467285156 58.31599426269531 -654.3816223144531L135.3159942626953 -585.3816223144531C145.45713806152344 -576.2940979003906 161.5308380126953 -577.1748352050781 170.6183624267578 -587.3159942626953C179.7058868408203 -597.4571533203125 178.8251495361328 -613.5308532714844 168.68399047851562 -622.6183776855469L91.68399047851562 -691.6183776855469C81.5428466796875 -700.7059020996094 65.46914672851562 -699.8251647949219 56.381622314453125 -689.6840057373047ZM280 12C421.9814453125 12 500 -105.69140625 500 -260V-495C500 -510.1328125 485.7294921875 -520 475 -520H85C69.8671875 -520 60 -505.7294921875 60 -495V-260C60 -105.69140625 138.0185546875 12 280 12ZM280 -38C173.9814453125 -38 110 -120.30859375 110 -260V-470H450V-260C450 -120.30859375 386.0185546875 -38 280 -38Z"/>
</svg>