<svg xmlns="http://www.w3.org/2000/svg" viewBox="0 -1000 1000 1000">
	<path fill="#000000" d="M168.40354919433594 -287.5788269042969C127.52490234375 -275.07118225097656 42.99998474121094 -238.6802215576172 42.99998474121094 -145C42.99998474121094 -40.73399353027344 113.62579345703125 12 187.99998474121094 12C239.76873779296875 12 276.4001007080078 -31.212753295898438 295.1427001953125 -56.642425537109375C315.9836120605469 -28.737716674804688 351.1808166503906 12 401.99998474121094 12C480.68017578125 12 546.9999847412109 -41.76072692871094 546.9999847412109 -148C546.9999847412109 -239.6562957763672 461.38414001464844 -275.7052459716797 423.5157928466797 -287.71556091308594C430.19879150390625 -311.5327911376953 438.99998474121094 -346.4964599609375 438.99998474121094 -377C438.99998474121094 -445.6238098144531 393.4550018310547 -532 294.99998474121094 -532C200.56472778320312 -532 148.99998474121094 -447.6846008300781 148.99998474121094 -375C148.99998474121094 -344.9508819580078 160.4003143310547 -310.11302185058594 168.40353393554688 -287.5788269042969ZM206.06809997558594 -245.3326416015625C219.05601501464844 -247.56446838378906 231.970947265625 -263.57313537597656 224.96971130371094 -279.86871337890625C224.96971130371094 -279.86871337890625 198.99998474121094 -343.47438049316406 198.99998474121094 -375C198.99998474121094 -428.3153991699219 235.71258544921875 -482 294.99998474121094 -482C357.3164520263672 -482 388.99998474121094 -428.3761901855469 388.99998474121094 -377C388.99998474121094 -341.2908630371094 368.3163757324219 -278.00543212890625 368.3163757324219 -278.00543212890625C363.7287139892578 -264.43310546875 371.19708251953125 -249.47731018066406 386.7488555908203 -245.5407257080078C395.51438903808594 -243.99371337890625 496.99998474121094 -221.67526245117188 496.99998474121094 -148C496.99998474121094 -66.23927307128906 455.1225280761719 -38 401.99998474121094 -38C364.22450256347656 -38 319.5552215576172 -110.00552368164062 317.14039611816406 -114.61044311523438C315.34112548828125 -118.04153442382812 311.9525909423828 -121.91618347167969 308.12632751464844 -124.2767333984375C295.8961181640625 -131.82196044921875 279.3214111328125 -127.2010498046875 272.7589874267578 -114.41656494140625C270.3753356933594 -109.81315612792969 226.7776641845703 -38 187.99998474121094 -38C138.37417602539062 -38 92.99998474121094 -67.26600646972656 92.99998474121094 -145C92.99998474121094 -223.10272216796875 197.5850372314453 -244.00607299804688 206.06809997558594 -245.3326416015625Z"/>
</svg>