<svg xmlns="http://www.w3.org/2000/svg" viewBox="0 -1000 1000 1000">
	<path fill="#000000" d="M246.9424591064453 -516.6617584228516L120.9566650390625 -216H63.00001525878906C49.38288879394531 -216 38.00001525878906 -204.61712646484375 38.00001525878906 -191C38.00001525878906 -177.38287353515625 49.38288879394531 -166 63.00001525878906 -166H100.0052490234375L39.94245910644531 -22.661758422851562C34.38873291015625 -9.40789794921875 41.52833557128906 6.2477569580078125 55.17706298828125 10.744522094726562C57.68559265136719 11.57098388671875 60.55116271972656 12.000015258789062 63.00001525878906 12.000015258789062H477.00001525878906C491.37042236328125 12.000015258789062 503.0504150390625 -0.6352996826171875 501.92295837402344 -14.961410522460938C501.7157287597656 -17.594436645507812 501.00396728515625 -20.403167724609375 500.05755615234375 -22.6617431640625L439.99476623535156 -165.99998474121094H477C490.61712646484375 -165.99998474121094 502 -177.3828582763672 502 -190.99998474121094C502 -204.6171112060547 490.61712646484375 -215.99998474121094 477 -215.99998474121094H419.04335021972656L293.05755615234375 -516.6617431640625C287.50379943847656 -529.9155883789062 271.3362579345703 -535.8048858642578 258.5589904785156 -529.2284088134766C253.30455017089844 -526.5239410400391 248.98193359375 -521.5289001464844 246.9424591064453 -516.6617279052734ZM154.21743774414062 -165.99996948242188H385.78257751464844L439.41819763183594 -37.999969482421875H100.58180236816406ZM175.16883850097656 -215.99996948242188L269.99998474121094 -442.31199645996094L364.8311309814453 -215.99996948242188Z"/>
</svg>