<svg xmlns="http://www.w3.org/2000/svg" viewBox="0 -1000 1000 1000">
	<path fill="#000000" d="M105 -470H445V-50H275H105ZM55 -495V-25V171C55 184.61712646484375 66.38287353515625 196 80 196C93.61712646484375 196 105 184.61712646484375 105 171V0H250V171C250 184.61712646484375 261.38287353515625 196 275 196C288.61712646484375 196 300 184.61712646484375 300 171V0H445V171C445 184.61712646484375 456.38287353515625 196 470 196C483.61712646484375 196 495 184.61712646484375 495 171V-25V-495C495 -510.1325378417969 480.7299041748047 -520 470 -520H80C64.86746215820312 -520 55 -505.7299041748047 55 -495Z"/>
</svg>