<svg xmlns="http://www.w3.org/2000/svg" viewBox="0 -1000 1000 1000">
	<path fill="#000000" d="M58.134765625 -529.9716796875C45.623046875 -524.59765625 39.6552734375 -509.646484375 45.0283203125 -497.134765625L237.0556640625 -50H68C54.3828125 -50 43 -38.6171875 43 -25C43 -11.3828125 54.3828125 0 68 0H482C495.6171875 0 507 -11.3828125 507 -25C507 -38.6171875 495.6171875 -50 482 -50H312.9443359375L504.9716796875 -497.134765625C510.3447265625 -509.646484375 504.376953125 -524.59765625 491.865234375 -529.9716796875C479.353515625 -535.3447265625 464.40234375 -529.376953125 459.0283203125 -516.865234375L275 -88.353515625L90.9716796875 -516.865234375C85.59765625 -529.376953125 70.646484375 -535.3447265625 58.134765625 -529.9716796875Z"/>
</svg>