<svg xmlns="http://www.w3.org/2000/svg" viewBox="0 -1000 1000 1000">
	<path fill="#000000" d="M50.32232666015625 -424.69732666015625C59.95109558105469 -415.0685729980469 76.04890441894531 -415.0685729980469 85.67767333984375 -424.69732666015625C122.4892578125 -461.5089111328125 160.41346740722656 -482 213.375 -482C320.560791015625 -482 395 -396.78199768066406 395 -260C395 -123.21807861328125 320.559326171875 -38 213.375 -38C160.41358947753906 -38 122.48922729492188 -58.49110412597656 85.67767333984375 -95.30267333984375C76.04890441894531 -104.93142700195312 59.95109558105469 -104.93142700195312 50.32232666015625 -95.30267333984375C40.693572998046875 -85.67390441894531 40.693572998046875 -69.57609558105469 50.32232666015625 -59.94732666015625C93.26077270507812 -17.008895874023438 145.33641052246094 12 213.375 12C354.190673828125 12 445 -104.78192138671875 445 -260C445 -415.21800231933594 354.189208984375 -532 213.375 -532C145.33653259277344 -532 93.2607421875 -502.9910888671875 50.32232666015625 -460.05267333984375C40.693572998046875 -450.4239044189453 40.693572998046875 -434.3260955810547 50.32232666015625 -424.69732666015625Z"/>
</svg>