<svg xmlns="http://www.w3.org/2000/svg" viewBox="0 -1000 1000 1000">
	<path fill="#000000" d="M115 -666H435V-450C435 -355.6481475830078 383.138427734375 -285 275 -285C165.77890014648438 -285 115 -354.5453796386719 115 -450ZM65 -691V-450C65 -344.26556396484375 123.62075805664062 -253.42129516601562 238.12680053710938 -237.4773712158203L67.02690124511719 161.13916015625C61.358734130859375 174.34446716308594 68.36265563964844 190.06129455566406 81.97196960449219 194.6759490966797C84.43910217285156 195.5124969482422 89.08834838867188 196 90.00001525878906 196H460.00001525878906C474.37042236328125 196 486.0504150390625 183.36468505859375 484.92295837402344 169.03857421875C484.71856689453125 166.44149780273438 483.3327178955078 161.97691345214844 482.97312927246094 161.13916015625L311.8526916503906 -237.52520751953125C425.69007873535156 -253.673828125 485.0000305175781 -345.1377716064453 485.0000305175781 -450V-691C485.0000305175781 -706.1325378417969 470.7299346923828 -716 460.0000305175781 -716H90.00003051757812C74.86749267578125 -716 65.00003051757812 -701.7299041748047 65.00003051757812 -691ZM422.0634460449219 146H127.93661499023438L275.0000305175781 -196.61802673339844Z"/>
</svg>