<svg xmlns="http://www.w3.org/2000/svg" viewBox="0 -1000 1000 1000">
	<path fill="#000000" d="M218 -332H330V-188H218ZM193 -382C182.2700958251953 -382 168 -372.1325378417969 168 -357V-163C168 -152.2700958251953 177.86746215820312 -138 193 -138H355C365.7299041748047 -138 380 -147.86746215820312 380 -163V-357C380 -367.7299041748047 370.1325378417969 -382 355 -382ZM105 -470H445V-50H105ZM80 -520C69.27009582519531 -520 55 -510.1325378417969 55 -495V-25C55 -14.270095825195312 64.86746215820312 0 80 0H470C480.7299041748047 0 495 -9.867462158203125 495 -25V-495C495 -505.7299041748047 485.1325378417969 -520 470 -520Z"/>
</svg>