<svg xmlns="http://www.w3.org/2000/svg" viewBox="0 -1000 1000 1000">
	<path fill="#000000" d="M45 -495C45 -481.3828125 56.3828125 -470 70 -470H175.8876953125C136.9482421875 -383.8681640625 43 -168.75390625 43 -43C43 114.4345703125 137.34375 208 275 208C413.82421875 208 507 114.314453125 507 -43C507 -168.7236328125 412.189453125 -385.775390625 374.1123046875 -470H482C495.6171875 -470 507 -481.3828125 507 -495C507 -508.6171875 495.6171875 -520 482 -520H335C333.54296875 -520 328.76953125 -519.3955078125 325.98046875 -518.31640625C312.578125 -513.1318359375 306.2431640625 -497.1337890625 312.462890625 -484.1787109375C312.462890625 -484.1787109375 457 -178.11328125 457 -43C457 91.685546875 386.462890625 158 275 158C164.65625 158 93 91.5654296875 93 -43C93 -178.1123046875 237.537109375 -484.1787109375 237.537109375 -484.1787109375C238.1669921875 -485.4921875 239.6884765625 -490.056640625 239.9228515625 -493.0380859375C241.05078125 -507.3642578125 229.3701171875 -520 215 -520H70C56.3828125 -520 45 -508.6171875 45 -495Z"/>
</svg>