<svg xmlns="http://www.w3.org/2000/svg" viewBox="0 -1000 1000 1000">
	<path fill="#000000" d="M43 -260C43 -246.3828125 54.3828125 -235 68 -235H267.587890625C279.111328125 -180.1806640625 327.7626953125 -139 386 -139C452.8076171875 -139 507 -193.193359375 507 -260C507 -326.8076171875 452.806640625 -381 386 -381C327.7626953125 -381 279.111328125 -339.8193359375 267.587890625 -285H68C54.3828125 -285 43 -273.6171875 43 -260ZM315 -260C315 -299.193359375 346.8076171875 -331 386 -331C425.193359375 -331 457 -299.1923828125 457 -260C457 -220.806640625 425.1923828125 -189 386 -189C346.806640625 -189 315 -220.8076171875 315 -260Z"/>
</svg>