<svg xmlns="http://www.w3.org/2000/svg" viewBox="0 -1000 1000 1000">
	<path fill="#000000" d="M400.06341552734375 146H105.93658447265625L253 -196.61802673339844ZM460.9731140136719 161.13914489746094L278 -265.1387481689453V-321.2559051513672C403.34954833984375 -334.2617645263672 451 -446.85011291503906 451 -592.0000152587891C451 -607.1325531005859 436.7299041748047 -617.0000152587891 426 -617.0000152587891C326.0237121582031 -617.0000152587891 277.2682647705078 -566.74560546875 253 -503.82505798339844C228.7317352294922 -566.74560546875 179.97628784179688 -617.0000152587891 80 -617.0000152587891C69.27009582519531 -617.0000152587891 55 -607.1325531005859 55 -592.0000152587891C55 -446.85011291503906 102.65045166015625 -334.2617645263672 228 -321.2559051513672V-265.1387481689453L45.026885986328125 161.13914489746094C39.35871887207031 174.34445190429688 46.362640380859375 190.061279296875 59.971954345703125 194.67593383789062C62.4390869140625 195.51248168945312 67.08833312988281 195.99998474121094 68 195.99998474121094H438C452.3704071044922 195.99998474121094 464.05039978027344 183.3646697998047 462.9229431152344 169.03855895996094C462.7185516357422 166.4414825439453 461.33270263671875 161.97689819335938 460.9731140136719 161.13914489746094ZM105.55223083496094 -565.5223541259766C203.86825561523438 -553.1854705810547 221.32489013671875 -468.9020690917969 226.78244018554688 -371.76597595214844C147.95599365234375 -383.3389434814453 110.85432434082031 -446.7031707763672 105.55224609375 -565.5223541259766ZM400.4477844238281 -565.5223541259766C395.14569091796875 -446.7031707763672 358.0440216064453 -383.3389434814453 279.2175750732422 -371.76597595214844C284.6751251220703 -468.9020690917969 302.1317596435547 -553.1854705810547 400.44776916503906 -565.5223541259766Z"/>
</svg>