<svg xmlns="http://www.w3.org/2000/svg" viewBox="0 -1000 1000 1000">
	<path fill="#000000" d="M11.578170776367188 -129.90077209472656C2.372589111328125 -119.86668395996094 3.0651397705078125 -103.78378295898438 13.0992431640625 -94.57818603515625L122.0992431640625 5.42181396484375C132.6884002685547 15.136642456054688 149.83694458007812 13.7220458984375 158.6910400390625 2.4033203125C162.644775390625 -2.6509857177734375 164.4736785888672 -9.355224609375 163.88211059570312 -15.425079345703125C163.88211059570312 -15.425079345703125 148 -179.16421508789062 148 -260.0000305175781C148 -402.9613800048828 191.65109252929688 -482.0000305175781 295 -482.0000305175781C398.6902313232422 -482.0000305175781 445 -402.35289001464844 445 -260.0000305175781V-13.000030517578125C445 0.617095947265625 456.38287353515625 11.999969482421875 470 11.999969482421875C483.61712646484375 11.999969482421875 495 0.617095947265625 495 -13.000030517578125V-260.0000305175781C495 -409.6471710205078 439.3097686767578 -532.0000305175781 295 -532.0000305175781C150.34890747070312 -532.0000305175781 98 -409.10032653808594 98 -260.0000305175781C98 -208.72999572753906 103.69384765625 -131.15634155273438 108.365234375 -75.03245544433594L46.90077209472656 -131.421875C36.86668395996094 -140.62745666503906 20.783782958984375 -139.93490600585938 11.57818603515625 -129.9008026123047Z"/>
</svg>