<svg xmlns="http://www.w3.org/2000/svg" viewBox="0 -1000 1000 1000">
	<path fill="#000000" d="M67.13096618652344 -160.01510620117188C80.7398681640625 -159.54176330566406 92.51155090332031 -170.52206420898438 92.98490905761719 -184.13096618652344C93.33236694335938 -193.71755981445312 103.78623962402344 -310 173.00001525878906 -310C201.60073852539062 -310 244.08717346191406 -251.21041870117188 246.58676147460938 -247.09756469726562C247.1437530517578 -246.1731719970703 247.9834442138672 -244.9998321533203 248.50999450683594 -244.3430633544922C248.50999450683594 -244.3430633544922 309.29673767089844 -160 378.00001525878906 -160C508.38194274902344 -160 507.01222229003906 -335.08265686035156 507.01222229003906 -335.08265686035156C506.5102233886719 -349.5337829589844 495.73435974121094 -359.62371826171875 482.70263671875 -359.99012756347656C469.09088134765625 -360.3728332519531 457.39259338378906 -349.3143768310547 457.0098876953125 -335.70262145996094C456.7080993652344 -325.98411560058594 447.07664489746094 -210 378.00001525878906 -210C350.33135986328125 -210 298.1545715332031 -262.80877685546875 288.3935241699219 -274.5548095703125C283.24778747558594 -282.71873474121094 239.0939178466797 -360 173.00001525878906 -360C43.29273986816406 -360 42.98780822753906 -185.08392333984375 42.98780822753906 -185.08392333984375C43.32940673828125 -172.91468811035156 52.94911193847656 -160.50839233398438 67.1309814453125 -160.01510620117188Z"/>
</svg>