<svg xmlns="http://www.w3.org/2000/svg" viewBox="0 -1000 1000 1000">
	<path fill="#000000" d="M124.8974609375 -411.291015625C113.30078125 -404.154296875 109.572265625 -388.4951171875 116.708984375 -376.8974609375L173.2607421875 -285H68C54.3828125 -285 43 -273.6171875 43 -260C43 -246.3828125 54.3828125 -235 68 -235H173.2607421875L116.708984375 -143.1025390625C109.572265625 -131.5048828125 113.30078125 -115.845703125 124.8974609375 -108.708984375C136.4951171875 -101.572265625 152.154296875 -105.30078125 159.291015625 -116.8974609375L218 -212.298828125L276.708984375 -116.8974609375C283.845703125 -105.30078125 299.5048828125 -101.572265625 311.1025390625 -108.708984375C322.69921875 -115.845703125 326.427734375 -131.5048828125 319.291015625 -143.1025390625L262.7392578125 -235H368C381.6171875 -235 393 -246.3828125 393 -260C393 -273.6171875 381.6171875 -285 368 -285H262.7392578125L319.291015625 -376.8974609375C326.427734375 -388.4951171875 322.69921875 -404.154296875 311.1025390625 -411.291015625C299.5048828125 -418.427734375 283.845703125 -414.69921875 276.708984375 -403.1025390625L218 -307.701171875L159.291015625 -403.1025390625C152.154296875 -414.69921875 136.4951171875 -418.427734375 124.8974609375 -411.291015625Z"/>
</svg>