<svg xmlns="http://www.w3.org/2000/svg" viewBox="0 -1000 1000 1000">
	<path fill="#000000" d="M88 -260C88 -396.7216796875 162.775390625 -482 270 -482C377.2255859375 -482 452 -396.7216796875 452 -260C452 -123.2783203125 377.224609375 -38 270 -38C162.7744140625 -38 88 -123.2783203125 88 -260ZM38 -260C38 -104.7216796875 129.2255859375 12 270 12C410.775390625 12 502 -104.7216796875 502 -260C502 -415.2783203125 410.7744140625 -532 270 -532C129.224609375 -532 38 -415.2783203125 38 -260ZM231 -260C231 -238.537109375 248.537109375 -221 270 -221C291.462890625 -221 309 -238.537109375 309 -260C309 -281.462890625 291.462890625 -299 270 -299C248.537109375 -299 231 -281.462890625 231 -260Z"/>
</svg>