<svg xmlns="http://www.w3.org/2000/svg" viewBox="0 -1000 1000 1000">
	<path fill="#000000" d="M43 -507C43 -473.2351379394531 59.55244445800781 -443.35008239746094 84.98861694335938 -425.0133819580078C57.59297180175781 -379.7566223144531 43 -323.1885223388672 43 -260C43 -104.72142028808594 134.22454833984375 12 275 12C415.7740020751953 12 507 -104.72148132324219 507 -260C507 -323.186279296875 492.4066619873047 -379.7594909667969 465.01182556152344 -425.01368713378906C490.4477996826172 -443.35047912597656 507 -473.23545837402344 507 -507C507 -562.7976379394531 461.79734802246094 -608 406 -608C350.2023620605469 -608 305 -562.7973480224609 305 -507C305 -451.2023620605469 350.20265197753906 -406 406 -406C409.87103271484375 -406 413.69105529785156 -406.2175598144531 417.44854736328125 -406.64112854003906C442.23548889160156 -369.57421875 457 -319.53404235839844 457 -260C457 -123.27851867675781 382.2259979248047 -38 275 -38C167.77545166015625 -38 93 -123.27857971191406 93 -260C93 -319.5318603515625 107.76502990722656 -369.5782165527344 132.55108642578125 -406.64117431640625C136.30868530273438 -406.2175750732422 140.12884521484375 -406 144 -406C199.79763793945312 -406 245 -451.20265197753906 245 -507C245 -562.7976379394531 199.79734802246094 -608 144 -608C88.20236206054688 -608 43 -562.7973480224609 43 -507ZM93 -507C93 -535.2026519775391 115.79763793945312 -558 144 -558C172.20265197753906 -558 195 -535.2023620605469 195 -507C195 -478.79734802246094 172.20236206054688 -456 144 -456C115.79734802246094 -456 93 -478.7976379394531 93 -507ZM355 -507C355 -535.2026519775391 377.7976379394531 -558 406 -558C434.20265197753906 -558 457 -535.2023620605469 457 -507C457 -478.79734802246094 434.2023620605469 -456 406 -456C377.79734802246094 -456 355 -478.7976379394531 355 -507Z"/>
</svg>