<svg xmlns="http://www.w3.org/2000/svg" viewBox="0 -1000 1000 1000">
	<path fill="#000000" d="M43 -260C43 -104.7216796875 134.2255859375 12 275 12C415.775390625 12 507 -104.7216796875 507 -260C507 -415.2783203125 415.7744140625 -532 275 -532C134.224609375 -532 43 -415.2783203125 43 -260ZM300 -235H456.1357727050781C448.2669677734375 -123.3367919921875 387.3147888183594 -51.08613586425781 300 -39.6082763671875ZM250 -235V-39.608245849609375C162.6845245361328 -51.08601379394531 101.73292541503906 -123.33670043945312 93.86422729492188 -235ZM300 -285V-480.3917541503906C387.3154754638672 -468.9139862060547 448.26707458496094 -396.6632995605469 456.1357727050781 -285ZM250 -285H93.86422729492188C101.7330322265625 -396.6632080078125 162.68521118164062 -468.9138641357422 250 -480.3917236328125Z"/>
</svg>