<svg xmlns="http://www.w3.org/2000/svg" viewBox="0 -1000 1000 1000">
	<path fill="#000000" d="M55.67247009277344 8.749298095703125C67.51899719238281 15.46392822265625 83.03468322753906 11.174057006835938 89.74931335449219 -0.6724700927734375L169.3597412109375 -141.12802124023438C181.53643798828125 -137.1513214111328 194.52517700195312 -135 208 -135C221.474853515625 -135 234.4635772705078 -137.15130615234375 246.64027404785156 -141.1280059814453L326.2507019042969 -0.6724700927734375C332.96533203125 11.174041748046875 348.48101806640625 15.463912963867188 360.32752990722656 8.749282836914062C372.17405700683594 2.0346527099609375 376.46392822265625 -13.481033325195312 369.7492980957031 -25.327545166015625L290.0923156738281 -165.86520385742188C316.36045837402344 -188.80966186523438 333 -222.5249786376953 333 -260C333 -297.47515869140625 316.3603973388672 -331.1903991699219 290.0923156738281 -354.1347961425781L369.7492980957031 -494.67247009277344C376.46392822265625 -506.5189971923828 372.17405700683594 -522.0346832275391 360.32752990722656 -528.7493133544922C348.48101806640625 -535.4639434814453 332.96533203125 -531.174072265625 326.2507019042969 -519.3275451660156L246.64027404785156 -378.8719940185547C234.4635772705078 -382.84869384765625 221.47483825683594 -385.00001525878906 208.00001525878906 -385.00001525878906C194.52516174316406 -385.00001525878906 181.53643798828125 -382.8487091064453 169.3597412109375 -378.87200927734375L89.74931335449219 -519.3275451660156C83.03468322753906 -531.1740570068359 67.51899719238281 -535.4639282226562 55.6724853515625 -528.7492980957031C43.825958251953125 -522.03466796875 39.53608703613281 -506.51898193359375 46.25071716308594 -494.67247009277344L125.90769958496094 -354.1348114013672C99.63955688476562 -331.1903533935547 83.00001525878906 -297.47503662109375 83.00001525878906 -260.00001525878906C83.00001525878906 -222.5248565673828 99.63961791992188 -188.8096160888672 125.90769958496094 -165.86521911621094L46.25071716308594 -25.327545166015625C39.53608703613281 -13.48101806640625 43.825958251953125 2.03466796875 55.6724853515625 8.749298095703125ZM133.00001525878906 -260C133.00001525878906 -301.1558532714844 166.84457397460938 -335 208.00001525878906 -335C249.15586853027344 -335 283.00001525878906 -301.1554412841797 283.00001525878906 -260C283.00001525878906 -218.84414672851562 249.15545654296875 -185 208.00001525878906 -185C166.8441619873047 -185 133.00001525878906 -218.8445587158203 133.00001525878906 -260Z"/>
</svg>