<svg xmlns="http://www.w3.org/2000/svg" viewBox="0 -1000 1000 1000">
	<path fill="#000000" d="M194 88C194 45.764892578125 227.76490783691406 12 270 12C312.235107421875 12 346 45.76490783691406 346 88C346 129.99880981445312 312.57049560546875 163 270 163C227.42950439453125 163 194 129.998779296875 194 88ZM38 -260C38 -139.13975524902344 93.26651000976562 -41.63798522949219 184.14727783203125 -4.352569580078125C159.42799377441406 18.628616333007812 144 51.4583740234375 144 88C144 158.001220703125 200.57049560546875 213 270 213C339.42950439453125 213 396 158.00119018554688 396 88C396 51.45841979980469 380.5720672607422 18.628707885742188 355.85284423828125 -4.3524627685546875C446.7339782714844 -41.637786865234375 502 -139.13963317871094 502 -260C502 -415.2783203125 410.7744140625 -532 270 -532C129.224609375 -532 38 -415.2783203125 38 -260ZM270 -38C162.7744140625 -38 88 -123.2783203125 88 -260C88 -396.7216796875 162.775390625 -482 270 -482C377.2255859375 -482 452 -396.7216796875 452 -260C452 -123.2783203125 377.224609375 -38 270 -38Z"/>
</svg>