<svg xmlns="http://www.w3.org/2000/svg" viewBox="0 -1000 1000 1000">
	<path fill="#000000" d="M43 -507C43 -473.2353515625 59.552734375 -443.349609375 84.98828125 -425.013671875C57.5927734375 -379.7568359375 43 -323.1884765625 43 -260C43 -104.7216796875 134.224609375 12 275 12C415.7744140625 12 507 -104.7216796875 507 -260C507 -323.1865234375 492.40625 -379.759765625 465.01171875 -425.013671875C490.4482421875 -443.3505859375 507 -473.2353515625 507 -507C507 -562.7978515625 461.796875 -608 406 -608C350.2021484375 -608 305 -562.796875 305 -507C305 -451.2021484375 350.203125 -406 406 -406C409.87109375 -406 413.69140625 -406.2177734375 417.4482421875 -406.6416015625C442.2353515625 -369.57421875 457 -319.5341796875 457 -260C457 -123.2783203125 382.2255859375 -38 275 -38C167.775390625 -38 93 -123.2783203125 93 -260C93 -319.5322265625 107.7646484375 -369.578125 132.55078125 -406.6416015625C136.30859375 -406.2177734375 140.12890625 -406 144 -406C199.7978515625 -406 245 -451.203125 245 -507C245 -562.7978515625 199.796875 -608 144 -608C88.2021484375 -608 43 -562.796875 43 -507ZM93 -507C93 -535.203125 115.7978515625 -558 144 -558C172.203125 -558 195 -535.2021484375 195 -507C195 -478.796875 172.2021484375 -456 144 -456C115.796875 -456 93 -478.7978515625 93 -507ZM355 -507C355 -535.203125 377.7978515625 -558 406 -558C434.203125 -558 457 -535.2021484375 457 -507C457 -478.796875 434.2021484375 -456 406 -456C377.796875 -456 355 -478.7978515625 355 -507ZM236 -260C236 -238.537109375 253.537109375 -221 275 -221C296.462890625 -221 314 -238.537109375 314 -260C314 -281.462890625 296.462890625 -299 275 -299C253.537109375 -299 236 -281.462890625 236 -260Z"/>
</svg>