<svg xmlns="http://www.w3.org/2000/svg" viewBox="0 -1000 1000 1000">
	<path fill="#000000" d="M80 12C93.61712646484375 12 105 0.61712646484375 105 -13V-235H156.58767700195312C168.111572265625 -180.18069458007812 216.76307678222656 -139 275 -139C333.23695373535156 -139 381.888427734375 -180.18072509765625 393.4123229980469 -235H445V-13C445 0.61712646484375 456.38287353515625 12 470 12C483.61712646484375 12 495 0.61712646484375 495 -13V-260C495 -275.1325378417969 480.7299041748047 -285 470 -285H393.4123229980469C381.888427734375 -339.8193054199219 333.23692321777344 -381 275 -381C216.76304626464844 -381 168.111572265625 -339.81927490234375 156.58767700195312 -285H80C69.27009582519531 -285 55 -275.1325378417969 55 -260V-13C55 0.61712646484375 66.38287353515625 12 80 12ZM204 -260C204 -299.1929016113281 235.80714416503906 -331 275 -331C314.1929016113281 -331 346 -299.19285583496094 346 -260C346 -220.80709838867188 314.19285583496094 -189 275 -189C235.80709838867188 -189 204 -220.80714416503906 204 -260Z"/>
</svg>