<svg xmlns="http://www.w3.org/2000/svg" viewBox="0 -1000 1000 1000">
	<path fill="#000000" d="M115.40206909179688 -454.497314453125C143.7065887451172 -472.47137451171875 174.69192504882812 -482 209.25 -482C316.4759979248047 -482 391.25 -396.7214813232422 391.25 -260C391.25 -123.27857971191406 316.47454833984375 -38 209.25 -38C174.63304138183594 -38 142.55238342285156 -48.261566162109375 115.40206909179688 -65.502685546875C162.17526245117188 -91.38279724121094 234.25 -149.49708557128906 234.25 -260C234.25 -371.09373474121094 160.6923828125 -429.43768310546875 115.40206909179688 -454.497314453125ZM50.32232666015625 -465.92767333984375C49.546295166015625 -465.15162658691406 45.94709777832031 -460.5183868408203 44.699798583984375 -457.31092834472656C39.76445007324219 -444.6196594238281 45.58427429199219 -430.14320373535156 59.74223327636719 -424.63746643066406C65.74826049804688 -422.77215576171875 184.25 -384.4130401611328 184.25 -260C184.25 -136.1116180419922 66.16535949707031 -97.35737609863281 60.37603759765625 -95.55938720703125C60.19502258300781 -95.50056457519531 54.23895263671875 -92.8741455078125 51.763763427734375 -90.76011657714844C40.83644104003906 -81.42726135253906 40.160919189453125 -64.23373413085938 50.32232666015625 -54.07232666015625C91.01730346679688 -13.377365112304688 147.3367919921875 12 209.25 12C350.02545166015625 12 441.25 -104.72142028808594 441.25 -260C441.25 -415.2785186767578 350.0240020751953 -532 209.25 -532C147.33670043945312 -532 91.01734924316406 -506.6226806640625 50.32232666015625 -465.92767333984375Z"/>
</svg>