<svg xmlns="http://www.w3.org/2000/svg" viewBox="0 -1000 1000 1000">
	<path fill="#000000" d="M55 -260V183C55 196.61712646484375 66.38287353515625 208 80 208C93.61712646484375 208 105 196.61712646484375 105 183V-82.35658264160156C144.73460388183594 -23.943283081054688 206.00987243652344 12.000015258789062 281 12.000015258789062C422.4217987060547 12.000015258789062 507 -105.70460510253906 507 -259.99998474121094C507 -414.29530334472656 422.4213104248047 -531.9999847412109 281 -531.9999847412109C145.66476440429688 -531.9999847412109 55 -414.92279052734375 55 -259.99998474121094ZM105 -259.99998474121094C105 -397.0771789550781 180.33523559570312 -481.99998474121094 281 -481.99998474121094C387.5786895751953 -481.99998474121094 457 -397.7046661376953 457 -259.99998474121094C457 -122.29536437988281 387.5782012939453 -37.99998474121094 281 -37.99998474121094C180.33404541015625 -37.99998474121094 105 -122.91044616699219 105 -259.99998474121094Z"/>
</svg>