<svg xmlns="http://www.w3.org/2000/svg" viewBox="0 -1000 1000 1000">
	<path fill="#000000" d="M105 -666H445V-535C445 -442.36737060546875 385.2565460205078 -370 276 -370C165.42214965820312 -370 105 -441.6328430175781 105 -535ZM55 -691V-535C55 -423.78550720214844 128.4520721435547 -332.1391296386719 250.8590545654297 -321.1123352050781L250.13980102539062 -198.8385467529297C124.99891662597656 -186.87950134277344 55 -83.55909729003906 55 65.00001525878906V119.21699523925781C30.082473754882812 98.72607421875 -0.9768829345703125 72.80992126464844 -0.9768829345703125 72.80992126464844C-11.429443359375 64.08236694335938 -27.462539672851562 65.52433776855469 -36.190093994140625 75.97689819335938C-44.91764831542969 86.42945861816406 -43.475677490234375 102.46255493164062 -33.02311706542969 111.19010925292969C-31.31036376953125 112.62020874023438 50.07456970214844 190.531982421875 74.99909973144531 195.54258728027344C76.95256042480469 195.93528747558594 105 194.89071655273438 105 171.00001525878906V65.00001525878906C105 -76.93388366699219 167.694580078125 -149.99998474121094 275 -149.99998474121094C382.3019104003906 -149.99998474121094 445 -76.90452575683594 445 65.00001525878906V171.00001525878906C445 184.6171417236328 456.38287353515625 196.00001525878906 470 196.00001525878906C483.61712646484375 196.00001525878906 495 184.6171417236328 495 171.00001525878906V65.00001525878906C495 -83.41909790039062 425.1084747314453 -186.72186279296875 300.1405029296875 -198.8113250732422L300.85992431640625 -321.1128387451172C422.65106201171875 -332.2130432128906 495 -424.9276428222656 495 -534.9999847412109V-690.9999847412109C495 -706.1325225830078 480.7299041748047 -715.9999847412109 470 -715.9999847412109H80C64.86746215820312 -715.9999847412109 55 -701.7298889160156 55 -690.9999847412109Z"/>
</svg>