<svg xmlns="http://www.w3.org/2000/svg" viewBox="0 -1000 1000 1000">
	<path fill="#000000" d="M204 -260C204 -299.1929016113281 235.80714416503906 -331 275 -331C314.1929016113281 -331 346 -299.19285583496094 346 -260C346 -220.80709838867188 314.19285583496094 -189 275 -189C235.80709838867188 -189 204 -220.80714416503906 204 -260ZM154 -260C154 -193.19285583496094 208.19290161132812 -139 275 -139C341.80714416503906 -139 396 -193.19290161132812 396 -260C396 -326.80714416503906 341.8070983886719 -381 275 -381C208.19285583496094 -381 154 -326.8070983886719 154 -260ZM80 12C93.61712646484375 12 105 0.61712646484375 105 -13V-260C105 -397.52354431152344 167.37205505371094 -470 275 -470C382.6427459716797 -470 445 -397.51202392578125 445 -260V-13C445 0.61712646484375 456.38287353515625 12 470 12C483.61712646484375 12 495 0.61712646484375 495 -13V-260C495 -414.48797607421875 415.38951110839844 -520 275 -520C134.62794494628906 -520 55 -414.5038604736328 55 -260V-13C55 0.61712646484375 66.38287353515625 12 80 12Z"/>
</svg>