<svg xmlns="http://www.w3.org/2000/svg" viewBox="0 -1000 1000 1000">
	<path fill="#000000" d="M424 -495C424 -508.61712646484375 412.61712646484375 -520 399 -520H80C64.86746215820312 -520 55 -505.7299041748047 55 -495V-260V-25C55 -10.740951538085938 67.606689453125 -0.07720947265625 79.84326171875 -0.00048828125L398.84326171875 1.99951171875C412.4601287841797 2.0848846435546875 423.9141387939453 -9.226394653320312 423.99951171875 -22.84326171875C424.0848846435547 -36.46012878417969 412.7736053466797 -47.91413879394531 399.15673828125 -47.99951171875L105 -49.84375V-235H275C288.61712646484375 -235 300 -246.38287353515625 300 -260C300 -273.61712646484375 288.61712646484375 -285 275 -285H105V-470H399C412.61712646484375 -470 424 -481.38287353515625 424 -495Z"/>
</svg>