<svg xmlns="http://www.w3.org/2000/svg" viewBox="0 -1000 1000 1000">
	<path fill="#000000" d="M400 -532C386.38287353515625 -532 375 -520.6171264648438 375 -507V-13C375 0.61712646484375 386.38287353515625 12 400 12C413.61712646484375 12 425 0.61712646484375 425 -13V-507C425 -520.6171264648438 413.61712646484375 -532 400 -532ZM240 -532C226.38287353515625 -532 215 -520.6171264648438 215 -507V-13C215 0.61712646484375 226.38287353515625 12 240 12C253.61712646484375 12 265 0.61712646484375 265 -13V-507C265 -520.6171264648438 253.61712646484375 -532 240 -532ZM80 -532C66.38287353515625 -532 55 -520.6171264648438 55 -507V-13C55 0.61712646484375 66.38287353515625 12 80 12C93.61712646484375 12 105 0.61712646484375 105 -13V-507C105 -520.6171264648438 93.61712646484375 -532 80 -532Z"/>
</svg>