<svg xmlns="http://www.w3.org/2000/svg" viewBox="0 -1000 1000 1000">
	<path fill="#000000" d="M715.7032012939453 10.78363037109375C728.6578063964844 6.587799072265625 735.9794616699219 -7.7486114501953125 731.7836456298828 -20.703201293945312L571.7836456298828 -514.7032012939453C567.355712890625 -528.3744201660156 551.7362365722656 -535.5928344726562 538.4545745849609 -530.10595703125C531.6340026855469 -527.2882690429688 526.2982025146484 -521.1308135986328 524.2163848876953 -514.7032165527344L388.00001525878906 -94.13514709472656L251.7836456298828 -514.7032165527344C247.355712890625 -528.3744354248047 231.73623657226562 -535.5928497314453 218.45457458496094 -530.1059722900391C211.63400268554688 -527.2882843017578 206.29820251464844 -521.1308288574219 204.2163848876953 -514.7032318115234L44.21638488769531 -20.703231811523438C40.02056884765625 -7.7486572265625 47.34222412109375 6.5877532958984375 60.29681396484375 10.783584594726562C73.25140380859375 14.979400634765625 87.58781433105469 7.657745361328125 91.78364562988281 -5.296844482421875L228.00001525878906 -425.8649139404297L364.2163848876953 -5.296844482421875C365.5716857910156 -1.1123504638671875 371.1920166015625 7.105621337890625 378.45457458496094 10.105911254882812C391.7362365722656 15.592788696289062 407.355712890625 8.374374389648438 411.7836456298828 -5.2968292236328125L548.0000152587891 -425.8648986816406L684.2163848876953 -5.2968292236328125C688.4122161865234 7.65777587890625 702.7486267089844 14.97943115234375 715.7032165527344 10.783615112304688Z"/>
</svg>