<svg xmlns="http://www.w3.org/2000/svg" viewBox="0 -1000 1000 1000">
	<path fill="#000000" d="M88.64366149902344 -632.9459075927734C74.48393249511719 -633.8788604736328 63.667327880859375 -622.5010223388672 62.105743408203125 -610.427490234375C62.105743408203125 -610.427490234375 49.643585205078125 -502.3412322998047 114.72601318359375 -463.9038543701172C69.02543640136719 -414.87623596191406 43.00001525878906 -342.9380187988281 43.00001525878906 -259.99998474121094C43.00001525878906 -104.72166442871094 134.22560119628906 12.000015258789062 275.00001525878906 12.000015258789062C415.77540588378906 12.000015258789062 507.00001525878906 -104.72166442871094 507.00001525878906 -259.99998474121094C507.00001525878906 -342.81846618652344 481.0492858886719 -414.6688232421875 435.47113037109375 -463.6916961669922C489.9532470703125 -499.82823181152344 486.0122985839844 -605.947265625 486.0122985839844 -605.947265625C485.655517578125 -618.1161193847656 476.0203399658203 -630.5103607177734 461.8378601074219 -630.9859466552734C448.22837829589844 -631.4423065185547 436.4704132080078 -620.4473114013672 436.01405334472656 -606.8378295898438C435.6713104248047 -596.6166839599609 422.73463439941406 -503.9516296386719 397.0323944091797 -501.9224395751953C394.80165100097656 -501.74632263183594 392.65525817871094 -501.2685241699219 390.63047790527344 -500.53271484375C357.7052459716797 -520.7290802001953 318.7449035644531 -531.9999847412109 275.00001525878906 -531.9999847412109C231.2615966796875 -531.9999847412109 192.3064422607422 -520.7325744628906 159.38441467285156 -500.54209899902344C158.08859252929688 -501.0103302001953 156.73924255371094 -501.3734588623047 155.34471130371094 -501.61956787109375C112.82273864746094 -509.12353515625 111.32269287109375 -596.8974914550781 111.9459228515625 -606.3563232421875C112.84120178222656 -619.9440002441406 102.23133850097656 -632.0506134033203 88.6436767578125 -632.9458923339844ZM93.00001525878906 -259.99998474121094C93.00001525878906 -396.72166442871094 167.77540588378906 -481.99998474121094 275.00001525878906 -481.99998474121094C382.22560119628906 -481.99998474121094 457.00001525878906 -396.72166442871094 457.00001525878906 -259.99998474121094C457.00001525878906 -123.27830505371094 382.22462463378906 -37.99998474121094 275.00001525878906 -37.99998474121094C167.77442932128906 -37.99998474121094 93.00001525878906 -123.27830505371094 93.00001525878906 -259.99998474121094Z"/>
</svg>