<svg xmlns="http://www.w3.org/2000/svg" viewBox="0 -1000 1000 1000">
	<path fill="#000000" d="M125 -250C125 -352.7202606201172 207.77137756347656 -445 307 -445C414.4722595214844 -445 495 -359.3343048095703 495 -250C495 -141.26527404785156 416.0561981201172 -55 310 -55C209.35177612304688 -55 125 -146.6826171875 125 -250ZM75 -250V100C75 113.61712646484375 86.38287353515625 125 100 125C113.61712646484375 125 125 113.61712646484375 125 100V-101.05430603027344C167.75852966308594 -43.65557861328125 234.2755889892578 -4.9999847412109375 310 -4.9999847412109375C445.9438018798828 -4.9999847412109375 545 -116.72645568847656 545 -249.99998474121094C545 -384.67388916015625 443.5277404785156 -494.99998474121094 307 -494.99998474121094C176.22862243652344 -494.99998474121094 75 -377.2884216308594 75 -249.99998474121094Z"/>
</svg>