<svg xmlns="http://www.w3.org/2000/svg" viewBox="0 -1000 1000 1000">
	<path fill="#000000" d="M218 -728C204.38287353515625 -728 193 -716.6171264648438 193 -703V-431.79673767089844L49.65599060058594 -276.9851989746094C40.4044189453125 -266.9934844970703 41.023101806640625 -250.90756225585938 51.01481628417969 -241.65599060058594C61.00653076171875 -232.40440368652344 77.09245300292969 -233.02308654785156 86.34402465820312 -243.01480102539062L193.00001525878906 -358.20326232910156V-13C193.00001525878906 0.61712646484375 204.3828887939453 12 218.00001525878906 12C231.6171417236328 12 243.00001525878906 0.61712646484375 243.00001525878906 -13V-358.20326232910156L349.656005859375 -243.01480102539062C358.9075927734375 -233.02308654785156 374.99351501464844 -232.40440368652344 384.9852294921875 -241.65599060058594C394.97694396972656 -250.90756225585938 395.5956268310547 -266.9934844970703 386.3440399169922 -276.9851989746094L243.00003051757812 -431.79673767089844V-703C243.00003051757812 -716.6171264648438 231.61715698242188 -728 218.00003051757812 -728Z"/>
</svg>