<svg xmlns="http://www.w3.org/2000/svg" viewBox="0 -1000 1000 1000">
	<path fill="#000000" d="M195 -532C181.38287353515625 -532 170 -520.6171264648438 170 -507V-370H68C54.38287353515625 -370 43 -358.61712646484375 43 -345C43 -331.38287353515625 54.38287353515625 -320 68 -320H170V-187H68C54.38287353515625 -187 43 -175.61712646484375 43 -162C43 -148.38287353515625 54.38287353515625 -137 68 -137H170V-13C170 0.61712646484375 181.38287353515625 12 195 12C208.61712646484375 12 220 0.61712646484375 220 -13V-137H330V-13C330 0.61712646484375 341.38287353515625 12 355 12C368.61712646484375 12 380 0.61712646484375 380 -13V-137H482C495.61712646484375 -137 507 -148.38287353515625 507 -162C507 -175.61712646484375 495.61712646484375 -187 482 -187H380V-320H482C495.61712646484375 -320 507 -331.38287353515625 507 -345C507 -358.61712646484375 495.61712646484375 -370 482 -370H380V-507C380 -520.6171264648438 368.61712646484375 -532 355 -532C341.38287353515625 -532 330 -520.6171264648438 330 -507V-370H220V-507C220 -520.6171264648438 208.61712646484375 -532 195 -532ZM330 -320V-187H220V-320Z"/>
</svg>