<svg xmlns="http://www.w3.org/2000/svg" viewBox="0 -1000 1000 1000">
	<path fill="#000000" d="M45 -25C45 -11.38287353515625 56.38287353515625 0 70 0H215C229.3704071044922 0 241.05039978027344 -12.63531494140625 239.92294311523438 -26.96142578125C239.68829345703125 -29.943038940429688 238.16748046875 -34.50743103027344 237.53672790527344 -35.82109069824219C237.53672790527344 -35.82109069824219 93 -341.8872375488281 93 -477C93 -611.5652160644531 164.6564178466797 -678 275 -678C386.46295166015625 -678 457 -611.6856536865234 457 -477C457 -341.8871307373047 312.46327209472656 -35.82109069824219 312.46327209472656 -35.82109069824219C306.2431335449219 -22.866607666015625 312.577880859375 -6.86834716796875 325.9804382324219 -1.683746337890625C328.7698211669922 -0.6047210693359375 333.5427703857422 0 335 0H482C495.61712646484375 0 507 -11.38287353515625 507 -25C507 -38.61712646484375 495.61712646484375 -50 482 -50H374.1125946044922C412.1892547607422 -134.22454833984375 507.00001525878906 -351.2763366699219 507.00001525878906 -477C507.00001525878906 -634.3143463134766 413.8241729736328 -728 275.00001525878906 -728C137.34359741210938 -728 43.00001525878906 -634.4347839355469 43.00001525878906 -477C43.00001525878906 -351.24620056152344 136.9485626220703 -136.1317138671875 175.88742065429688 -50H70.00001525878906C56.38288879394531 -50 45.00001525878906 -38.61712646484375 45.00001525878906 -25Z"/>
</svg>