<svg xmlns="http://www.w3.org/2000/svg" viewBox="0 -1000 1000 1000">
	<path fill="#000000" d="M50.32232666015625 -180.67767333984375C40.693572998046875 -171.0489044189453 40.693572998046875 -154.9510955810547 50.32232666015625 -145.32232666015625L200.32232666015625 4.67767333984375C202.19183349609375 6.5471649169921875 204.2993621826172 8.049850463867188 206.5521697998047 9.189361572265625C215.94503784179688 13.945114135742188 227.91412353515625 12.44122314453125 235.67767333984375 4.67767333984375L385.67767333984375 -145.32232666015625C395.3064270019531 -154.9510955810547 395.3064270019531 -171.0489044189453 385.67767333984375 -180.67767333984375C376.0489044189453 -190.30642700195312 359.9510955810547 -190.30642700195312 350.32232666015625 -180.67767333984375L243 -73.3553466796875V-507C243 -520.6171264648438 231.61712646484375 -532 218 -532C204.38287353515625 -532 193 -520.6171264648438 193 -507V-73.3553466796875L85.67767333984375 -180.67767333984375C76.04890441894531 -190.30642700195312 59.95109558105469 -190.30642700195312 50.32232666015625 -180.67767333984375Z"/>
</svg>