<svg xmlns="http://www.w3.org/2000/svg" viewBox="0 -1000 1000 1000">
	<path fill="#000000" d="M80 -532C66.38287353515625 -532 55 -520.6171264648438 55 -507V-25C55 -9.867462158203125 69.27009582519531 0 80 0H275C404.14971923828125 0 507 -44.814239501953125 507 -199C507 -254.37159729003906 476.7258758544922 -370 364 -370C265.1572723388672 -370 250.828369140625 -291.77630615234375 250.12274169921875 -286.5960388183594C249.07455444335938 -272.1738586425781 258.7081756591797 -260.9883270263672 271.6257629394531 -259.228759765625C284.5097198486328 -257.4737548828125 297.1236267089844 -267.1932830810547 299.29637145996094 -278.01097106933594C300.53199768066406 -284.66957092285156 304.5207214355469 -320 364 -320C431.2741241455078 -320 457 -247.62840270996094 457 -199C457 -79.18576049804688 393.85028076171875 -50 275 -50H105V-507C105 -520.6171264648438 93.61712646484375 -532 80 -532Z"/>
</svg>