<svg xmlns="http://www.w3.org/2000/svg" viewBox="0 -1000 1000 1000">
	<path fill="#000000" d="M275 -30C288.61712646484375 -30 300 -41.38287353515625 300 -55V-155C300 -168.61712646484375 288.61712646484375 -180 275 -180C261.38287353515625 -180 250 -168.61712646484375 250 -155V-55C250 -41.38287353515625 261.38287353515625 -30 275 -30ZM275 -360C288.61712646484375 -360 300 -371.38287353515625 300 -385V-485C300 -498.61712646484375 288.61712646484375 -510 275 -510C261.38287353515625 -510 250 -498.61712646484375 250 -485V-385C250 -371.38287353515625 261.38287353515625 -360 275 -360ZM357 -260C357 -246.38287353515625 368.38287353515625 -235 382 -235H482C495.61712646484375 -235 507 -246.38287353515625 507 -260C507 -273.61712646484375 495.61712646484375 -285 482 -285H382C368.38287353515625 -285 357 -273.61712646484375 357 -260ZM43 -260C43 -246.38287353515625 54.38287353515625 -235 68 -235H168C181.61712646484375 -235 193 -246.38287353515625 193 -260C193 -273.61712646484375 181.61712646484375 -285 168 -285H68C54.38287353515625 -285 43 -273.61712646484375 43 -260Z"/>
</svg>