<svg xmlns="http://www.w3.org/2000/svg" viewBox="0 -1000 1000 1000">
	<path fill="#000000" d="M444.1443328857422 -460.66143798828125C451.7155456542969 -472.663330078125 446.87135314941406 -487.5960998535156 437.0029754638672 -494.7252197265625C432.05224609375 -497.8482971191406 376.5440368652344 -532 275.00001525878906 -532C134.22601318359375 -532 43.00001525878906 -415.2785186767578 43.00001525878906 -260C43.00001525878906 -106.741455078125 134.03732299804688 12 275.00001525878906 12C414.9029235839844 12 507.00001525878906 -101.5501708984375 507.00001525878906 -220C507.00001525878906 -343.4517517089844 390.0686798095703 -394 297.00001525878906 -394C202.22630310058594 -394 157.14288330078125 -327.31675720214844 156.10308837890625 -253.51255798339844C155.23951721191406 -192.25445556640625 211.58143615722656 -139.6806640625 277.40040588378906 -139.6806640625C349.9033966064453 -139.6806640625 371.1269989013672 -208.1013641357422 371.67018127441406 -209.73435974121094C375.3636932373047 -223.71510314941406 367.9613494873047 -236.48719787597656 355.5908660888672 -240.6019744873047C343.2279357910156 -244.71424865722656 329.50624084472656 -238.5857696533203 324.39039611816406 -225.9227294921875C322.3823547363281 -220.33602905273438 309.8124084472656 -189.6806640625 277.40040588378906 -189.6806640625C236.81898498535156 -189.6806640625 205.68629455566406 -223.59515380859375 206.09811401367188 -252.80775451660156C206.85714721679688 -306.68324279785156 231.5745086669922 -344 297.00001525878906 -344C378.7321319580078 -344 457.00001525878906 -302.5873107910156 457.00001525878906 -220C457.00001525878906 -126.4498291015625 385.09710693359375 -38 275.00001525878906 -38C167.96270751953125 -38 93.00001525878906 -125.196044921875 93.00001525878906 -260C93.00001525878906 -396.7214813232422 167.77401733398438 -482 275.00001525878906 -482C361.50828552246094 -482 407.1451873779297 -454.38458251953125 410.55210876464844 -452.3129425048828C420.8222198486328 -446.7030029296875 436.5756378173828 -448.6634979248047 444.14434814453125 -460.66143798828125Z"/>
</svg>