<svg xmlns="http://www.w3.org/2000/svg" viewBox="0 -1000 1000 1000">
	<path fill="#000000" d="M55 -495V-25C55 -22.31640625 55.44921875 -19.798828125 56.2470703125 -17.4716796875C57.6279296875 -13.0146484375 60.2431640625 -8.908203125 64.0361328125 -5.7607421875C67.6904296875 -2.728515625 72.01953125 -0.9345703125 76.4775390625 -0.3291015625C77.6767578125 -0.111328125 78.8583984375 0 80 0H470C485.1328125 0 495 -14.2705078125 495 -25V-495C495 -497.68359375 494.55078125 -500.201171875 493.7529296875 -502.5283203125C492.3720703125 -506.9853515625 489.7568359375 -511.091796875 485.9638671875 -514.2392578125C482.3095703125 -517.271484375 477.98046875 -519.0654296875 473.5224609375 -519.6708984375C472.3232421875 -519.888671875 471.1416015625 -520 470 -520H80C64.8671875 -520 55 -505.7294921875 55 -495ZM105 -94.2783203125V-470H416.76953125ZM133.23046875 -50L445 -425.7216796875V-50Z"/>
</svg>