<svg xmlns="http://www.w3.org/2000/svg" viewBox="0 -1000 1000 1000">
	<path fill="#000000" d="M121 -260C121 -168.5408477783203 152.75045776367188 -95.17887878417969 206.8954315185547 -50H63C49.38287353515625 -50 38 -38.61712646484375 38 -25C38 -11.38287353515625 49.38287353515625 0 63 0H353C492.04383850097656 0 585 -103.50834655761719 585 -260C585 -415.2785186767578 493.7740020751953 -532 353 -532C212.22454833984375 -532 121 -415.27857971191406 121 -260ZM353 -50C244.0438690185547 -50 171 -124.49163818359375 171 -260C171 -396.72142028808594 245.77545166015625 -482 353 -482C460.2259979248047 -482 535 -396.7214813232422 535 -260C535 -124.49165344238281 461.95616149902344 -50 353 -50Z"/>
</svg>