<svg xmlns="http://www.w3.org/2000/svg" viewBox="0 -1000 1000 1000">
	<path fill="#000000" d="M93 -109C93 -148.19290161132812 124.80714416503906 -180 164 -180C203.19290161132812 -180 235 -148.19285583496094 235 -109C235 -69.80709838867188 203.19285583496094 -38 164 -38C124.80709838867188 -38 93 -69.80714416503906 93 -109ZM162.91722106933594 -531.9998626708984C149.30018615722656 -531.9547576904297 137.95506286621094 -520.5342559814453 138.00015258789062 -506.9172058105469L138.92572021484375 -227.39666748046875C84.14352416992188 -215.84446716308594 43.000030517578125 -167.21060180664062 43.000030517578125 -109C43.000030517578125 -42.19285583496094 97.19293212890625 12 164.00003051757812 12C230.8071746826172 12 285.0000305175781 -42.192901611328125 285.0000305175781 -109C285.0000305175781 -167.26321411132812 243.78216552734375 -215.93228149414062 188.9259033203125 -227.42787170410156L187.99989318847656 -507.08277893066406C187.9547882080078 -520.6998138427734 176.53428649902344 -532.0449371337891 162.917236328125 -531.9998474121094Z"/>
</svg>