<svg xmlns="http://www.w3.org/2000/svg" viewBox="0 -1000 1000 1000">
	<path fill="#000000" d="M254.28286743164062 0.9928741455078125C255.60342407226562 2.948028564453125 258.2586975097656 5.8270111083984375 260.8279266357422 7.594970703125C272.6662292480469 15.741317749023438 289.45094299316406 11.95355224609375 296.64337158203125 -0.4874114990234375C366.9952392578125 -122.17713928222656 507 -251.9420928955078 507 -382.99998474121094C507 -418.008056640625 498.81201171875 -449.1798400878906 483.013671875 -473.84771728515625C495.4326934814453 -499.60740661621094 500 -537.2237701416016 500 -578.9999847412109C500 -662.8774871826172 458.87831115722656 -727.9999847412109 367 -727.9999847412109C318.07273864746094 -727.9999847412109 288.19281005859375 -701.1555023193359 270.7221374511719 -674.3746795654297C252.2661895751953 -697.1129302978516 218.7073974609375 -727.9999847412109 171 -727.9999847412109C85.06280517578125 -727.9999847412109 50 -661.6316833496094 50 -578.9999847412109C50 -538.7418975830078 62.898468017578125 -505.3822479248047 71.91232299804688 -485.2320098876953C52.75126647949219 -459.0962829589844 43 -423.6197967529297 43 -382.99998474121094C43 -256.4481201171875 148.8451385498047 -155.1128387451172 254.28286743164062 0.992889404296875ZM273.8068389892578 -58.829803466796875C171.82955932617188 -204.38931274414062 92.99998474121094 -292.0686798095703 92.99998474121094 -382.9999694824219C92.99998474121094 -452.9623565673828 119.25160217285156 -481.9999694824219 170.99998474121094 -481.9999694824219C217.72134399414062 -481.9999694824219 249.87718200683594 -419.904052734375 252.57583618164062 -413.9121551513672C259.80552673339844 -400.5054473876953 274.8805389404297 -396.53224182128906 286.8660430908203 -402.99549865722656C293.3966064453125 -406.51715087890625 298.1441345214844 -413.7948303222656 299.39605712890625 -419.5363311767578C300.81690979003906 -426.26341247558594 315.1077880859375 -481.9999694824219 366.99998474121094 -481.9999694824219C428.5315399169922 -481.9999694824219 456.99998474121094 -448.89654541015625 456.99998474121094 -382.9999694824219C456.99998474121094 -293.1268768310547 351.6533508300781 -179.1837615966797 273.80682373046875 -58.82978820800781ZM112.00338745117188 -519.1772766113281C105.73922729492188 -535.5918121337891 100 -556.10693359375 100 -578.9999694824219C100 -650.485107421875 120.93719482421875 -677.9999694824219 171 -677.9999694824219C217.7213592529297 -677.9999694824219 249.877197265625 -615.904052734375 252.5758514404297 -609.9121551513672C259.8055419921875 -596.5054473876953 274.88055419921875 -592.5322418212891 286.8660583496094 -598.9954986572266C293.39662170410156 -602.5171508789062 298.14414978027344 -609.7948303222656 299.3960723876953 -615.5363311767578C300.8169250488281 -622.2634124755859 315.10780334472656 -677.9999694824219 367 -677.9999694824219C427.12168884277344 -677.9999694824219 450 -647.1224670410156 450 -578.9999694824219C450 -553.0516967773438 446.88514709472656 -529.2347717285156 443.10302734375 -512.7454681396484C422.4336242675781 -525.1012115478516 396.9618682861328 -531.9999694824219 367 -531.9999694824219C318.07273864746094 -531.9999694824219 288.19281005859375 -505.1554870605469 270.7221374511719 -478.3746643066406C252.2661895751953 -501.1129150390625 218.7073974609375 -531.9999694824219 171 -531.9999694824219C148.39889526367188 -531.9999694824219 128.7124786376953 -527.4690704345703 112.00340270996094 -519.1772766113281Z"/>
</svg>