<svg xmlns="http://www.w3.org/2000/svg" viewBox="0 -1000 1000 1000">
	<path fill="#000000" d="M291.0579528808594 -526.1609497070312C280.62127685546875 -534.9074859619141 264.58558654785156 -533.4946441650391 255.83905029296875 -523.0579528808594L48.83905029296875 -276.0579528808594C40.793304443359375 -266.4574737548828 41.9140625 -252.2052001953125 48.83905029296875 -243.94204711914062L255.83905029296875 3.057952880859375C264.58558654785156 13.494644165039062 280.62127685546875 14.907485961914062 291.0579528808594 6.16094970703125C301.49464416503906 -2.5855865478515625 302.90748596191406 -18.62127685546875 294.16094970703125 -29.057952880859375L100.61842346191406 -260L294.16094970703125 -490.9420471191406C302.90748596191406 -501.37872314453125 301.49464416503906 -517.4144134521484 291.0579528808594 -526.1609497070312ZM247 -260C247 -237.3779296875 265.3779296875 -219 288 -219C310.6220703125 -219 329 -237.3779296875 329 -260C329 -282.6220703125 310.6220703125 -301 288 -301C265.3779296875 -301 247 -282.6220703125 247 -260Z"/>
</svg>