<svg xmlns="http://www.w3.org/2000/svg" viewBox="0 -1000 1000 1000">
	<path fill="#000000" d="M275 -678C394.7187042236328 -678 457 -601.1361694335938 457 -525C457 -434.85809326171875 395.8659973144531 -370 276 -370C154.82421875 -370 93 -434.0817413330078 93 -525C93 -602.375244140625 155.1362762451172 -678 275 -678ZM275 -728C131.60218811035156 -728 43 -632.156005859375 43 -525C43 -411.2248992919922 123.3416748046875 -330.26336669921875 250.8578338623047 -320.90647888183594L250.13978576660156 -198.8385467529297C124.9989013671875 -186.87950134277344 54.99998474121094 -83.55909729003906 54.99998474121094 65.00001525878906V119.21699523925781C30.08245849609375 98.72607421875 -0.976898193359375 72.80992126464844 -0.976898193359375 72.80992126464844C-11.429458618164062 64.08236694335938 -27.462554931640625 65.52433776855469 -36.19010925292969 75.97689819335938C-44.91766357421875 86.42945861816406 -43.47569274902344 102.46255493164062 -33.02313232421875 111.19010925292969C-31.310379028320312 112.62020874023438 50.074554443359375 190.531982421875 74.99908447265625 195.54258728027344C76.95254516601562 195.93528747558594 104.99998474121094 194.89071655273438 104.99998474121094 171.00001525878906V65.00001525878906C104.99998474121094 -76.93388366699219 167.69456481933594 -149.99998474121094 274.99998474121094 -149.99998474121094C382.30189514160156 -149.99998474121094 444.99998474121094 -76.90452575683594 444.99998474121094 65.00001525878906V171.00001525878906C444.99998474121094 184.6171417236328 456.3828582763672 196.00001525878906 469.99998474121094 196.00001525878906C483.6171112060547 196.00001525878906 494.99998474121094 184.6171417236328 494.99998474121094 171.00001525878906V65.00001525878906C494.99998474121094 -83.41909790039062 425.10845947265625 -186.72186279296875 300.14048767089844 -198.8113250732422L300.85870361328125 -320.9073028564453C427.7782897949219 -330.3343200683594 507 -412.32810974121094 507 -524.9999847412109C507 -630.8638153076172 418.54283142089844 -727.9999847412109 275 -727.9999847412109Z"/>
</svg>