<svg xmlns="http://www.w3.org/2000/svg" viewBox="0 -1000 1000 1000">
	<path fill="#000000" d="M43 -495C43 -481.38287353515625 54.38287353515625 -470 68 -470H183V-50H68C54.38287353515625 -50 43 -38.61712646484375 43 -25C43 -11.38287353515625 54.38287353515625 0 68 0H208H348C361.61712646484375 0 373 -11.38287353515625 373 -25C373 -38.61712646484375 361.61712646484375 -50 348 -50H233V-470H348C361.61712646484375 -470 373 -481.38287353515625 373 -495C373 -508.61712646484375 361.61712646484375 -520 348 -520H208H68C54.38287353515625 -520 43 -508.61712646484375 43 -495Z"/>
</svg>