<svg xmlns="http://www.w3.org/2000/svg" viewBox="0 -1000 1000 1000">
	<path fill="#000000" d="M105 -470H240.8740234375L177.1630859375 -268.5380859375C172.830078125 -254.8369140625 181.3564453125 -239.890625 195.35546875 -236.6455078125C197.1787109375 -236.22265625 199.5595703125 -236 201 -236H314.9609375L256.638671875 -50H105ZM55 -495V-25C55 -9.8671875 69.2705078125 0 80 0H470C485.1328125 0 495 -14.2705078125 495 -25V-495C495 -510.1328125 480.7294921875 -520 470 -520H80C64.8671875 -520 55 -505.7294921875 55 -495ZM309.0390625 -50L372.8544921875 -253.5205078125C377.701171875 -268.9755859375 365.8583984375 -286 349 -286H235.1259765625L293.314453125 -470H445V-50Z"/>
</svg>