<svg xmlns="http://www.w3.org/2000/svg" viewBox="0 -1000 1000 1000">
	<path fill="#000000" d="M218 -532C204.38287353515625 -532 193 -520.6171264648438 193 -507V-370H68C54.38287353515625 -370 43 -358.61712646484375 43 -345C43 -331.38287353515625 54.38287353515625 -320 68 -320H193V-200H68C54.38287353515625 -200 43 -188.61712646484375 43 -175C43 -161.38287353515625 54.38287353515625 -150 68 -150H193V-13C193 0.61712646484375 204.38287353515625 12 218 12C231.61712646484375 12 243 0.61712646484375 243 -13V-150H368C381.61712646484375 -150 393 -161.38287353515625 393 -175C393 -188.61712646484375 381.61712646484375 -200 368 -200H243V-320H368C381.61712646484375 -320 393 -331.38287353515625 393 -345C393 -358.61712646484375 381.61712646484375 -370 368 -370H243V-507C243 -520.6171264648438 231.61712646484375 -532 218 -532ZM77 -650C77 -627.3779296875 95.3779296875 -609 118 -609C140.6220703125 -609 159 -627.3779296875 159 -650C159 -672.6220703125 140.6220703125 -691 118 -691C95.3779296875 -691 77 -672.6220703125 77 -650ZM268 -650C268 -627.3779296875 286.3779296875 -609 309 -609C331.6220703125 -609 350 -627.3779296875 350 -650C350 -672.6220703125 331.6220703125 -691 309 -691C286.3779296875 -691 268 -672.6220703125 268 -650Z"/>
</svg>