<svg xmlns="http://www.w3.org/2000/svg" viewBox="0 -1000 1000 1000">
	<path fill="#000000" d="M251.9424591064453 -516.6617584228516L44.94245910644531 -22.661758422851562C39.38873291015625 -9.40789794921875 46.52833557128906 6.2477569580078125 60.17706298828125 10.744522094726562C62.68559265136719 11.57098388671875 65.55116271972656 12.000015258789062 68.00001525878906 12.000015258789062H482.00001525878906C496.37042236328125 12.000015258789062 508.0504150390625 -0.6352996826171875 506.92295837402344 -14.961410522460938C506.7157287597656 -17.594436645507812 506.00396728515625 -20.403167724609375 505.05755615234375 -22.6617431640625L298.05755615234375 -516.6617431640625C292.50379943847656 -529.9155883789062 276.3362579345703 -535.8048858642578 263.5589904785156 -529.2284088134766C258.30455017089844 -526.5239410400391 253.98193359375 -521.5289001464844 251.9424591064453 -516.6617279052734ZM206.56240844726562 -278.98748779296875L247.18923950195312 -195.62335205078125L170.37278747558594 -37.999969482421875H105.58181762695312ZM324.0056915283203 -37.999969482421875H225.9943084716797L275 -138.55709838867188ZM379.6272277832031 -37.999969482421875L302.81077575683594 -195.62335205078125L343.43760681152344 -278.98748779296875L444.418212890625 -37.999969482421875ZM232.27500915527344 -340.34986877441406L275.0000305175781 -442.3119812011719L317.7250518798828 -340.34986877441406C317.6578674316406 -340.21812438964844 317.5917510986328 -340.0855407714844 317.5267333984375 -339.95213317871094L275.0000457763672 -252.6895751953125L232.47335815429688 -339.95213317871094C232.40835571289062 -340.0855407714844 232.3422393798828 -340.21812438964844 232.27503967285156 -340.349853515625Z"/>
</svg>