<svg xmlns="http://www.w3.org/2000/svg" viewBox="0 -1000 1000 1000">
	<path fill="#000000" d="M273.59727478027344 -59.18232727050781C171.33277893066406 -205.5328826904297 92.99998474121094 -295.88380432128906 92.99998474121094 -387.00001525878906C92.99998474121094 -433.42201232910156 122.54389953613281 -482.00001525878906 170.99998474121094 -482.00001525878906C217.72134399414062 -482.00001525878906 249.87718200683594 -419.9040985107422 252.57583618164062 -413.9122009277344C259.80552673339844 -400.5054931640625 274.8805389404297 -396.53228759765625 286.8660430908203 -402.99554443359375C293.3966064453125 -406.51719665527344 298.1441345214844 -413.7948760986328 299.39605712890625 -419.536376953125C300.81690979003906 -426.2634582519531 315.1077880859375 -482.00001525878906 366.99998474121094 -482.00001525878906C429.6540832519531 -482.00001525878906 456.99998474121094 -452.1258850097656 456.99998474121094 -387.00001525878906C456.99998474121094 -326.94068908691406 350.22935485839844 -182.477294921875 273.5972595214844 -59.182342529296875ZM254.28285217285156 0.99285888671875C255.60340881347656 2.9480133056640625 258.25868225097656 5.826995849609375 260.8279113769531 7.5949554443359375C272.6662139892578 15.741302490234375 289.450927734375 11.953536987304688 296.6433563232422 -0.4874267578125C368.4585876464844 -124.7083740234375 506.99998474121094 -285.59619140625 506.99998474121094 -387C506.99998474121094 -473.87413024902344 456.34588623046875 -532 366.99998474121094 -532C318.0727233886719 -532 288.1927947998047 -505.155517578125 270.7221221923828 -478.37469482421875C252.26617431640625 -501.1129455566406 218.70738220214844 -532 170.99998474121094 -532C83.45606994628906 -532 42.99998474121094 -448.5780029296875 42.99998474121094 -387C42.99998474121094 -260.58103942871094 148.65286254882812 -155.3975067138672 254.28285217285156 0.9928741455078125Z"/>
</svg>