<svg xmlns="http://www.w3.org/2000/svg" viewBox="0 -1000 1000 1000">
	<path fill="#000000" d="M51.942047119140625 -526.1609497070312C41.50535583496094 -517.4144134521484 40.09251403808594 -501.37872314453125 48.83905029296875 -490.9420471191406L255.83905029296875 -243.94204711914062C266.53575134277344 -231.1783447265625 285.75494384765625 -233.9116973876953 294.16094970703125 -243.94204711914062L501.16094970703125 -490.9420471191406C509.90748596191406 -501.37872314453125 508.49464416503906 -517.4144134521484 498.0579528808594 -526.1609497070312C487.62127685546875 -534.9074859619141 471.58558654785156 -533.4946441650391 462.83905029296875 -523.0579528808594L275 -298.92149353027344L87.16094970703125 -523.0579528808594C78.41441345214844 -533.4946441650391 62.37872314453125 -534.9074859619141 51.942047119140625 -526.1609497070312ZM51.942047119140625 -279.16094970703125C41.50535583496094 -270.41441345214844 40.09251403808594 -254.37872314453125 48.83905029296875 -243.94204711914062L255.83905029296875 3.057952880859375C266.53575134277344 15.8216552734375 285.75494384765625 13.088302612304688 294.16094970703125 3.057952880859375L501.16094970703125 -243.94204711914062C509.90748596191406 -254.37872314453125 508.49464416503906 -270.41441345214844 498.0579528808594 -279.16094970703125C487.62127685546875 -287.90748596191406 471.58558654785156 -286.49464416503906 462.83905029296875 -276.0579528808594L275 -51.92149353027344L87.16094970703125 -276.0579528808594C78.41441345214844 -286.49464416503906 62.37872314453125 -287.90748596191406 51.942047119140625 -279.16094970703125Z"/>
</svg>