<svg xmlns="http://www.w3.org/2000/svg" viewBox="0 -1000 1000 1000">
	<path fill="#000000" d="M502.1033935546875 -705.1227874755859C491.6875 -713.8940734863281 475.64849853515625 -712.5193023681641 466.87721252441406 -702.1034088134766L386.87721252441406 -607.1034088134766C378.1059265136719 -596.6875152587891 379.48069763183594 -580.6485137939453 389.89659118652344 -571.8772277832031C400.31248474121094 -563.10595703125 416.3514862060547 -564.4807281494141 425.1227722167969 -574.8966217041016L505.1227722167969 -669.8966217041016C513.8940582275391 -680.3125152587891 512.519287109375 -696.3515167236328 502.1033935546875 -705.122802734375ZM295 -728.0000152587891C281.38287353515625 -728.0000152587891 270 -716.6171417236328 270 -703.0000152587891V-607.0000152587891C270 -593.3828887939453 281.38287353515625 -582.0000152587891 295 -582.0000152587891C308.61712646484375 -582.0000152587891 320 -593.3828887939453 320 -607.0000152587891V-703.0000152587891C320 -716.6171417236328 308.61712646484375 -728.0000152587891 295 -728.0000152587891ZM77.216796875 -690.5715179443359C67.64585876464844 -680.8852691650391 67.74224853515625 -664.7877502441406 77.42849731445312 -655.2168121337891L161.42849731445312 -572.2168121337891C171.11474609375 -562.6458740234375 187.21226501464844 -562.7422637939453 196.783203125 -572.4285125732422C206.35414123535156 -582.1147613525391 206.25775146484375 -598.2122802734375 196.57150268554688 -607.7832183837891L112.57150268554688 -690.7832183837891C102.88525390625 -700.3541564941406 86.78773498535156 -700.2577667236328 77.216796875 -690.5715179443359ZM11.578125 -129.90040588378906C2.373046875 -119.86622619628906 3.0654296875 -103.78419494628906 13.099609375 -94.57814025878906L122.099609375 5.4218597412109375C132.6884765625 15.136703491210938 149.8369140625 13.721664428710938 158.69140625 2.4033050537109375C162.64453125 -2.6513824462890625 164.4736328125 -9.355484008789062 163.8818359375 -15.424819946289062C163.8818359375 -15.424819946289062 148 -179.16407775878906 148 -260.00001525878906C148 -402.96095275878906 191.6513671875 -482.00001525878906 295 -482.00001525878906C398.6904296875 -482.00001525878906 445 -402.35255432128906 445 -260.00001525878906V-13.000015258789062C445 0.6171722412109375 456.3828125 11.999984741210938 470 11.999984741210938C483.6171875 11.999984741210938 495 0.6171722412109375 495 -13.000015258789062V-260.00001525878906C495 -409.64747619628906 439.3095703125 -532.0000152587891 295 -532.0000152587891C150.3486328125 -532.0000152587891 98 -409.10060119628906 98 -260.00001525878906C98 -208.72950744628906 103.6943359375 -131.15626525878906 108.365234375 -75.03224182128906L46.900390625 -131.42189025878906C36.8662109375 -140.62696838378906 20.7841796875 -139.93458557128906 11.578125 -129.90040588378906Z"/>
</svg>