<svg xmlns="http://www.w3.org/2000/svg" viewBox="0 -1000 1000 1000">
	<path fill="#000000" d="M125 -675H695V75H125ZM75 -700V100C75 115.13253784179688 89.27009582519531 125 100 125H720C735.1325378417969 125 745 110.72990417480469 745 100V-700C745 -715.1325378417969 730.7299041748047 -725 720 -725H100C84.86746215820312 -725 75 -710.7299041748047 75 -700ZM182.52734375 -200.52734375C182.52734375 -76.42153930664062 283.8961181640625 24.9462890625 408 24.9462890625C532.1047515869141 24.9462890625 633.4736328125 -76.42147827148438 633.4736328125 -200.52734375C633.4736328125 -324.6303253173828 532.1049194335938 -426 408 -426C283.8959655761719 -426 182.52734375 -324.6302795410156 182.52734375 -200.52734375ZM232.52734375 -200.52734375C232.52734375 -296.9419860839844 311.5845031738281 -376 408 -376C504.41656494140625 -376 583.4736328125 -296.9419403076172 583.4736328125 -200.52734375C583.4736328125 -104.10977172851562 504.41673278808594 -25.0537109375 408 -25.0537109375C311.5843505859375 -25.0537109375 232.52734375 -104.10971069335938 232.52734375 -200.52734375ZM182.65185546875 -600.2759857177734C174.06539916992188 -595.9017486572266 169.0635528564453 -586.9560241699219 169.0635528564453 -577.7995758056641C169.0635528564453 -574.0171661376953 169.91708374023438 -570.1987915039062 171.72401428222656 -566.6518402099609L225.72401428222656 -460.65184020996094C230.09825134277344 -452.0653839111328 239.04397583007812 -447.06353759765625 248.20042419433594 -447.06353759765625C251.9828338623047 -447.06353759765625 255.80120849609375 -447.9170684814453 259.34815979003906 -449.7239990234375C267.9346160888672 -454.0982208251953 272.93646240234375 -463.0439453125 272.93646240234375 -472.2003936767578C272.93646240234375 -475.98280334472656 272.0829315185547 -479.8011779785156 270.2760009765625 -483.34812927246094L216.2760009765625 -589.3481292724609C211.90176391601562 -597.9345855712891 202.95603942871094 -602.9364318847656 193.79959106445312 -602.9364318847656C190.01718139648438 -602.9364318847656 186.1988067626953 -602.0829010009766 182.65185546875 -600.2759704589844ZM407.9879608154297 -624.9998626708984C394.0255584716797 -624.9998626708984 382.7253875732422 -613.2018890380859 383.0052185058594 -599.4898834228516L385.0052185058594 -501.48988342285156C385.27964782714844 -488.0419158935547 396.61375427246094 -477.00010681152344 410.0120391845703 -477.00010681152344C410.17774963378906 -477.00010681152344 410.3437805175781 -477.0018005371094 410.5101013183594 -477.00518798828125C424.1243896484375 -477.2830352783203 435.27264404296875 -488.8957824707031 434.9947967529297 -502.5100860595703L432.9947967529297 -600.5100860595703C432.7203674316406 -613.9580535888672 421.3862609863281 -624.9998626708984 407.98797607421875 -624.9998626708984ZM625.1803588867188 -608.3606719970703C621.6792144775391 -610.1112365722656 617.9225311279297 -610.9379425048828 614.2018890380859 -610.9379425048828C604.9794921875 -610.9379425048828 595.9785308837891 -605.8587036132812 591.6393432617188 -597.1803283691406L537.6393432617188 -489.1803283691406C535.8887786865234 -485.67918395996094 535.0620727539062 -481.92250061035156 535.0620727539062 -478.2018585205078C535.0620727539062 -468.9794616699219 540.1413116455078 -459.97850036621094 548.8196868896484 -455.6393127441406C552.3208465576172 -453.8887481689453 556.0775299072266 -453.0620422363281 559.7981719970703 -453.0620422363281C569.0205688476562 -453.0620422363281 578.0215301513672 -458.1412811279297 582.3607177734375 -466.8196563720703L636.3607177734375 -574.8196563720703C638.1112823486328 -578.32080078125 638.93798828125 -582.0774841308594 638.93798828125 -585.7981262207031C638.93798828125 -595.0205230712891 633.8587493896484 -604.021484375 625.1803741455078 -608.3606719970703ZM310.58612060546875 -235.52259826660156C296.4116668701172 -234.8491973876953 286.9503479003906 -222.32177734375 286.76336669921875 -210.14901733398438C286.86480712890625 -208.01373291015625 293.0708770751953 -95.33787536621094 408.0000305175781 -95.33787536621094C517.4966430664062 -95.33787536621094 521.1732635498047 -197.18299865722656 521.1732635498047 -210.857421875C521.1732635498047 -225.89529418945312 508.66050720214844 -235.5515899658203 496.24632263183594 -235.5515899658203C495.8904266357422 -235.5515899658203 495.5331573486328 -235.5442352294922 495.17469787597656 -235.52940368652344C482.1534423828125 -234.99072265625 471.5032043457031 -224.55416870117188 471.2022399902344 -210.54920959472656C471.3893280029297 -203.18325805664062 473.1962890625 -145.33787536621094 408.0000305175781 -145.33787536621094C341.50909423828125 -145.33787536621094 337.1583251953125 -205.2198944091797 336.68016052246094 -212.76458740234375C335.42462158203125 -224.10093688964844 325.33221435546875 -235.55015563964844 311.74359130859375 -235.55015563964844C311.3605041503906 -235.55015563964844 310.9746398925781 -235.5410614013672 310.58612060546875 -235.52259826660156Z"/>
</svg>