<svg xmlns="http://www.w3.org/2000/svg" viewBox="0 -1000 1000 1000">
	<path fill="#000000" d="M308 -532C294.38287353515625 -532 283 -520.6171264648438 283 -507V-260C283 -101.52818298339844 275.1621398925781 -38 228 -38C190.95326232910156 -38 173.90235900878906 -102.65559387207031 172.9995880126953 -260.143310546875C172.91722106933594 -274.5134735107422 160.21514892578125 -286.120849609375 145.89573669433594 -284.9112854003906C133.00531005859375 -283.8224334716797 123.01405334472656 -272.5933380126953 123.00001525878906 -260.0279235839844C122.82325744628906 -101.78677368164062 112.93942260742188 -38 68 -38C54.38287353515625 -38 43 -26.61712646484375 43 -13C43 0.61712646484375 54.38287353515625 12 68 12C106.74150085449219 12 134.6356964111328 -9.68731689453125 149.7588653564453 -42.07615661621094C164.47605895996094 -11.090484619140625 190.66766357421875 12 228 12C266.8254089355469 12 294.69676208496094 -8.5654296875 310.234619140625 -40.98793029785156C324.9170379638672 -10.832183837890625 351.15728759765625 12 388 12C499.9515686035156 12 493 -126.57740783691406 493 -260V-702C493 -715.6171264648438 481.61712646484375 -727 468 -727C454.38287353515625 -727 443 -715.6171264648438 443 -702V-260C443 -101.36009216308594 436.0484313964844 -38 388 -38C351.3409729003906 -38 333 -102.86080932617188 333 -260V-507C333 -520.6171264648438 321.61712646484375 -532 308 -532Z"/>
</svg>