<svg xmlns="http://www.w3.org/2000/svg" viewBox="0 -1000 1000 1000">
	<path fill="#000000" d="M275 -485C261.38287353515625 -485 250 -473.61712646484375 250 -460V-382.4806823730469C201.14476013183594 -372.4956359863281 162.5043487548828 -333.8550567626953 152.5193328857422 -285H68C54.38287353515625 -285 43 -273.61712646484375 43 -260C43 -246.38287353515625 54.38287353515625 -235 68 -235H152.51931762695312C162.50436401367188 -186.14476013183594 201.1449432373047 -147.5043487548828 250 -137.5193328857422V-60C250 -46.38287353515625 261.38287353515625 -35 275 -35C288.61712646484375 -35 300 -46.38287353515625 300 -60V-137.51931762695312C348.85523986816406 -147.50436401367188 387.4956512451172 -186.1449432373047 397.4806671142578 -235H482C495.61712646484375 -235 507 -246.38287353515625 507 -260C507 -273.61712646484375 495.61712646484375 -285 482 -285H397.4806823730469C387.4956359863281 -333.85523986816406 348.8550567626953 -372.4956512451172 300 -382.4806671142578V-460C300 -473.61712646484375 288.61712646484375 -485 275 -485ZM275 -335C316.1558532714844 -335 350 -301.1554412841797 350 -260C350 -218.84414672851562 316.1554412841797 -185 275 -185C233.84414672851562 -185 200 -218.8445587158203 200 -260C200 -301.1558532714844 233.8445587158203 -335 275 -335Z"/>
</svg>