<svg xmlns="http://www.w3.org/2000/svg" viewBox="0 -1000 1000 1000">
	<path fill="#000000" d="M43 -495C43 -481.38287353515625 54.38287353515625 -470 68 -470H343V-285H189C175.38287353515625 -285 164 -273.61712646484375 164 -260C164 -246.38287353515625 175.38287353515625 -235 189 -235H343V-50H68C54.38287353515625 -50 43 -38.61712646484375 43 -25C43 -11.38287353515625 54.38287353515625 0 68 0H368C378.7299041748047 0 393 -9.867462158203125 393 -25V-253.09437561035156C393.6502380371094 -255.29476928710938 394 -257.6130676269531 394 -260.00001525878906C394 -262.386962890625 393.6502380371094 -264.70526123046875 393 -266.9056396484375V-495.00001525878906C393 -505.72991943359375 383.1325378417969 -520.0000152587891 368 -520.0000152587891H68C54.38287353515625 -520.0000152587891 43 -508.6171417236328 43 -495.00001525878906Z"/>
</svg>