<svg xmlns="http://www.w3.org/2000/svg" viewBox="0 -1000 1000 1000">
	<path fill="#000000" d="M352 12C365.61712646484375 12 377 0.61712646484375 377 -13V-470H482C495.61712646484375 -470 507 -481.38287353515625 507 -495C507 -508.61712646484375 495.61712646484375 -520 482 -520H352H192H68C54.38287353515625 -520 43 -508.61712646484375 43 -495C43 -481.38287353515625 54.38287353515625 -470 68 -470H167V-13C167 0.61712646484375 178.38287353515625 12 192 12C205.61712646484375 12 217 0.61712646484375 217 -13V-470H327V-13C327 0.61712646484375 338.38287353515625 12 352 12Z"/>
</svg>