<svg xmlns="http://www.w3.org/2000/svg" viewBox="0 -1000 1000 1000">
	<path fill="#000000" d="M205 -260C205 -298.1090545654297 236.89093017578125 -330 275 -330C313.1090545654297 -330 345 -298.10906982421875 345 -260C345 -221.8909454345703 313.10906982421875 -190 275 -190C236.8909454345703 -190 205 -221.89093017578125 205 -260ZM155 -260C155 -194.10906982421875 209.1090545654297 -140 275 -140C340.89093017578125 -140 395 -194.1090545654297 395 -260C395 -325.89093017578125 340.8909454345703 -380 275 -380C209.10906982421875 -380 155 -325.8909454345703 155 -260ZM93 -260C93 -396.7216796875 167.775390625 -482 275 -482C382.2255859375 -482 457 -396.7216796875 457 -260C457 -123.2783203125 382.224609375 -38 275 -38C167.7744140625 -38 93 -123.2783203125 93 -260ZM43 -260C43 -104.7216796875 134.2255859375 12 275 12C415.775390625 12 507 -104.7216796875 507 -260C507 -415.2783203125 415.7744140625 -532 275 -532C134.224609375 -532 43 -415.2783203125 43 -260Z"/>
</svg>