<svg xmlns="http://www.w3.org/2000/svg" viewBox="0 -1000 1000 1000">
	<path fill="#000000" d="M384.5364074707031 -566.6087188720703C395.64324951171875 -558.7306213378906 411.51318359375 -561.4295959472656 419.3912811279297 -572.5364227294922L480.3912811279297 -658.5364227294922C488.2693786621094 -669.6432647705078 485.5704040527344 -685.5131988525391 474.4635772705078 -693.3912963867188C463.3567352294922 -701.2694091796875 447.48680114746094 -698.5704345703125 439.60870361328125 -687.4636077880859L378.60870361328125 -601.4636077880859C370.73060607910156 -590.3567657470703 373.42958068847656 -574.4868316650391 384.5364074707031 -566.6087341308594ZM275 -572.0000152587891C288.61712646484375 -572.0000152587891 300 -583.3828887939453 300 -597.0000152587891V-703.0000152587891C300 -716.6171417236328 288.61712646484375 -728.0000152587891 275 -728.0000152587891C261.38287353515625 -728.0000152587891 250 -716.6171417236328 250 -703.0000152587891V-597.0000152587891C250 -583.3828887939453 261.38287353515625 -572.0000152587891 275 -572.0000152587891ZM62.95158386230469 -692.1689605712891C52.51055908203125 -683.4276275634766 51.08973693847656 -667.3926391601562 59.83106994628906 -656.9515991210938L131.83106994628906 -570.9515991210938C140.57240295410156 -560.5105743408203 156.60739135742188 -559.0897521972656 167.04843139648438 -567.8310852050781C177.48947143554688 -576.5724182128906 178.91029357910156 -592.6074066162109 170.16896057128906 -603.0484466552734L98.16896057128906 -689.0484466552734C89.42762756347656 -699.4894714355469 73.39263916015625 -700.9102935791016 62.95159912109375 -692.1689605712891ZM80.00001525878906 -1.52587890625e-05H470.00001525878906C485.13255310058594 -1.52587890625e-05 495.00001525878906 -14.270111083984375 495.00001525878906 -25.000015258789062V-495.00001525878906C495.00001525878906 -510.13255310058594 480.72991943359375 -520.0000152587891 470.00001525878906 -520.0000152587891H80.00001525878906C64.86747741699219 -520.0000152587891 55.00001525878906 -505.72991943359375 55.00001525878906 -495.00001525878906V-25.000015258789062C55.00001525878906 -9.867477416992188 69.27011108398438 -1.52587890625e-05 80.00001525878906 -1.52587890625e-05ZM105.00001525878906 -50.00001525878906V-470.00001525878906H445.00001525878906V-50.00001525878906Z"/>
</svg>