<svg xmlns="http://www.w3.org/2000/svg" viewBox="0 -1000 1000 1000">
	<path fill="#000000" d="M493.9834747314453 -427.9407501220703C482.0326843261719 -434.4679870605469 466.58648681640625 -429.9342803955078 460.05926513671875 -417.9834899902344L362.84027099609375 -239.98348999023438C356.3130645751953 -228.03269958496094 360.8467559814453 -212.5865020751953 372.7975616455078 -206.0592803955078C384.7483673095703 -199.5320587158203 400.19456481933594 -204.06576538085938 406.72178649902344 -216.0165557861328L503.94078063964844 -394.0165557861328C510.468017578125 -405.96734619140625 505.93431091308594 -421.4135437011719 493.9835205078125 -427.9407653808594ZM177.2025146484375 -206.05926513671875C189.15333557128906 -212.5864715576172 193.68702697753906 -228.0326690673828 187.15980529785156 -239.9834747314453L89.94081115722656 -417.9834747314453C83.41360473632812 -429.9342803955078 67.9674072265625 -434.4679870605469 56.0166015625 -427.9407653808594C44.06581115722656 -421.4135437011719 39.5321044921875 -405.96734619140625 46.059326171875 -394.01654052734375L143.2783203125 -216.01654052734375C149.80552673339844 -204.06573486328125 165.25172424316406 -199.5320281982422 177.20252990722656 -206.0592498779297ZM275.00006103515625 -235C288.6171875 -235 300.00006103515625 -246.38287353515625 300.00006103515625 -260V-507C300.00006103515625 -520.6171264648438 288.6171875 -532 275.00006103515625 -532C261.3829345703125 -532 250.00006103515625 -520.6171264648438 250.00006103515625 -507V-260C250.00006103515625 -246.38287353515625 261.3829345703125 -235 275.00006103515625 -235ZM234.00006103515625 -27C234.00006103515625 -4.3779296875 252.37799072265625 14 275.00006103515625 14C297.62213134765625 14 316.00006103515625 -4.3779296875 316.00006103515625 -27C316.00006103515625 -49.6220703125 297.62213134765625 -68 275.00006103515625 -68C252.37799072265625 -68 234.00006103515625 -49.6220703125 234.00006103515625 -27Z"/>
</svg>