<svg xmlns="http://www.w3.org/2000/svg" viewBox="0 -1000 1000 1000">
	<path fill="#000000" d="M105 -437.64341735839844V-703C105 -716.6171264648438 93.61712646484375 -728 80 -728C66.38287353515625 -728 55 -716.6171264648438 55 -703V-260C55 -105.07719421386719 145.66476440429688 12 281 12C422.4213104248047 12 507 -105.70468139648438 507 -260C507 -414.2953796386719 422.4217987060547 -532 281 -532C206.00987243652344 -532 144.73460388183594 -496.05670166015625 105 -437.64341735839844ZM105 -260C105 -397.08953857421875 180.33404541015625 -482 281 -482C387.5782012939453 -482 457 -397.7046203613281 457 -260C457 -122.29531860351562 387.5786895751953 -38 281 -38C180.33523559570312 -38 105 -122.92280578613281 105 -260Z"/>
</svg>