<svg xmlns="http://www.w3.org/2000/svg" viewBox="0 -1000 1000 1000">
	<path fill="#000000" d="M55 -495V-25C55 -9.867462158203125 69.27009582519531 0 80 0H470C485.1325378417969 0 495 -14.270095825195312 495 -25V-495C495 -510.1325378417969 480.7299041748047 -520 470 -520H80C64.86746215820312 -520 55 -505.7299041748047 55 -495ZM105 -470H445V-50H105ZM234 -260C234 -237.3779296875 252.3779296875 -219 275 -219C297.6220703125 -219 316 -237.3779296875 316 -260C316 -282.6220703125 297.6220703125 -301 275 -301C252.3779296875 -301 234 -282.6220703125 234 -260Z"/>
</svg>