<svg xmlns="http://www.w3.org/2000/svg" viewBox="0 -1000 1000 1000">
	<path fill="#000000" d="M275 -372C288.61712646484375 -372 300 -383.38287353515625 300 -397V-507C300 -520.6171264648438 288.61712646484375 -532 275 -532C261.38287353515625 -532 250 -520.6171264648438 250 -507V-397C250 -383.38287353515625 261.38287353515625 -372 275 -372ZM347 -260C347 -246.38287353515625 358.38287353515625 -235 372 -235H482C495.61712646484375 -235 507 -246.38287353515625 507 -260C507 -273.61712646484375 495.61712646484375 -285 482 -285H372C358.38287353515625 -285 347 -273.61712646484375 347 -260ZM43 -260C43 -246.38287353515625 54.38287353515625 -235 68 -235H178C191.61712646484375 -235 203 -246.38287353515625 203 -260C203 -273.61712646484375 191.61712646484375 -285 178 -285H68C54.38287353515625 -285 43 -273.61712646484375 43 -260Z"/>
</svg>