<svg xmlns="http://www.w3.org/2000/svg" viewBox="0 -1000 1000 1000">
	<path fill="#000000" d="M43 -260C43 -104.72148132324219 134.2259979248047 12 275 12C415.77545166015625 12 507 -104.72142028808594 507 -260C507 -364.7493133544922 465.4856414794922 -451.9524230957031 395.25152587890625 -497.6138916015625C416.4966583251953 -520.6206359863281 445 -553.4617156982422 445 -607C445 -663.9019165039062 385.8370056152344 -728 265 -728C165.24143981933594 -728 121.78108215332031 -679.3763885498047 103.31767272949219 -658.6123657226562C94.2691650390625 -648.4363708496094 95.21165466308594 -632.3661804199219 105.38763427734375 -623.3176727294922C115.56362915039062 -614.2691650390625 131.63381958007812 -615.2116546630859 140.6823272705078 -625.3876342773438C157.3927459716797 -644.1802520751953 182.75856018066406 -678 265 -678C370.1629943847656 -678 395 -626.2032775878906 395 -607C395 -566.7971801757812 372.80931091308594 -548.9263916015625 348.170654296875 -520.3787689208984C325.6751251220703 -527.9583740234375 301.1953887939453 -532 275 -532C134.22454833984375 -532 43 -415.27857971191406 43 -260ZM93 -260C93 -396.72142028808594 167.77545166015625 -482 275 -482C382.2259979248047 -482 457 -396.7214813232422 457 -260C457 -123.27857971191406 382.22454833984375 -38 275 -38C167.7740020751953 -38 93 -123.27851867675781 93 -260Z"/>
</svg>