<svg xmlns="http://www.w3.org/2000/svg" viewBox="0 -1000 1000 1000">
	<path fill="#000000" d="M43 -495C43 -481.38287353515625 54.38287353515625 -470 68 -470H275C383.9561309814453 -470 457 -395.50836181640625 457 -260C457 -123.24009704589844 382.19334411621094 -37.77391052246094 275.05274963378906 -37.99993896484375C259.93731689453125 -38.031829833984375 250 -23.827484130859375 250 -13V183C250 196.61712646484375 261.38287353515625 208 275 208C288.61712646484375 208 300 196.61712646484375 300 183V10.774398803710938C426.15086364746094 -2.06805419921875 507 -113.79922485351562 507 -260.00001525878906C507 -416.4916534423828 414.0438690185547 -520.0000152587891 275 -520.0000152587891H68C54.38287353515625 -520.0000152587891 43 -508.6171417236328 43 -495.00001525878906ZM241 -260.00001525878906C241 -237.37794494628906 259.3779296875 -219.00001525878906 282 -219.00001525878906C304.6220703125 -219.00001525878906 323 -237.37794494628906 323 -260.00001525878906C323 -282.62208557128906 304.6220703125 -301.00001525878906 282 -301.00001525878906C259.3779296875 -301.00001525878906 241 -282.62208557128906 241 -260.00001525878906ZM69 -260.00001525878906C69 -237.37794494628906 87.3779296875 -219.00001525878906 110 -219.00001525878906C132.6220703125 -219.00001525878906 151 -237.37794494628906 151 -260.00001525878906C151 -282.62208557128906 132.6220703125 -301.00001525878906 110 -301.00001525878906C87.3779296875 -301.00001525878906 69 -282.62208557128906 69 -260.00001525878906Z"/>
</svg>