<svg xmlns="http://www.w3.org/2000/svg" viewBox="0 -1000 1000 1000">
	<path fill="#000000" d="M80 12C93.61712646484375 12 105 0.61712646484375 105 -13V-470H215V-13C215 0.61712646484375 226.38287353515625 12 240 12C253.61712646484375 12 265 0.61712646484375 265 -13V-470H375V-13C375 0.61712646484375 386.38287353515625 12 400 12C413.61712646484375 12 425 0.61712646484375 425 -13V-470H535V-13C535 0.61712646484375 546.3828735351562 12 560 12C573.6171264648438 12 585 0.61712646484375 585 -13V-495C585 -505.7299041748047 575.1325378417969 -520 560 -520H400H240H80C69.27009582519531 -520 55 -510.1325378417969 55 -495V-13C55 0.61712646484375 66.38287353515625 12 80 12Z"/>
</svg>