<svg xmlns="http://www.w3.org/2000/svg" viewBox="0 -1000 1000 1000">
	<path fill="#000000" d="M308.1324920654297 -267.19874572753906C319.4626159667969 -259.6453399658203 335.24781799316406 -262.8023681640625 342.8012390136719 -274.13250732421875L401.99998474121094 -362.9306182861328L461.19873046875 -274.13250732421875C468.7521667480469 -262.80235290527344 484.53736877441406 -259.64532470703125 495.8675079345703 -267.19874572753906C507.19764709472656 -274.7521667480469 510.35467529296875 -290.53736877441406 502.80125427246094 -301.8675079345703L422.80125427246094 -421.8675079345703C422.8012390136719 -421.8675231933594 419.76625061035156 -425.83241271972656 417.4567565917969 -427.64915466308594C406.162109375 -436.53395080566406 389.1699981689453 -433.8244171142578 381.19873046875 -421.8675231933594L301.19873046875 -301.8675231933594C293.64532470703125 -290.5373992919922 296.80235290527344 -274.752197265625 308.1324920654297 -267.1987762451172ZM54.13249206542969 -267.1987762451172C65.46261596679688 -259.64537048339844 81.24781799316406 -262.8023986816406 88.80123901367188 -274.1325378417969L147.99998474121094 -362.93064880371094L207.19873046875 -274.1325378417969C214.75216674804688 -262.80238342285156 230.53736877441406 -259.6453552246094 241.8675079345703 -267.1987762451172C253.19764709472656 -274.752197265625 256.35467529296875 -290.5373992919922 248.80125427246094 -301.86753845214844L168.80125427246094 -421.86753845214844C168.80123901367188 -421.8675537109375 165.76625061035156 -425.8324432373047 163.45675659179688 -427.64918518066406C152.162109375 -436.5339813232422 135.1699981689453 -433.82444763183594 127.19873046875 -421.8675537109375L47.19873046875 -301.8675537109375C39.64532470703125 -290.5374298095703 42.80235290527344 -274.7522277832031 54.13249206542969 -267.1988067626953ZM234 -136.00006103515625C234 -113.37799072265625 252.3779296875 -95.00006103515625 275 -95.00006103515625C297.6220703125 -95.00006103515625 316 -113.37799072265625 316 -136.00006103515625C316 -158.62213134765625 297.6220703125 -177.00006103515625 275 -177.00006103515625C252.3779296875 -177.00006103515625 234 -158.62213134765625 234 -136.00006103515625Z"/>
</svg>