<svg xmlns="http://www.w3.org/2000/svg" viewBox="0 -1000 1000 1000">
	<path fill="#000000" d="M275 12C288.61712646484375 12 300 0.61712646484375 300 -13V-141.58767700195312C354.8193054199219 -153.111572265625 396 -201.76307678222656 396 -260C396 -280.60560607910156 390.84454345703125 -300.0111846923828 381.7536315917969 -316.9967498779297C421.84996032714844 -361.8612518310547 461.90235900878906 -407.005126953125 500.02606201171875 -446.67771911621094C509.46124267578125 -456.4962463378906 509.14080810546875 -472.5908660888672 499.32228088378906 -482.02606201171875C489.5037536621094 -491.46124267578125 473.4091339111328 -491.14080810546875 463.97393798828125 -481.32228088378906C426.3987731933594 -442.2204895019531 387.6511535644531 -398.6571502685547 349.1820983886719 -355.5878143310547C328.69252014160156 -371.51434326171875 302.9502258300781 -381 275 -381C247.0497283935547 -381 221.30740356445312 -371.5143127441406 200.8178253173828 -355.58775329589844C162.3486785888672 -398.6569366455078 123.60142517089844 -442.2201843261719 86.02607727050781 -481.32225036621094C76.59089660644531 -491.1407928466797 60.49627685546875 -491.4612579345703 50.67774963378906 -482.0260772705078C40.85920715332031 -472.5908966064453 40.53874206542969 -456.49627685546875 49.97392272949219 -446.67774963378906C88.09771728515625 -407.00494384765625 128.1497344970703 -361.8611602783203 168.246337890625 -316.9966735839844C159.1554412841797 -300.0111083984375 154 -280.6055603027344 154 -260C154 -201.76304626464844 195.18072509765625 -153.111572265625 250 -141.58767700195312V-13C250 0.61712646484375 261.38287353515625 12 275 12ZM275 -189C235.80709838867188 -189 204 -220.80714416503906 204 -260C204 -274.92002868652344 208.6094512939453 -288.7697296142578 216.4810791015625 -300.2018127441406C216.54873657226562 -300.2610778808594 216.61611938476562 -300.32080078125 216.68325805664062 -300.3809509277344C218.9158477783203 -302.3814239501953 220.69967651367188 -304.7205047607422 222.02716064453125 -307.2603302001953C235.032470703125 -321.8257751464844 253.9510955810547 -331 275 -331C296.04893493652344 -331 314.96754455566406 -321.8257598876953 327.9728546142578 -307.26031494140625C329.30035400390625 -304.72044372558594 331.08421325683594 -302.38134765625 333.3168487548828 -300.380859375C333.3839416503906 -300.32073974609375 333.45130920410156 -300.26104736328125 333.5189208984375 -300.20179748535156C341.3905487060547 -288.76971435546875 346 -274.92002868652344 346 -260C346 -220.80709838867188 314.19285583496094 -189 275 -189Z"/>
</svg>