<svg xmlns="http://www.w3.org/2000/svg" viewBox="0 -1000 1000 1000">
	<path fill="#000000" d="M43 -260C43 -104.7216796875 134.2255859375 12 275 12C415.775390625 12 507 -104.7216796875 507 -260C507 -415.2783203125 415.7744140625 -532 275 -532C134.224609375 -532 43 -415.2783203125 43 -260ZM93 -260C93 -385.8238983154297 156.33009338378906 -468.0784606933594 250 -480.3917236328125V-260C250 -249.2700958251953 259.8674621582031 -235 275 -235H456.1357727050781C447.5358428955078 -112.96156311035156 375.52972412109375 -38 275 -38C167.7744140625 -38 93 -123.2783203125 93 -260ZM300 -480.3917541503906C387.3154754638672 -468.9139862060547 448.26707458496094 -396.6632995605469 456.1357727050781 -285H300Z"/>
</svg>