<svg xmlns="http://www.w3.org/2000/svg" viewBox="0 -1000 1000 1000">
	<path fill="#000000" d="M301 -25C301 -38.6171875 289.6171875 -50 276 -50H106.0166015625L275.60546875 -442.990234375L458.92578125 -3.3779296875C464.45703125 9.8857421875 480.6142578125 15.802734375 493.40234375 9.248046875C498.642578125 6.5625 502.89453125 1.798828125 505.041015625 -3.298828125L609.041015625 -250.298828125C614.3251953125 -262.8486328125 608.2509765625 -277.7568359375 595.701171875 -283.041015625C583.1513671875 -288.3251953125 568.2431640625 -282.2509765625 562.958984375 -269.701171875L482.111328125 -77.6884765625L299.07421875 -516.6220703125C297.3037109375 -520.8671875 292.8857421875 -526.3544921875 287.67578125 -529.1064453125C274.96875 -535.8173828125 258.740234375 -530.099609375 253.0458984375 -516.9052734375L45.0458984375 -34.9052734375C44.638671875 -33.9599609375 43.283203125 -29.5830078125 43.0771484375 -26.9619140625C41.94921875 -12.6357421875 53.6298828125 0 68 0H276C289.6171875 0 301 -11.3828125 301 -25Z"/>
</svg>