<svg xmlns="http://www.w3.org/2000/svg" viewBox="0 -1000 1000 1000">
	<path fill="#000000" d="M498.96673583984375 -705.2370300292969C488.4886169433594 -713.9338684082031 472.4598083496094 -712.4448547363281 463.7629699707031 -701.9667358398438L380.7629699707031 -601.9667358398438C372.0661315917969 -591.4886169433594 373.5551452636719 -575.4598083496094 384.03326416015625 -566.7629699707031C394.5113830566406 -558.0661315917969 410.5401916503906 -559.5551452636719 419.2370300292969 -570.0332641601562L502.2370300292969 -670.0332641601562C510.9338684082031 -680.5113830566406 509.4448547363281 -696.5401916503906 498.96673583984375 -705.2370300292969ZM272 -755C258.38287353515625 -755 247 -743.6171264648438 247 -730V-615C247 -601.3828735351562 258.38287353515625 -590 272 -590C285.61712646484375 -590 297 -601.3828735351562 297 -615V-730C297 -743.6171264648438 285.61712646484375 -755 272 -755ZM64.80186462402344 -706.5769958496094C53.5938720703125 -698.8434906005859 50.68946838378906 -683.0098571777344 58.42298889160156 -671.8018646240234L127.42298889160156 -571.8018646240234C135.156494140625 -560.5938720703125 150.99012756347656 -557.6894683837891 162.1981201171875 -565.4229888916016C173.40609741210938 -573.156494140625 176.3105010986328 -588.9901275634766 168.5769805908203 -600.1981201171875L99.57698059082031 -700.1981201171875C91.84347534179688 -711.4061126708984 76.00984191894531 -714.3105163574219 64.80184936523438 -706.5769958496094ZM92.99998474121094 -260C92.99998474121094 -396.7216796875 167.77537536621094 -482 274.99998474121094 -482C382.22557067871094 -482 456.99998474121094 -396.7216796875 456.99998474121094 -260C456.99998474121094 -123.2783203125 382.22459411621094 -38 274.99998474121094 -38C167.77439880371094 -38 92.99998474121094 -123.2783203125 92.99998474121094 -260ZM42.99998474121094 -260C42.99998474121094 -104.7216796875 134.22557067871094 12 274.99998474121094 12C415.77537536621094 12 506.99998474121094 -104.7216796875 506.99998474121094 -260C506.99998474121094 -415.2783203125 415.77439880371094 -532 274.99998474121094 -532C134.22459411621094 -532 42.99998474121094 -415.2783203125 42.99998474121094 -260Z"/>
</svg>