<svg xmlns="http://www.w3.org/2000/svg" viewBox="0 -1000 1000 1000">
	<path fill="#000000" d="M80 13C93.61712646484375 13 105 1.61712646484375 105 -12C105 -158.51417541503906 133.42080688476562 -194 191 -194C226.99156188964844 -194 248.59178161621094 -122.27096557617188 250.48944091796875 -113.07505798339844C250.48944091796875 -113.07505798339844 268.5339813232422 12 359 12C458.96409606933594 12 495 -56.575592041015625 495 -219C495 -232.61712646484375 483.61712646484375 -244 470 -244C456.38287353515625 -244 445 -232.61712646484375 445 -219C445 -57.418548583984375 419.03590393066406 -38 359 -38C323.26609802246094 -38 301.18980407714844 -114.1988525390625 299.53233337402344 -122.81387329101562C299.53233337402344 -122.81387329101562 282.98133850097656 -244 191 -244C88.57919311523438 -244 55 -157.49363708496094 55 -12C55 1.61712646484375 66.38287353515625 13 80 13ZM80 -275C93.61712646484375 -275 105 -286.38287353515625 105 -300C105 -446.51417541503906 133.42080688476562 -482 191 -482C226.99156188964844 -482 248.59178161621094 -410.2709655761719 250.48944091796875 -401.07505798339844C250.48944091796875 -401.07505798339844 268.5339813232422 -276 359 -276C458.9640808105469 -276 495 -344.57542419433594 495 -507C495 -520.6171264648438 483.61712646484375 -532 470 -532C456.38287353515625 -532 445 -520.6171264648438 445 -507C445 -345.4184112548828 419.0359191894531 -326 359 -326C323.26609802246094 -326 301.18980407714844 -402.1988525390625 299.53233337402344 -410.8138732910156C299.53233337402344 -410.8138732910156 282.98133850097656 -532 191 -532C88.57919311523438 -532 55 -445.49363708496094 55 -300C55 -286.38287353515625 66.38287353515625 -275 80 -275Z"/>
</svg>