<svg xmlns="http://www.w3.org/2000/svg" viewBox="0 -1000 1000 1000">
	<path fill="#000000" d="M54.355926513671875 -185.948486328125C42.945587158203125 -178.51675415039062 39.619781494140625 -162.76625061035156 47.051513671875 -151.35592651367188L146.051513671875 0.644073486328125C148.83872985839844 4.923431396484375 152.77767944335938 8.047134399414062 157.20892333984375 9.90277099609375C164.24884033203125 12.873764038085938 172.56912231445312 12.67645263671875 179.55650329589844 8.617904663085938L346.55650329589844 -88.38209533691406C358.3314514160156 -95.22145080566406 362.4572448730469 -110.78157043457031 355.6178894042969 -122.5565185546875C348.77854919433594 -134.33148193359375 333.2184295654297 -138.457275390625 321.4434814453125 -131.617919921875L202.9486083984375 -62.79156494140625C229.6398468017578 -218.93577575683594 242.22642517089844 -482 353.9999694824219 -482C435.32196044921875 -482 445.02239990234375 -272.5032958984375 445.00001525878906 -260.04493713378906C444.9755401611328 -246.42782592773438 456.3379364013672 -235.02452087402344 469.9550323486328 -235.0000457763672C482.99188232421875 -234.9766082763672 494.0646514892578 -244.7398681640625 494.99851989746094 -259.16943359375C494.99851989746094 -259.16943359375 505.9007873535156 -532 353.9999694824219 -532C183.53599548339844 -532 173.39797973632812 -217.2928466796875 153.82269287109375 -79.0391845703125L88.94845581054688 -178.64407348632812C81.5167236328125 -190.05441284179688 65.76622009277344 -193.38021850585938 54.35589599609375 -185.948486328125Z"/>
</svg>