<svg xmlns="http://www.w3.org/2000/svg" viewBox="0 -1000 1000 1000">
	<path fill="#000000" d="M54.68080139160156 -528.1565399169922C43.157135009765625 -520.9017791748047 39.58868408203125 -505.2044677734375 46.84344482421875 -493.6808166503906L245.45828247070312 -178.19615173339844L173.55523681640625 -63.98359680175781L90.38224792480469 -231.1370849609375C84.31605529785156 -243.32838439941406 69.05419921875 -248.448486328125 56.8629150390625 -242.38229370117188C44.671630859375 -236.31610107421875 39.55152893066406 -221.0542449951172 45.61772155761719 -208.8629608154297L148.6177215576172 -1.8629608154296875C150.31346130371094 1.545013427734375 152.92434692382812 4.708251953125 156.0619659423828 7.04632568359375C167.58493041992188 15.6329345703125 184.50042724609375 12.480300903320312 192.15652465820312 0.319183349609375L274.99998474121094 -131.27139282226562L357.84344482421875 0.319183349609375C365.49952697753906 12.480316162109375 382.41502380371094 15.632949829101562 393.93798828125 7.0463409423828125C397.0729064941406 4.7102813720703125 399.66233825683594 1.5935516357421875 401.3822326660156 -1.8629302978515625L504.3822326660156 -208.86293029785156C510.44842529296875 -221.05419921875 505.3283233642578 -236.31605529785156 493.1370391845703 -242.3822479248047C480.9457550048828 -248.4484405517578 465.68389892578125 -243.32833862304688 459.6177062988281 -231.13705444335938L376.44471740722656 -63.98356628417969L304.5416717529297 -178.1961212158203L503.15650939941406 -493.6807861328125C510.4112854003906 -505.2044219970703 506.84283447265625 -520.9017333984375 495.3191833496094 -528.1565093994141C483.7955322265625 -535.4112701416016 468.0982208251953 -531.8428192138672 460.84344482421875 -520.3191680908203L274.99998474121094 -225.12086486816406L89.15652465820312 -520.3191680908203C81.90176391601562 -531.8428344726562 66.20445251464844 -535.4112854003906 54.68080139160156 -528.1565246582031Z"/>
</svg>