<svg xmlns="http://www.w3.org/2000/svg" viewBox="0 -1000 1000 1000">
	<path fill="#000000" d="M43 -348C43 -281.76902770996094 90.71098327636719 -222.49298095703125 149.3975372314453 -186.71226501464844C148.50338745117188 -176.18516540527344 148 -165.34339904785156 148 -155C148 1.489654541015625 236.9534912109375 12 275 12C313.7548828125 12 400 0.6330108642578125 400 -159C400 -167.88462829589844 399.6452178955078 -176.90113830566406 398.9811096191406 -185.8179931640625C458.4657745361328 -221.17385864257812 507 -280.4904327392578 507 -348C507 -452.02296447753906 450.5224914550781 -532 369 -532C335.58998107910156 -532 304.50169372558594 -504.6371612548828 274.6587219238281 -471.07447814941406C244.1942596435547 -504.94252014160156 211.65171813964844 -532 177 -532C86.027587890625 -532 43 -445.29469299316406 43 -348ZM391.0281524658203 -240.4012908935547C375.71734619140625 -311.8921356201172 342.7217254638672 -379.3715057373047 306.2745056152344 -431.1864318847656C336.84393310546875 -467.39239501953125 364.7239227294922 -482.00001525878906 369.00001525878906 -482.00001525878906C411.47752380371094 -482.00001525878906 457.00001525878906 -437.97705078125 457.00001525878906 -348.00001525878906C457.00001525878906 -310.82078552246094 431.697265625 -270.14947509765625 391.0281677246094 -240.40130615234375ZM198.11802673339844 -163.5182647705078C222.81671142578125 -154.77005004882812 249.0884552001953 -149.7757568359375 275.1077423095703 -150.00001525878906C300.26890563964844 -150.00001525878906 325.9241180419922 -154.7987518310547 349.97352600097656 -163.0707244873047C349.98780822753906 -161.71273803710938 350.00001525878906 -160.0353546142578 350.00001525878906 -159.00001525878906C350.00001525878906 -26.195526123046875 300.24513244628906 -38.00001525878906 275.00001525878906 -38.00001525878906C249.04652404785156 -38.00001525878906 198.00001525878906 -27.235763549804688 198.00001525878906 -155.00001525878906C198.00001525878906 -157.48175048828125 198.04824829101562 -160.67510986328125 198.11802673339844 -163.5182647705078ZM345.0827331542969 -214.64846801757812C322.0832214355469 -205.2806396484375 297.92613220214844 -200.00003051757812 274.8923034667969 -200.00003051757812C251.4756622314453 -199.7982177734375 226.9604949951172 -205.21449279785156 203.60812377929688 -214.9970703125C215.22593688964844 -278.1114959716797 243.34158325195312 -340.35899353027344 274.78453063964844 -388.57196044921875C306.4552001953125 -340.0163879394531 334.17889404296875 -277.4702606201172 345.08274841308594 -214.6484832763672ZM243.20706176757812 -431.0826873779297C207.29786682128906 -379.9123840332031 174.0116729736328 -312.8587951660156 157.91055297851562 -241.21466064453125C117.87319946289062 -271.21612548828125 93.00003051757812 -311.88157653808594 93.00003051757812 -348.0000457763672C93.00003051757812 -436.7053527832031 127.97244262695312 -482.0000457763672 177.00003051757812 -482.0000457763672C184.29718017578125 -482.0000457763672 212.64572143554688 -466.9433288574219 243.20706176757812 -431.08270263671875Z"/>
</svg>