<svg xmlns="http://www.w3.org/2000/svg" viewBox="0 -1000 1000 1000">
	<path fill="#000000" d="M50.9302978515625 -721.2654113769531C40.98139953613281 -711.9677886962891 40.436981201171875 -695.8791961669922 49.734588623046875 -685.9302978515625L448.6254577636719 -259.09779357910156L255.83905029296875 -29.057968139648438C252.06427001953125 -24.55377197265625 250 -18.4742431640625 250 -13.000015258789062V182.99998474121094C250 196.6171112060547 261.38287353515625 207.99998474121094 275 207.99998474121094C288.61712646484375 207.99998474121094 300 196.6171112060547 300 182.99998474121094V-3.909423828125L501.16094970703125 -243.94204711914062C508.23583984375 -252.38406372070312 509.2651062011719 -267.43959045410156 500.2654113769531 -277.0697021484375L86.26541137695312 -720.0697021484375C76.96778869628906 -730.0186004638672 60.87919616699219 -730.5630187988281 50.9302978515625 -721.2654113769531ZM60 -260C60 -237.3779296875 78.3779296875 -219 101 -219C123.6220703125 -219 142 -237.3779296875 142 -260C142 -282.6220703125 123.6220703125 -301 101 -301C78.3779296875 -301 60 -282.6220703125 60 -260ZM232 -260C232 -237.3779296875 250.3779296875 -219 273 -219C295.6220703125 -219 314 -237.3779296875 314 -260C314 -282.6220703125 295.6220703125 -301 273 -301C250.3779296875 -301 232 -282.6220703125 232 -260Z"/>
</svg>