<svg xmlns="http://www.w3.org/2000/svg" viewBox="0 -1000 1000 1000">
	<path fill="#000000" d="M273.59765625 -460.8173828125C350.2294921875 -337.5224609375 457 -193.0595703125 457 -133C457 -67.8740234375 429.654296875 -38 367 -38C315.107421875 -38 300.8173828125 -93.736328125 299.396484375 -100.4638671875C298.14453125 -106.205078125 293.396484375 -113.482421875 286.8662109375 -117.0048828125C274.880859375 -123.4677734375 259.8056640625 -119.494140625 252.576171875 -106.087890625C249.876953125 -100.095703125 217.7216796875 -38 171 -38C122.5439453125 -38 93 -86.578125 93 -133C93 -224.1162109375 171.3330078125 -314.466796875 273.59765625 -460.8173828125ZM254.283203125 -520.9931640625C148.6533203125 -364.6025390625 43 -259.4189453125 43 -133C43 -71.421875 83.4560546875 12 171 12C218.70703125 12 252.2666015625 -18.88671875 270.7216796875 -41.625C288.1923828125 -14.8447265625 318.072265625 12 367 12C456.345703125 12 507 -46.1259765625 507 -133C507 -234.4033203125 368.458984375 -395.2919921875 296.6435546875 -519.5126953125C289.451171875 -531.953125 272.666015625 -535.7412109375 260.828125 -527.5947265625C258.2587890625 -525.8271484375 255.603515625 -522.9482421875 254.283203125 -520.9931640625Z"/>
</svg>