<svg xmlns="http://www.w3.org/2000/svg" viewBox="0 -1000 1000 1000">
	<path fill="#000000" d="M105.94447326660156 -50L275 -443.6462097167969L444.05552673339844 -50ZM67.99998474121094 0H481.99998474121094C496.3703918457031 0 508.0503845214844 -12.63531494140625 506.9229278564453 -26.96142578125C506.7183380126953 -29.560928344726562 505.3355407714844 -34.01689147949219 504.97120666503906 -34.865234375L418.2500762939453 -236.79559326171875L500.58233642578125 -328.27587890625C509.6916961669922 -338.3974151611328 508.8456268310547 -354.4729766845703 498.7240905761719 -363.5823516845703C488.60255432128906 -372.6917266845703 472.52699279785156 -371.8456573486328 463.41761779785156 -361.72412109375L396.52020263671875 -287.3936462402344L297.97120666503906 -516.865234375C292.3005065917969 -530.0694732666016 276.08152770996094 -535.8155975341797 263.36289978027344 -529.1264190673828C258.29200744628906 -526.4594421386719 254.14967346191406 -521.8038024902344 252.0287628173828 -516.865234375L153.47976684570312 -287.3936462402344L86.58235168457031 -361.72412109375C77.47296142578125 -371.8456573486328 61.39739990234375 -372.6917266845703 51.27586364746094 -363.5823516845703C41.154327392578125 -354.4729766845703 40.308258056640625 -338.3974151611328 49.417633056640625 -328.27587890625L131.74989318847656 -236.79559326171875L45.02876281738281 -34.865234375C39.358062744140625 -21.6610107421875 46.358978271484375 -5.942840576171875 59.9674072265625 -1.325592041015625C62.43669128417969 -0.4877777099609375 67.07672119140625 0 67.99998474121094 0Z"/>
</svg>