<svg xmlns="http://www.w3.org/2000/svg" viewBox="0 -1000 1000 1000">
	<path fill="#000000" d="M204 -110C204 -149.43994140625 236.15487670898438 -182 275 -182C313.8451843261719 -182 346 -149.43992614746094 346 -110C346 -70.56005859375 313.8451232910156 -38 275 -38C236.15481567382812 -38 204 -70.56007385253906 204 -110ZM154 -110C154 -43.43992614746094 207.84518432617188 12 275 12C342.1548767089844 12 396 -43.43994140625 396 -110C396 -176.56007385253906 342.1548156738281 -232 275 -232C207.84512329101562 -232 154 -176.56005859375 154 -110ZM470 -532C456.38287353515625 -532 445 -520.6171264648438 445 -507V-13C445 0.61712646484375 456.38287353515625 12 470 12C483.61712646484375 12 495 0.61712646484375 495 -13V-507C495 -520.6171264648438 483.61712646484375 -532 470 -532ZM80 -532C66.38287353515625 -532 55 -520.6171264648438 55 -507V-13C55 0.61712646484375 66.38287353515625 12 80 12C93.61712646484375 12 105 0.61712646484375 105 -13V-507C105 -520.6171264648438 93.61712646484375 -532 80 -532Z"/>
</svg>