<svg xmlns="http://www.w3.org/2000/svg" viewBox="0 -1000 1000 1000">
	<path fill="#000000" d="M55.67247009277344 -528.7492980957031C43.825958251953125 -522.03466796875 39.53608703613281 -506.51898193359375 46.25071716308594 -494.67247009277344L129.25071716308594 -348.23675537109375C135.96534729003906 -336.3902282714844 151.4810333251953 -332.10035705566406 163.32754516601562 -338.8149871826172C175.174072265625 -345.5296173095703 179.4639434814453 -361.04530334472656 172.7493133544922 -372.8918151855469L89.74931335449219 -519.3275299072266C83.03468322753906 -531.1740417480469 67.51899719238281 -535.4639129638672 55.6724853515625 -528.7492828369141ZM252.6724853515625 -181.18499755859375C240.8259735107422 -174.4703826904297 236.53610229492188 -158.95469665527344 243.250732421875 -147.10818481445312L326.250732421875 -0.6724700927734375C332.9653625488281 11.174041748046875 348.4810485839844 15.463912963867188 360.3275604248047 8.749282836914062C372.17408752441406 2.0346527099609375 376.4639587402344 -13.481033325195312 369.74932861328125 -25.327545166015625L286.74932861328125 -171.7632598876953C280.0346984863281 -183.6097869873047 264.5190124511719 -187.899658203125 252.67250061035156 -181.18502807617188ZM55.67250061035156 8.749282836914062C67.51902770996094 15.463912963867188 83.03471374511719 11.174041748046875 89.74934387207031 -0.6724853515625L172.7493438720703 -147.1082000732422C179.46397399902344 -158.9547119140625 175.17410278320312 -174.47039794921875 163.32757568359375 -181.18502807617188C151.48106384277344 -187.899658203125 135.9653778076172 -183.6097869873047 129.25074768066406 -171.7632598876953L46.25074768066406 -25.327545166015625C39.53611755371094 -13.48101806640625 43.82598876953125 2.03466796875 55.672515869140625 8.749298095703125ZM252.67251586914062 -338.8149871826172C264.51904296875 -332.100341796875 280.03472900390625 -336.3902130126953 286.7493591308594 -348.2367401123047L369.7493591308594 -494.6724548339844C376.4639892578125 -506.51898193359375 372.1741180419922 -522.03466796875 360.3275909423828 -528.7492980957031C348.4810791015625 -535.4639282226562 332.96539306640625 -531.1740570068359 326.2507629394531 -519.3275299072266L243.25076293945312 -372.8918151855469C236.5361328125 -361.04530334472656 240.8260040283203 -345.5296173095703 252.6725311279297 -338.8149871826172Z"/>
</svg>