<svg xmlns="http://www.w3.org/2000/svg" viewBox="0 -1000 1000 1000">
	<path fill="#000000" d="M68 -510C81.61712646484375 -510 93 -521.3828735351562 93 -535C93 -610.6843872070312 170.0863800048828 -678 276 -678C381.6733093261719 -678 457 -611.0083160400391 457 -535C457 -308.05653381347656 220.6990509033203 -264.93780517578125 48.170440673828125 -40.22459411621094C39.419097900390625 -28.826248168945312 42.328277587890625 -11.867172241210938 54.37809753417969 -4.037078857421875C58.44129943847656 -1.3967742919921875 63.96455383300781 0 68 0H482C495.61712646484375 0 507 -11.38287353515625 507 -25C507 -38.61712646484375 495.61712646484375 -50 482 -50H121.44775390625C272.5599365234375 -216.55174255371094 507 -289.5989227294922 507 -535C507 -646.9916839599609 400.3266906738281 -728 276 -728C151.9136199951172 -728 43 -647.3156127929688 43 -535C43 -521.3828735351562 54.38287353515625 -510 68 -510Z"/>
</svg>