<svg xmlns="http://www.w3.org/2000/svg" viewBox="0 -1000 1000 1000">
	<path fill="#000000" d="M80 -532C66.38287353515625 -532 55 -520.6171264648438 55 -507V-260C55 -106.07637023925781 139.00514221191406 12 275 12C410.99530029296875 12 495 -106.07627868652344 495 -260V-507C495 -520.6171264648438 483.61712646484375 -532 470 -532C456.38287353515625 -532 445 -520.6171264648438 445 -507V-260C445 -121.92372131347656 375.00469970703125 -38 275 -38C174.99485778808594 -38 105 -121.92362976074219 105 -260V-507C105 -520.6171264648438 93.61712646484375 -532 80 -532ZM575 171C575 157.38287353515625 563.6171264648438 146 550 146H0C-13.61712646484375 146 -25 157.38287353515625 -25 171C-25 184.61712646484375 -13.61712646484375 196 0 196H550C563.6171264648438 196 575 184.61712646484375 575 171ZM575 -691C575 -704.6171264648438 563.6171264648438 -716 550 -716H0C-13.61712646484375 -716 -25 -704.6171264648438 -25 -691C-25 -677.3828735351562 -13.61712646484375 -666 0 -666H550C563.6171264648438 -666 575 -677.3828735351562 575 -691Z"/>
</svg>