<svg xmlns="http://www.w3.org/2000/svg" viewBox="0 -1000 1000 1000">
	<path fill="#000000" d="M335.84410095214844 -519.3073272705078C322.604248046875 -522.4905090332031 308.8758544921875 -514.0839385986328 305.6926574707031 -500.8440856933594L214.67987060546875 -122.29530334472656L104.00114440917969 -501.9960632324219C100.19050598144531 -515.0691375732422 86.07701110839844 -522.8117980957031 73.00393676757812 -519.0011444091797C59.930877685546875 -515.1904907226562 52.18821716308594 -501.0769958496094 55.998870849609375 -488.00392150878906L192.99887084960938 -18.003921508789062C194.7989501953125 -11.828399658203125 201.02398681640625 -3.907318115234375 209.26683044433594 -1.2260894775390625C222.9324493408203 3.21905517578125 237.9480438232422 -5.1836395263671875 241.3073272705078 -19.1558837890625L354.3073272705078 -489.1558837890625C357.4905090332031 -502.39573669433594 349.0839385986328 -516.1241302490234 335.8440856933594 -519.3073272705078ZM422.99998474121094 -691C422.99998474121094 -704.6171264648438 411.6171112060547 -716 397.99998474121094 -716H-1.52587890625e-05C-13.617141723632812 -716 -25.000015258789062 -704.6171264648438 -25.000015258789062 -691C-25.000015258789062 -677.3828735351562 -13.617141723632812 -666 -1.52587890625e-05 -666H397.99998474121094C411.6171112060547 -666 422.99998474121094 -677.3828735351562 422.99998474121094 -691ZM422.99998474121094 171C422.99998474121094 157.38287353515625 411.6171112060547 146 397.99998474121094 146H-1.52587890625e-05C-13.617141723632812 146 -25.000015258789062 157.38287353515625 -25.000015258789062 171C-25.000015258789062 184.61712646484375 -13.617141723632812 196 -1.52587890625e-05 196H397.99998474121094C411.6171112060547 196 422.99998474121094 184.61712646484375 422.99998474121094 171Z"/>
</svg>