<svg xmlns="http://www.w3.org/2000/svg" viewBox="0 -1000 1000 1000">
	<path fill="#000000" d="M80 -728C66.38287353515625 -728 55 -716.6171264648438 55 -703V-260C55 -123.04057312011719 60.25611877441406 12 177 12C235.41128540039062 12 259.723876953125 -55.161224365234375 273.74237060546875 -103.78753662109375C287.8170471191406 -53.40428161621094 313.0978240966797 12 373 12C489.7375946044922 12 495 -123.02769470214844 495 -260V-703C495 -716.6171264648438 483.61712646484375 -728 470 -728C456.38287353515625 -728 445 -716.6171264648438 445 -703V-260C445 -104.91065979003906 430.2624053955078 -38 373 -38C322.8814239501953 -38 300.6285705566406 -246.6287384033203 299.974609375 -261.1265563964844C299.4998016357422 -271.6525421142578 290.9484558105469 -282.9011535644531 278.68141174316406 -284.7274627685547C264.46766662597656 -286.8435974121094 251.0543670654297 -276.06597900390625 250.0599365234375 -261.7300262451172C249.0511474609375 -247.18731689453125 221.15476989746094 -38 177 -38C119.74388122558594 -38 105 -104.93203735351562 105 -260V-703C105 -716.6171264648438 93.61712646484375 -728 80 -728Z"/>
</svg>