<svg xmlns="http://www.w3.org/2000/svg" viewBox="0 -1000 1000 1000">
	<path fill="#000000" d="M80 -532C66.38287353515625 -532 55 -520.6171264648438 55 -507V-260C55 -122.96585083007812 60.26214599609375 12 177 12C237.31784057617188 12 262.76068115234375 -55.472412109375 276.2098388671875 -103.61648559570312C291.54103088378906 -51.9755859375 317.4501190185547 12 377 12C494.2198181152344 12 495 -124.09652709960938 495 -260V-507C495 -520.6171264648438 483.61712646484375 -532 470 -532C456.38287353515625 -532 445 -520.6171264648438 445 -507V-260C445 -103.89662170410156 433.7801818847656 -38 377 -38C326.44154357910156 -38 300.81744384765625 -247.43051147460938 299.9531555175781 -261.52964782714844C299.28636169433594 -272.40724182128906 290.337158203125 -283.28660583496094 278.08251953125 -284.8092346191406C263.82177734375 -286.58111572265625 250.67295837402344 -275.48236083984375 250.025390625 -261.1265563964844C249.37062072753906 -246.6110076904297 227.10433959960938 -38 177 -38C119.73785400390625 -38 105 -104.86297607421875 105 -260V-507C105 -520.6171264648438 93.61712646484375 -532 80 -532ZM575 -691C575 -704.6171264648438 563.6171264648438 -716 550 -716H0C-13.61712646484375 -716 -25 -704.6171264648438 -25 -691C-25 -677.3828735351562 -13.61712646484375 -666 0 -666H550C563.6171264648438 -666 575 -677.3828735351562 575 -691ZM575 171C575 157.38287353515625 563.6171264648438 146 550 146H0C-13.61712646484375 146 -25 157.38287353515625 -25 171C-25 184.61712646484375 -13.61712646484375 196 0 196H550C563.6171264648438 196 575 184.61712646484375 575 171Z"/>
</svg>