<svg xmlns="http://www.w3.org/2000/svg" viewBox="0 -1000 1000 1000">
	<path fill="#000000" d="M55.137603759765625 8.43731689453125C66.81419372558594 15.443283081054688 82.43136596679688 11.538986206054688 89.43731689453125 -0.137603759765625L275 -309.4087371826172L460.56268310546875 -0.137603759765625C467.5686340332031 11.538986206054688 483.18580627441406 15.443283081054688 494.8623962402344 8.43731689453125C506.5389862060547 1.431365966796875 510.4432830810547 -14.185806274414062 503.43731689453125 -25.862396240234375L304.1547546386719 -358L503.43731689453125 -690.1376037597656C510.4432830810547 -701.8141937255859 506.5389862060547 -717.4313659667969 494.8623962402344 -724.4373168945312C483.18580627441406 -731.4432830810547 467.5686340332031 -727.5389862060547 460.56268310546875 -715.8623962402344L275 -406.5912628173828L89.43731689453125 -715.8623962402344C82.43136596679688 -727.5389862060547 66.81419372558594 -731.4432830810547 55.137603759765625 -724.4373168945312C43.46101379394531 -717.4313659667969 39.55671691894531 -701.8141937255859 46.56268310546875 -690.1376037597656L245.84524536132812 -358L46.56268310546875 -25.862396240234375C39.55671691894531 -14.185806274414062 43.46101379394531 1.431365966796875 55.137603759765625 8.43731689453125Z"/>
</svg>