<svg xmlns="http://www.w3.org/2000/svg" viewBox="0 -1000 1000 1000">
	<path fill="#000000" d="M-25 171C-25 184.61712646484375 -13.61712646484375 196 0 196H482C495.6171875 196 507 184.6171875 507 171C507 157.3828125 495.6171875 146 482 146H0C-13.61712646484375 146 -25 157.38287353515625 -25 171ZM-25 -691C-25 -677.3828735351562 -13.61712646484375 -666 0 -666H482C495.6171875 -666 507 -677.3828125 507 -691C507 -704.6171875 495.6171875 -716 482 -716H0C-13.61712646484375 -716 -25 -704.6171264648438 -25 -691ZM65.93022155761719 -515.6649780273438C54.67430114746094 -508.0013885498047 51.67140197753906 -492.1861267089844 59.33500671386719 -480.9302215576172L209.75558471679688 -260L59.33500671386719 -39.06977844238281C51.67140197753906 -27.813888549804688 54.67430114746094 -11.998626708984375 65.93020629882812 -4.3350372314453125C77.18611145019531 3.3285675048828125 93.00137329101562 0.3256683349609375 100.66496276855469 -10.93023681640625L239.99998474121094 -215.57855224609375L379.3350067138672 -10.93023681640625C386.99859619140625 0.32568359375 402.81385803222656 3.328582763671875 414.06976318359375 -4.33502197265625C425.32566833496094 -11.998611450195312 428.3285675048828 -27.813873291015625 420.6649627685547 -39.06977844238281L270.244384765625 -260L420.6649627685547 -480.9302215576172C428.3285675048828 -492.1861114501953 425.32566833496094 -508.0013732910156 414.06976318359375 -515.6649627685547C402.81385803222656 -523.3285675048828 386.99859619140625 -520.3256683349609 379.3350067138672 -509.06976318359375L239.99998474121094 -304.42144775390625L100.66496276855469 -509.06976318359375C93.00137329101562 -520.32568359375 77.18611145019531 -523.3285827636719 65.93020629882812 -515.6649780273438Z"/>
</svg>