<svg xmlns="http://www.w3.org/2000/svg" viewBox="0 -1000 1000 1000">
	<path fill="#000000" d="M67.82737731933594 -516.8363800048828C55.93341064453125 -510.2061462402344 51.533355712890625 -494.7213439941406 58.163604736328125 -482.827392578125L186.02761840820312 -253.45301818847656L187.00021362304688 -24.893630981445312C187.05816650390625 -11.276626586914062 198.4893798828125 0.057708740234375 212.10638427734375 -0.000244140625C225.723388671875 -0.0581817626953125 237.05772399902344 -11.489395141601562 236.99977111816406 -25.106399536132812L236.02578735351562 -253.9918975830078L354.2266845703125 -483.5556335449219C360.4602813720703 -495.6622009277344 355.5509338378906 -510.99314880371094 343.4443817138672 -517.2267303466797C331.33782958984375 -523.4603118896484 316.0068817138672 -518.5509643554688 309.77330017089844 -506.4444122314453L210.12548828125 -312.9135437011719L101.83636474609375 -507.1726531982422C95.20613098144531 -519.0666198730469 79.72132873535156 -523.4666748046875 67.82737731933594 -516.83642578125ZM-25 -691.0000457763672C-25 -677.3829193115234 -13.61712646484375 -666.0000457763672 0 -666.0000457763672H400C413.61712646484375 -666.0000457763672 425 -677.3829193115234 425 -691.0000457763672C425 -704.6171722412109 413.61712646484375 -716.0000457763672 400 -716.0000457763672H0C-13.61712646484375 -716.0000457763672 -25 -704.6171722412109 -25 -691.0000457763672ZM-25 170.9999542236328C-25 184.61708068847656 -13.61712646484375 195.9999542236328 0 195.9999542236328H400C413.61712646484375 195.9999542236328 425 184.61708068847656 425 170.9999542236328C425 157.38282775878906 413.61712646484375 145.9999542236328 400 145.9999542236328H0C-13.61712646484375 145.9999542236328 -25 157.38282775878906 -25 170.9999542236328Z"/>
</svg>