<svg xmlns="http://www.w3.org/2000/svg" viewBox="0 -1000 1000 1000">
	<path fill="#000000" d="M43 -691C43 -677.3828735351562 54.38287353515625 -666 68 -666H437.02294921875L46.76786804199219 -38.19834899902344C39.18125915527344 -25.993759155273438 43.74598693847656 -9.40350341796875 56.50816345214844 -2.79779052734375C60.0357666015625 -0.9719085693359375 65.3909912109375 1.52587890625e-05 68.00001525878906 1.52587890625e-05H482.00001525878906C495.6171417236328 1.52587890625e-05 507.00001525878906 -11.382858276367188 507.00001525878906 -24.999984741210938C507.00001525878906 -38.61711120605469 495.6171417236328 -49.99998474121094 482.00001525878906 -49.99998474121094H112.97706604003906L503.2321472167969 -677.8016357421875C503.75624084472656 -678.644775390625 506.6079406738281 -685.0359802246094 506.9229431152344 -689.03857421875C508.05039978027344 -703.3646850585938 496.3704071044922 -716 482 -716H68C54.38287353515625 -716 43 -704.6171264648438 43 -691Z"/>
</svg>