<svg xmlns="http://www.w3.org/2000/svg" viewBox="0 -1000 1000 1000">
	<path fill="#000000" d="M-25 171C-25 184.61712646484375 -13.61712646484375 196 0 196H482C495.61712646484375 196 507 184.61712646484375 507 171C507 157.38287353515625 495.61712646484375 146 482 146H0C-13.61712646484375 146 -25 157.38287353515625 -25 171ZM-25 -691C-25 -677.3828735351562 -13.61712646484375 -666 0 -666H482C495.61712646484375 -666 507 -677.3828735351562 507 -691C507 -704.6171264648438 495.61712646484375 -716 482 -716H0C-13.61712646484375 -716 -25 -704.6171264648438 -25 -691ZM55 -495C55 -481.38287353515625 66.38287353515625 -470 80 -470H351.8174133300781L59.31455993652344 -39.03968811035156C51.24430847167969 -27.149383544921875 55.13966369628906 -10.389312744140625 67.62649536132812 -3.276824951171875C71.39047241210938 -1.13287353515625 76.53141784667969 -1.52587890625e-05 79.99998474121094 -1.52587890625e-05H398.99998474121094C412.6171112060547 -1.52587890625e-05 423.99998474121094 -11.382888793945312 423.99998474121094 -25.000015258789062C423.99998474121094 -38.61714172363281 412.6171112060547 -50.00001525878906 398.99998474121094 -50.00001525878906H127.18257141113281L419.6854248046875 -480.9603271484375C421.38282775878906 -483.461181640625 423.58009338378906 -488.68211364746094 423.9229431152344 -493.03857421875C425.05039978027344 -507.36468505859375 413.3704071044922 -520 399 -520H80C66.38287353515625 -520 55 -508.61712646484375 55 -495Z"/>
</svg>