<svg xmlns="http://www.w3.org/2000/svg" viewBox="0 -1000 1000 1000">
	<path fill="#000000" d="M275 -38C221.10987854003906 -38 178.0517578125 -59.5523681640625 148.75262451171875 -98.99644470214844L428.4796600341797 -565.2081604003906C439.31971740722656 -534.3161010742188 444.99998474121094 -497.66644287109375 444.99998474121094 -456V-260C444.99998474121094 -121.17095947265625 381.90928649902344 -38 274.99998474121094 -38ZM55.13758850097656 8.43731689453125C66.81417846679688 15.443283081054688 82.43135070800781 11.538986206054688 89.43730163574219 -0.137603759765625L121.86578369140625 -54.18507385253906C158.67430114746094 -12.727523803710938 210.155517578125 12.000015258789062 274.9999694824219 12.000015258789062C418.0906677246094 12.000015258789062 494.9999694824219 -106.82902526855469 494.9999694824219 -259.99998474121094V-455.99998474121094C494.9999694824219 -516.7415924072266 482.90980529785156 -572.0747222900391 459.39862060546875 -616.7398071289062L503.4372863769531 -690.1375885009766C510.44325256347656 -701.8141784667969 506.53895568847656 -717.4313507080078 494.86236572265625 -724.4373016357422C483.18577575683594 -731.4432678222656 467.568603515625 -727.5389709472656 460.5626525878906 -715.8623809814453L428.2884216308594 -662.0720062255859C391.5892333984375 -703.3680877685547 340.1551971435547 -727.9999847412109 274.9999694824219 -727.9999847412109C132.934814453125 -727.9999847412109 54.999969482421875 -609.406005859375 54.999969482421875 -455.99998474121094V-259.99998474121094C54.999969482421875 -199.34771728515625 67.19883728027344 -144.1099853515625 90.74346923828125 -99.49710083007812L46.56263732910156 -25.862380981445312C39.556671142578125 -14.185791015625 43.460968017578125 1.4313812255859375 55.13755798339844 8.437332153320312ZM401.4259490966797 -617.3012390136719L121.65010070800781 -151.00814819335938C110.74913024902344 -181.8638458251953 104.99995422363281 -218.44349670410156 104.99995422363281 -259.9999694824219V-455.9999694824219C104.99995422363281 -594.8400421142578 169.0651092529297 -677.9999694824219 274.9999542236328 -677.9999694824219C329.2776184082031 -677.9999694824219 372.2598571777344 -656.5709838867188 401.4259490966797 -617.3012237548828Z"/>
</svg>