<svg xmlns="http://www.w3.org/2000/svg" viewBox="0 -1000 1000 1000">
	<path fill="#000000" d="M448 12C461.61712646484375 12 473 0.61712646484375 473 -13V-315C473 -474.6570129394531 366.16619873046875 -532 247 -532C132.6176300048828 -532 70.53085327148438 -454.16407775878906 68.04296875 -451.0776062011719C59.69319152832031 -439.27210998535156 62.16078186035156 -424.7174987792969 72.310791015625 -416.5359649658203C82.45831298828125 -408.3564453125 97.30624389648438 -409.1411437988281 106.85194396972656 -419.56907653808594C109.23722839355469 -422.4567565917969 159.31930541992188 -482 247 -482C349.83380126953125 -482 423 -443.3703308105469 423 -315V-301.7286071777344C386.01414489746094 -334.9007110595703 325.69102478027344 -370 236 -370C129.9783172607422 -370 43 -282.65650939941406 43 -175C43 -56.56744384765625 147.1458282470703 12 251 12C334.45249938964844 12 389.2422180175781 -28.117263793945312 423 -67.71731567382812V-13C423 0.61712646484375 434.38287353515625 12 448 12ZM423 -163.77670288085938C422.54583740234375 -162.9534149169922 422.1265563964844 -162.0945281982422 421.7451629638672 -161.2008056640625C419.7572021484375 -155.73956298828125 375.15232849121094 -38 251 -38C165.9947967529297 -38 93 -91.43255615234375 93 -175C93 -255.34349060058594 158.0216827392578 -320 236 -320C354.3254699707031 -320 409.4129638671875 -247.3004150390625 423 -226.07620239257812Z"/>
</svg>