<svg xmlns="http://www.w3.org/2000/svg" viewBox="0 -1000 1000 1000">
	<path fill="#000000" d="M80 12C93.6171875 12 105 0.6171875 105 -13V-206H355V-13C355 0.6171875 366.3828125 12 380 12C393.6171875 12 405 0.6171875 405 -13V-231V-342C405 -468.2060546875 312.43359375 -532 230 -532C146.5400390625 -532 55 -468.0712890625 55 -342V-231V-13C55 0.6171875 66.3828125 12 80 12ZM485 -691C485 -704.6171875 473.6171875 -716 460 -716H0C-13.6171875 -716 -25 -704.6171875 -25 -691C-25 -677.3828125 -13.6171875 -666 0 -666H460C473.6171875 -666 485 -677.3828125 485 -691ZM485 171C485 157.3828125 473.6171875 146 460 146H0C-13.6171875 146 -25 157.3828125 -25 171C-25 184.6171875 -13.6171875 196 0 196H460C473.6171875 196 485 184.6171875 485 171ZM355 -256H105V-342C105 -439.9287109375 171.4599609375 -482 230 -482C287.56640625 -482 355 -439.8017578125 355 -342Z"/>
</svg>