<svg xmlns="http://www.w3.org/2000/svg" viewBox="0 -1000 1000 1000">
	<path fill="#000000" d="M80 -728C66.38287353515625 -728 55 -716.6171264648438 55 -703V-260V-13C55 0.61712646484375 66.38287353515625 12 80 12C93.61712646484375 12 105 0.61712646484375 105 -13V-78.65403747558594C143.071044921875 -22.557907104492188 201.42735290527344 12.000015258789062 275 12.000015258789062C415.7724609375 12.000015258789062 507 -104.6893310546875 507 -259.99998474121094C507 -415.2825012207031 415.7736358642578 -531.9999847412109 275 -531.9999847412109C201.427490234375 -531.9999847412109 143.07110595703125 -497.4419403076172 105 -441.34568786621094V-702.9999847412109C105 -716.6171112060547 93.61712646484375 -727.9999847412109 80 -727.9999847412109ZM105 -259.99998474121094C105 -398.07635498046875 174.99485778808594 -481.99998474121094 275 -481.99998474121094C382.2263641357422 -481.99998474121094 457 -396.72528076171875 457 -259.99998474121094C457 -123.24813842773438 382.2275390625 -37.99998474121094 275 -37.99998474121094C174.99530029296875 -37.99998474121094 105 -121.9237060546875 105 -259.99998474121094Z"/>
</svg>