<svg xmlns="http://www.w3.org/2000/svg" viewBox="0 -1000 1000 1000">
	<path fill="#000000" d="M105 -285V-470H189C274.291015625 -470 313 -430.412109375 313 -375C313 -304.509765625 274.5009765625 -288.7548828125 264.2646484375 -285ZM105 -235H266.1416015625C281.9755859375 -232.337890625 357 -215.6943359375 357 -136C357 -73.431640625 339.7783203125 -50 275 -50H105ZM325.4765625 -267.498046875C345.8046875 -289.0791015625 363 -323.9140625 363 -375C363 -463.6435546875 291.708984375 -520 189 -520H80C64.8671875 -520 55 -505.7294921875 55 -495V-260V-25C55 -9.8671875 69.2705078125 0 80 0H275C366.2216796875 0 407 -54.5126953125 407 -136C407 -209.0791015625 362.1455078125 -249.0869140625 325.4765625 -267.498046875ZM485 171C485 157.3828125 473.6171875 146 460 146H0C-13.6171875 146 -25 157.3828125 -25 171C-25 184.6171875 -13.6171875 196 0 196H460C473.6171875 196 485 184.6171875 485 171ZM485 -691C485 -704.6171875 473.6171875 -716 460 -716H0C-13.6171875 -716 -25 -704.6171875 -25 -691C-25 -677.3828125 -13.6171875 -666 0 -666H460C473.6171875 -666 485 -677.3828125 485 -691Z"/>
</svg>