<svg xmlns="http://www.w3.org/2000/svg" viewBox="0 -1000 1000 1000">
	<path fill="#000000" d="M437.67767333984375 -424.69732666015625C447.3064270019531 -434.3260955810547 447.3064270019531 -450.4239044189453 437.67767333984375 -460.05267333984375C394.7392578125 -502.9910888671875 342.66346740722656 -532 274.625 -532C133.810791015625 -532 43 -415.21800231933594 43 -260C43 -104.78192138671875 133.809326171875 12 274.625 12C342.66358947753906 12 394.7392272949219 -17.008895874023438 437.67767333984375 -59.94732666015625C447.3064270019531 -69.57609558105469 447.3064270019531 -85.67390441894531 437.67767333984375 -95.30267333984375C428.0489044189453 -104.93142700195312 411.9510955810547 -104.93142700195312 402.32232666015625 -95.30267333984375C365.5107727050781 -58.49110412597656 327.58641052246094 -38 274.625 -38C167.440673828125 -38 93 -123.21807861328125 93 -260C93 -396.78199768066406 167.439208984375 -482 274.625 -482C327.58653259277344 -482 365.5107421875 -461.5089111328125 402.32232666015625 -424.69732666015625C411.9510955810547 -415.0685729980469 428.0489044189453 -415.0685729980469 437.67767333984375 -424.69732666015625Z"/>
</svg>