<svg xmlns="http://www.w3.org/2000/svg" viewBox="0 -1000 1000 1000">
	<path fill="#000000" d="M485 171C485 157.3828125 473.6171875 146 460 146H0C-13.6171875 146 -25 157.3828125 -25 171C-25 184.6171875 -13.6171875 196 0 196H460C473.6171875 196 485 184.6171875 485 171ZM485 -691C485 -704.6171875 473.6171875 -716 460 -716H0C-13.6171875 -716 -25 -704.6171875 -25 -691C-25 -677.3828125 -13.6171875 -666 0 -666H460C473.6171875 -666 485 -677.3828125 485 -691ZM398.828125 -133.9990234375C384.6640625 -133.90234375 374.611328125 -120.6044921875 374.07421875 -111.017578125C373.9013671875 -106.5009765625 376.9091796875 -38 244 -38C149.517578125 -38 93 -95.0458984375 93 -260C93 -423.0224609375 149.7294921875 -482 244 -482C377.6806640625 -482 373.9501953125 -410.4169921875 374.05078125 -407.3876953125C374.759765625 -394.771484375 385.8125 -384.0888671875 398.8310546875 -384.0009765625C411.8671875 -383.912109375 422.98828125 -393.6201171875 423.994140625 -408.0458984375C424.052734375 -416.650390625 416.3056640625 -532 244 -532C114.2626953125 -532 43 -434.9775390625 43 -260C43 -82.9541015625 114.482421875 12 244 12C415.1044921875 12 424.0634765625 -99.84375 423.994140625 -109.95703125C423.146484375 -122.1015625 413.0185546875 -134.0966796875 398.828125 -133.9990234375Z"/>
</svg>