<svg xmlns="http://www.w3.org/2000/svg" viewBox="0 -1000 1000 1000">
	<path fill="#000000" d="M43 -260C43 -105.44378662109375 133.08285522460938 12 263 12C341.4659118652344 12 404.5387268066406 -24.254165649414062 445 -83.24290466308594V-13C445 0.61712646484375 456.38287353515625 12 470 12C483.61712646484375 12 495 0.61712646484375 495 -13V-260V-703C495 -716.6171264648438 483.61712646484375 -728 470 -728C456.38287353515625 -728 445 -716.6171264648438 445 -703V-436.7460479736328C404.5389099121094 -495.73731994628906 341.46632385253906 -531.9999847412109 263 -531.9999847412109C133.0825958251953 -531.9999847412109 43 -414.55628967285156 43 -259.99998474121094ZM93 -259.99998474121094C93 -397.4436798095703 168.9174041748047 -481.99998474121094 263 -481.99998474121094C370.2263641357422 -481.99998474121094 445 -396.72528076171875 445 -259.99998474121094C445 -123.24813842773438 370.2275390625 -37.99998474121094 263 -37.99998474121094C168.91714477539062 -37.99998474121094 93 -122.55619812011719 93 -259.99998474121094Z"/>
</svg>