<svg xmlns="http://www.w3.org/2000/svg" viewBox="0 -1000 1000 1000">
	<path fill="#000000" d="M80 0H211C304.7109375 0 390 -76.9208984375 390 -225C390 -379.0478515625 319.9931640625 -520 163 -520H80C64.8671875 -520 55 -505.7294921875 55 -495V-25C55 -9.8671875 69.2705078125 0 80 0ZM105 -50V-470H163C279.7548828125 -470 340 -368.958984375 340 -225C340 -97.0712890625 273.2890625 -50 211 -50ZM485 171C485 157.3828125 473.6171875 146 460 146H0C-13.6171875 146 -25 157.3828125 -25 171C-25 184.6171875 -13.6171875 196 0 196H460C473.6171875 196 485 184.6171875 485 171ZM485 -691C485 -704.6171875 473.6171875 -716 460 -716H0C-13.6171875 -716 -25 -704.6171875 -25 -691C-25 -677.3828125 -13.6171875 -666 0 -666H460C473.6171875 -666 485 -677.3828125 485 -691Z"/>
</svg>