<svg xmlns="http://www.w3.org/2000/svg" viewBox="0 -1000 1000 1000">
	<path fill="#000000" d="M93.89004516601562 -235H482C492.7299041748047 -235 507 -244.86746215820312 507 -260C507 -415.3004150390625 415.7395935058594 -532 274.625 -532C133.809326171875 -532 43 -415.21807861328125 43 -260C43 -104.78199768066406 133.810791015625 12 274.625 12C370.9285888671875 12 425.8174133300781 -16.087081909179688 469.67767333984375 -59.94732666015625C479.3064270019531 -69.57609558105469 479.3064270019531 -85.67390441894531 469.67767333984375 -95.30267333984375C460.0489044189453 -104.93142700195312 443.9510955810547 -104.93142700195312 434.32232666015625 -95.30267333984375C398.4325866699219 -59.41291809082031 361.0714111328125 -38 274.625 -38C173.97555541992188 -38 102.99624633789062 -113.05006408691406 93.89004516601562 -235ZM93.89004516601562 -285C102.99623107910156 -406.9499053955078 173.9811553955078 -482 274.625 -482C376.1940002441406 -482 446.9722442626953 -406.77064514160156 456.10565185546875 -285Z"/>
</svg>