<svg xmlns="http://www.w3.org/2000/svg" viewBox="0 -1000 1000 1000">
	<path fill="#000000" d="M361 -25C361 -38.6171875 349.6171875 -50 336 -50H105V-235H229C242.6171875 -235 254 -246.3828125 254 -260C254 -273.6171875 242.6171875 -285 229 -285H105V-470H330C343.6171875 -470 355 -481.3828125 355 -495C355 -508.6171875 343.6171875 -520 330 -520H80C69.2705078125 -520 55 -510.1328125 55 -495V-260V-25C55 -14.2705078125 64.8671875 0 80 0H336C349.6171875 0 361 -11.3828125 361 -25ZM423 -691C423 -704.6171875 411.6171875 -716 398 -716H0C-13.6171875 -716 -25 -704.6171875 -25 -691C-25 -677.3828125 -13.6171875 -666 0 -666H398C411.6171875 -666 423 -677.3828125 423 -691ZM423 171C423 157.3828125 411.6171875 146 398 146H0C-13.6171875 146 -25 157.3828125 -25 171C-25 184.6171875 -13.6171875 196 0 196H398C411.6171875 196 423 184.6171875 423 171Z"/>
</svg>