<svg xmlns="http://www.w3.org/2000/svg" viewBox="0 -1000 1000 1000">
	<path fill="#000000" d="M43 -260C43 -246.38287353515625 54.38287353515625 -235 68 -235H145V-13C145 0.61712646484375 156.38287353515625 12 170 12C183.61712646484375 12 195 0.61712646484375 195 -13V-235H268C281.61712646484375 -235 293 -246.38287353515625 293 -260C293 -273.61712646484375 281.61712646484375 -285 268 -285H195V-575C195 -666.2477874755859 263.34544372558594 -665.8810119628906 269.2290496826172 -666.0269012451172C282.9674987792969 -666.9276733398438 293.03431701660156 -678.0360260009766 292.9999084472656 -691.0660095214844C292.9654846191406 -704.1028442382812 283.1532745361328 -715.1321563720703 268.7195281982422 -716.0019989013672C265.7535858154297 -715.9941711425781 145 -712.7204284667969 145 -575V-285H68C54.38287353515625 -285 43 -273.61712646484375 43 -260Z"/>
</svg>