<svg xmlns="http://www.w3.org/2000/svg" viewBox="0 -1000 1000 1000">
	<path fill="#000000" d="M43 -260C43 -104.72148132324219 134.2259979248047 12 275 12C348.57154846191406 12 406.928466796875 -22.54937744140625 445 -78.64302062988281V-25C445 50.21049499511719 400.24798583984375 158 290 158C174.55419921875 158 101.04487609863281 71.21211242675781 98.7825927734375 68.48638916015625C89.04721069335938 58.01641845703125 74.24406433105469 57.399505615234375 64.15943908691406 65.658935546875C54.07356262207031 73.91938781738281 51.7196044921875 88.49284362792969 60.161163330078125 100.2327880859375C62.35511779785156 102.91157531738281 146.96359252929688 208 290 208C441.75201416015625 208 495 61.80122375488281 495 -25V-260V-507C495 -520.6171264648438 483.61712646484375 -532 470 -532C456.38287353515625 -532 445 -520.6171264648438 445 -507V-441.34596252441406C406.928955078125 -497.4420928955078 348.57264709472656 -532.0000152587891 275 -532.0000152587891C134.22454833984375 -532.0000152587891 43 -415.2785949707031 43 -260.00001525878906ZM93 -260.00001525878906C93 -396.721435546875 167.77545166015625 -482.00001525878906 275 -482.00001525878906C375.00469970703125 -482.00001525878906 445 -398.0762939453125 445 -260.00001525878906C445 -121.89369201660156 375.00811767578125 -38.00001525878906 275 -38.00001525878906C167.7740020751953 -38.00001525878906 93 -123.27853393554688 93 -260.00001525878906Z"/>
</svg>