<svg xmlns="http://www.w3.org/2000/svg" viewBox="0 -1000 1000 1000">
	<path fill="#000000" d="M485 171C485 157.3828125 473.6171875 146 460 146H0C-13.6171875 146 -25 157.3828125 -25 171C-25 184.6171875 -13.6171875 196 0 196H460C473.6171875 196 485 184.6171875 485 171ZM485 -691C485 -704.6171875 473.6171875 -716 460 -716H0C-13.6171875 -716 -25 -704.6171875 -25 -691C-25 -677.3828125 -13.6171875 -666 0 -666H460C473.6171875 -666 485 -677.3828125 485 -691ZM398.8310546875 -384.0009765625C413.021484375 -383.904296875 423.1474609375 -395.900390625 423.994140625 -408.0458984375C424.0595703125 -417.767578125 415.517578125 -532 244 -532C114.2626953125 -532 43 -434.9775390625 43 -260C43 -82.9541015625 114.482421875 12 244 12C415.912109375 12 424.0517578125 -101.51171875 423.9990234375 -109.2509765625L421.998046875 -260.3310546875C421.80859375 -274.6494140625 408.919921875 -285 397 -285H275C261.3828125 -285 250 -273.6171875 250 -260C250 -246.3828125 261.3828125 -235 275 -235H372.3291015625L373.9970703125 -109.0224609375C373.9892578125 -108.806640625 377.609375 -38 244 -38C149.517578125 -38 93 -95.0458984375 93 -260C93 -423.0224609375 149.7294921875 -482 244 -482C377.12109375 -482 373.9287109375 -411.072265625 374.05078125 -407.3876953125C374.630859375 -397.0546875 384.6591796875 -384.0966796875 398.8310546875 -384.0009765625Z"/>
</svg>