<svg xmlns="http://www.w3.org/2000/svg" viewBox="0 -1000 1000 1000">
	<path fill="#000000" d="M80 -728C66.38287353515625 -728 55 -716.6171264648438 55 -703V-13C55 0.61712646484375 66.38287353515625 12 80 12C93.61712646484375 12 105 0.61712646484375 105 -13V-409.56007385253906C120.08035278320312 -428.3272705078125 169.1697235107422 -482.00001525878906 236 -482.00001525878906C288.34893798828125 -482.00001525878906 348 -441.4006652832031 348 -305.00001525878906V-11.000015258789062C348 2.6171112060546875 359.38287353515625 13.999984741210938 373 13.999984741210938C386.61712646484375 13.999984741210938 398 2.6171112060546875 398 -11.000015258789062V-305.00001525878906C398 -456.607177734375 323.65106201171875 -532.0000152587891 236 -532.0000152587891C179.53639221191406 -532.0000152587891 135.19825744628906 -506.7361602783203 105 -481.5216369628906V-703.0000152587891C105 -716.6171417236328 93.61712646484375 -728.0000152587891 80 -728.0000152587891Z"/>
</svg>