<svg xmlns="http://www.w3.org/2000/svg" viewBox="0 -1000 1000 1000">
	<path fill="#000000" d="M330 -520C316.3828125 -520 305 -508.6171875 305 -495V-285H105V-495C105 -508.6171875 93.6171875 -520 80 -520C66.3828125 -520 55 -508.6171875 55 -495V-260V-25C55 -11.3828125 66.3828125 0 80 0C93.6171875 0 105 -11.3828125 105 -25V-235H305V-25C305 -11.3828125 316.3828125 0 330 0C343.6171875 0 355 -11.3828125 355 -25V-495C355 -508.6171875 343.6171875 -520 330 -520ZM423 -691C423 -704.6171875 411.6171875 -716 398 -716H0C-13.6171875 -716 -25 -704.6171875 -25 -691C-25 -677.3828125 -13.6171875 -666 0 -666H398C411.6171875 -666 423 -677.3828125 423 -691ZM423 171C423 157.3828125 411.6171875 146 398 146H0C-13.6171875 146 -25 157.3828125 -25 171C-25 184.6171875 -13.6171875 196 0 196H398C411.6171875 196 423 184.6171875 423 171Z"/>
</svg>