<svg xmlns="http://www.w3.org/2000/svg" viewBox="0 -1000 1000 1000">
	<path fill="#000000" d="M80 -532C66.3828125 -532 55 -520.6171875 55 -507V-13C55 0.6171875 66.3828125 12 80 12C93.6171875 12 105 0.6171875 105 -13V-507C105 -520.6171875 93.6171875 -532 80 -532ZM185 -691C185 -704.6171875 173.6171875 -716 160 -716H0C-13.6171875 -716 -25 -704.6171875 -25 -691C-25 -677.3828125 -13.6171875 -666 0 -666H160C173.6171875 -666 185 -677.3828125 185 -691ZM185 171C185 157.3828125 173.6171875 146 160 146H0C-13.6171875 146 -25 157.3828125 -25 171C-25 184.6171875 -13.6171875 196 0 196H160C173.6171875 196 185 184.6171875 185 171Z"/>
</svg>