<svg xmlns="http://www.w3.org/2000/svg" viewBox="0 -1000 1000 1000">
	<path fill="#000000" d="M-24.963653564453125 105.34750366210938C-24.19879150390625 119.51731872558594 -11.610580444335938 128.8975830078125 0.5631256103515625 129.00601196289062C9.837570190429688 128.50538635253906 105 115.19047546386719 105 -25V-507C105 -520.6171264648438 93.61712646484375 -532 80 -532C66.38287353515625 -532 55 -520.6171264648438 55 -507V-25C55 77.82728576660156 1.4403533935546875 78.7364501953125 -3.9592437744140625 79.29301452636719C-12.707290649414062 80.31907653808594 -25.726730346679688 91.21099853515625 -24.963653564453125 105.34750366210938ZM39 -661C39 -638.3779296875 57.3779296875 -620 80 -620C102.6220703125 -620 121 -638.3779296875 121 -661C121 -683.6220703125 102.6220703125 -702 80 -702C57.3779296875 -702 39 -683.6220703125 39 -661Z"/>
</svg>