<svg xmlns="http://www.w3.org/2000/svg" viewBox="0 -1000 1000 1000">
	<path fill="#000000" d="M68 -200C54.3828125 -200 43 -188.6171875 43 -175C43 -100.572265625 68.435546875 12 168 12C263.1064453125 12 300 -95.7060546875 300 -175V-507C300 -520.6171875 288.6171875 -532 275 -532C261.3828125 -532 250 -520.6171875 250 -507V-175C250 -100.2939453125 214.8935546875 -38 168 -38C119.564453125 -38 93 -99.427734375 93 -175C93 -188.6171875 81.6171875 -200 68 -200ZM380 171C380 157.3828125 368.6171875 146 355 146H0C-13.6171875 146 -25 157.3828125 -25 171C-25 184.6171875 -13.6171875 196 0 196H355C368.6171875 196 380 184.6171875 380 171ZM380 -691C380 -704.6171875 368.6171875 -716 355 -716H-5C-18.6171875 -716 -30 -704.6171875 -30 -691C-30 -677.3828125 -18.6171875 -666 -5 -666H355C368.6171875 -666 380 -677.3828125 380 -691Z"/>
</svg>