<svg xmlns="http://www.w3.org/2000/svg" viewBox="0 -1000 1000 1000">
	<path fill="#000000" d="M80 -728C66.38287353515625 -728 55 -716.6171264648438 55 -703V-13C55 0.61712646484375 66.38287353515625 12 80 12C93.61712646484375 12 105 0.61712646484375 105 -13V-228.60841369628906C175.84487915039062 -198.85406494140625 314 -72.83421325683594 314 -12.999984741210938C314 0.6171417236328125 325.38287353515625 12.000015258789062 339 12.000015258789062C352.61712646484375 12.000015258789062 364 0.6171417236328125 364 -12.999984741210938C364 -99.353515625 245.8658447265625 -207.6644744873047 159.07675170898438 -257.67547607421875C241.6914520263672 -297.99217224121094 355 -393.5370330810547 355 -506.99998474121094C355 -520.6171112060547 343.61712646484375 -531.9999847412109 330 -531.9999847412109C316.38287353515625 -531.9999847412109 305 -520.6171112060547 305 -506.99998474121094C305 -411.2912902832031 175.35488891601562 -312.11822509765625 105 -289.6903839111328V-702.9999847412109C105 -716.6171112060547 93.61712646484375 -727.9999847412109 80 -727.9999847412109Z"/>
</svg>