<svg xmlns="http://www.w3.org/2000/svg" viewBox="0 -1000 1000 1000">
	<path fill="#000000" d="M80 -532C66.3828125 -532 55 -520.6171875 55 -507V-13C55 0.6171875 66.3828125 12 80 12C93.6171875 12 105 0.6171875 105 -13V-233.4462890625C274.052734375 -216.7529296875 340.546875 -79.0869140625 376.3486328125 -2.421875C382.1103515625 9.916015625 397.240234375 15.4130859375 409.578125 9.6513671875C421.916015625 3.8896484375 427.4130859375 -11.240234375 421.6513671875 -23.578125C392.455078125 -86.099609375 337.3779296875 -205.3701171875 207.0771484375 -259.4296875C340.2216796875 -317.0625 404.3486328125 -458.6689453125 421.7265625 -496.583984375C427.400390625 -508.962890625 421.794921875 -524.052734375 409.416015625 -529.7265625C397.037109375 -535.400390625 381.947265625 -529.794921875 376.2734375 -517.416015625C354.6435546875 -470.224609375 273.4013671875 -297.056640625 105 -285.5166015625V-507C105 -520.6171875 93.6171875 -532 80 -532ZM492 -691C492 -704.6171875 480.6171875 -716 467 -716H0C-13.6171875 -716 -25 -704.6171875 -25 -691C-25 -677.3828125 -13.6171875 -666 0 -666H467C480.6171875 -666 492 -677.3828125 492 -691ZM492 171C492 157.3828125 480.6171875 146 467 146H0C-13.6171875 146 -25 157.3828125 -25 171C-25 184.6171875 -13.6171875 196 0 196H467C480.6171875 196 492 184.6171875 492 171Z"/>
</svg>