<svg xmlns="http://www.w3.org/2000/svg" viewBox="0 -1000 1000 1000">
	<path fill="#000000" d="M492 171C492 157.3828125 480.6171875 146 467 146H0C-13.6171875 146 -25 157.3828125 -25 171C-25 184.6171875 -13.6171875 196 0 196H467C480.6171875 196 492 184.6171875 492 171ZM492 -691C492 -704.6171875 480.6171875 -716 467 -716H0C-13.6171875 -716 -25 -704.6171875 -25 -691C-25 -677.3828125 -13.6171875 -666 0 -666H467C480.6171875 -666 492 -677.3828125 492 -691ZM80 -532C66.3828125 -532 55 -520.6171875 55 -507V-25C55 -9.8671875 69.2705078125 0 80 0H399C412.6171875 0 424 -11.3828125 424 -25C424 -38.6171875 412.6171875 -50 399 -50H105V-507C105 -520.6171875 93.6171875 -532 80 -532Z"/>
</svg>