<svg xmlns="http://www.w3.org/2000/svg" viewBox="0 -1000 1000 1000">
	<path fill="#000000" d="M80 -532C66.38287353515625 -532 55 -520.6171264648438 55 -507V-13C55 0.61712646484375 66.38287353515625 12 80 12C93.61712646484375 12 105 0.61712646484375 105 -13V-398.40586853027344C119.16651916503906 -418.59815979003906 169.20565795898438 -481.99998474121094 236 -481.99998474121094C290.01605224609375 -481.99998474121094 348 -448.3457946777344 348 -312.99998474121094V-10.999984741210938C348 2.6171417236328125 359.38287353515625 14.000015258789062 373 14.000015258789062C386.61712646484375 14.000015258789062 398 2.6171417236328125 398 -10.999984741210938V-312.99998474121094C398 -345.003662109375 394.6592559814453 -373.2135772705078 388.5862731933594 -397.8138732910156C402.16864013671875 -417.3253479003906 452.5385284423828 -481.99998474121094 520 -481.99998474121094C574.0160522460938 -481.99998474121094 632 -448.3457946777344 632 -312.99998474121094V-10.999984741210938C632 2.6171417236328125 643.3828735351562 14.000015258789062 657 14.000015258789062C670.6171264648438 14.000015258789062 682 2.6171417236328125 682 -10.999984741210938V-312.99998474121094C682 -465.6619873046875 605.9839477539062 -531.9999847412109 520 -531.9999847412109C447.8851776123047 -531.9999847412109 395.9189147949219 -486.56361389160156 367.4093933105469 -453.09100341796875C337.3836975097656 -507.2181091308594 288.55369567871094 -531.9999847412109 236 -531.9999847412109C179.3785858154297 -531.9999847412109 135.1781768798828 -503.98980712890625 105 -475.7525939941406V-506.99998474121094C105 -520.6171112060547 93.61712646484375 -531.9999847412109 80 -531.9999847412109Z"/>
</svg>