<svg xmlns="http://www.w3.org/2000/svg" viewBox="0 -1000 1000 1000">
	<path fill="#000000" d="M80 12C93.6171875 12 105 0.6171875 105 -13V-415.4775390625L254.4716796875 -162.2900390625C261.77734375 -149.916015625 278.595703125 -146.28125 290.359375 -154.53515625C293.2900390625 -156.591796875 295.9208984375 -159.5400390625 297.5849609375 -162.38671875L445 -414.6640625V-13C445 0.6171875 456.3828125 12 470 12C483.6171875 12 495 0.6171875 495 -13V-507C495 -513.0078125 491.3828125 -522.583984375 484.267578125 -527.529296875C472.466796875 -535.73046875 455.6650390625 -532.0205078125 448.4150390625 -519.61328125L275.8896484375 -224.36328125L101.5283203125 -519.7099609375C98.5791015625 -524.705078125 90.5966796875 -531.2431640625 81.9619140625 -531.9228515625C67.6357421875 -533.05078125 55 -521.3701171875 55 -507V-13C55 0.6171875 66.3828125 12 80 12ZM575 -691C575 -704.6171875 563.6171875 -716 550 -716H0C-13.6171875 -716 -25 -704.6171875 -25 -691C-25 -677.3828125 -13.6171875 -666 0 -666H550C563.6171875 -666 575 -677.3828125 575 -691ZM575 171C575 157.3828125 563.6171875 146 550 146H0C-13.6171875 146 -25 157.3828125 -25 171C-25 184.6171875 -13.6171875 196 0 196H550C563.6171875 196 575 184.6171875 575 171Z"/>
</svg>