<svg xmlns="http://www.w3.org/2000/svg" viewBox="0 -1000 1000 1000">
	<path fill="#000000" d="M80 -532C66.38287353515625 -532 55 -520.6171264648438 55 -507V-25C55 -11.38287353515625 66.38287353515625 0 80 0C93.61712646484375 0 105 -11.38287353515625 105 -25V-398.40586853027344C119.16651916503906 -418.59815979003906 169.20565795898438 -481.99998474121094 236 -481.99998474121094C290.01605224609375 -481.99998474121094 348 -448.3457946777344 348 -312.99998474121094V-22.999984741210938C348 -9.382858276367188 359.38287353515625 2.0000152587890625 373 2.0000152587890625C386.61712646484375 2.0000152587890625 398 -9.382858276367188 398 -22.999984741210938V-312.99998474121094C398 -465.6619873046875 321.98394775390625 -531.9999847412109 236 -531.9999847412109C179.3785858154297 -531.9999847412109 135.1781768798828 -503.98980712890625 105 -475.7525939941406V-506.99998474121094C105 -520.6171112060547 93.61712646484375 -531.9999847412109 80 -531.9999847412109Z"/>
</svg>