<svg xmlns="http://www.w3.org/2000/svg" viewBox="0 -1000 1000 1000">
	<path fill="#000000" d="M485 171C485 157.3828125 473.6171875 146 460 146H0C-13.6171875 146 -25 157.3828125 -25 171C-25 184.6171875 -13.6171875 196 0 196H460C473.6171875 196 485 184.6171875 485 171ZM485 -691C485 -704.6171875 473.6171875 -716 460 -716H0C-13.6171875 -716 -25 -704.6171875 -25 -691C-25 -677.3828125 -13.6171875 -666 0 -666H460C473.6171875 -666 485 -677.3828125 485 -691ZM80 12C93.6171875 12 105 0.6171875 105 -13V-417.669921875L358.6318359375 -0.0234375C366.0908203125 12.259765625 382.953125 15.6845703125 394.61328125 7.2841796875C401.1845703125 2.55078125 405 -5.5439453125 405 -13V-507C405 -520.6171875 393.6171875 -532 380 -532C366.3828125 -532 355 -520.6171875 355 -507V-102.330078125L101.3681640625 -519.9765625C98.6572265625 -524.4404296875 90.5830078125 -531.244140625 81.9619140625 -531.9228515625C67.6357421875 -533.05078125 55 -521.3701171875 55 -507V-13C55 0.6171875 66.3828125 12 80 12Z"/>
</svg>