<svg xmlns="http://www.w3.org/2000/svg" viewBox="0 -1000 1000 1000">
	<path fill="#000000" d="M575 171C575 157.3828125 563.6171875 146 550 146H0C-13.6171875 146 -25 157.3828125 -25 171C-25 184.6171875 -13.6171875 196 0 196H550C563.6171875 196 575 184.6171875 575 171ZM575 -691C575 -704.6171875 563.6171875 -716 550 -716H0C-13.6171875 -716 -25 -704.6171875 -25 -691C-25 -677.3828125 -13.6171875 -666 0 -666H550C563.6171875 -666 575 -677.3828125 575 -691ZM93 -260C93 -396.7216796875 167.775390625 -482 275 -482C382.2255859375 -482 457 -396.7216796875 457 -260C457 -123.2783203125 382.224609375 -38 275 -38C167.7744140625 -38 93 -123.2783203125 93 -260ZM43 -260C43 -104.7216796875 134.2255859375 12 275 12C415.775390625 12 507 -104.7216796875 507 -260C507 -415.2783203125 415.7744140625 -532 275 -532C134.224609375 -532 43 -415.2783203125 43 -260Z"/>
</svg>