<svg xmlns="http://www.w3.org/2000/svg" viewBox="0 -1000 1000 1000">
	<path fill="#000000" d="M473 -691C473 -704.6171875 461.6171875 -716 448 -716H0C-13.6171875 -716 -25 -704.6171875 -25 -691C-25 -677.3828125 -13.6171875 -666 0 -666H448C461.6171875 -666 473 -677.3828125 473 -691ZM473 171C473 157.3828125 461.6171875 146 448 146H0C-13.6171875 146 -25 157.3828125 -25 171C-25 184.6171875 -13.6171875 196 0 196H448C461.6171875 196 473 184.6171875 473 171ZM55 -195V-13C55 0.6171875 66.3828125 12 80 12C93.6171875 12 105 0.6171875 105 -13V-170H250C333.587890625 -170 405 -226.5703125 405 -340C405 -455.6767578125 321.8017578125 -520 237 -520H80C66.3828125 -520 55 -508.6171875 55 -495ZM105 -470H237C296.1982421875 -470 355 -428.3310546875 355 -340C355 -251.421875 308.412109375 -220 250 -220H105Z"/>
</svg>