<svg xmlns="http://www.w3.org/2000/svg" viewBox="0 -1000 1000 1000">
	<path fill="#000000" d="M43 -260C43 -104.72148132324219 134.2259979248047 12 275 12C348.571533203125 12 406.92845153808594 -22.54925537109375 445 -78.64286804199219V183C445 196.61712646484375 456.38287353515625 208 470 208C483.61712646484375 208 495 196.61712646484375 495 183V-260V-507C495 -520.6171264648438 483.61712646484375 -532 470 -532C456.38287353515625 -532 445 -520.6171264648438 445 -507V-441.3473815917969C406.9289093017578 -497.44317626953125 348.57252502441406 -532 275 -532C134.22454833984375 -532 43 -415.27857971191406 43 -260ZM93 -260C93 -396.72142028808594 167.77545166015625 -482 275 -482C375.0050811767578 -482 445 -398.080078125 445 -260C445 -121.89326477050781 375.0081481933594 -38 275 -38C167.7740020751953 -38 93 -123.27851867675781 93 -260Z"/>
</svg>