<svg xmlns="http://www.w3.org/2000/svg" viewBox="0 -1000 1000 1000">
	<path fill="#000000" d="M43 -260C43 -104.7216796875 134.2255859375 12 275 12C334.3916015625 12 384.9638671875 -8.775390625 423.5869140625 -44.45703125L462.7255859375 2.921875C471.3984375 13.419921875 487.423828125 14.9462890625 497.921875 6.2744140625C508.419921875 -2.3984375 509.9462890625 -18.423828125 501.2744140625 -28.921875L456.7236328125 -82.8515625C489.0263671875 -129.7470703125 507 -191.0751953125 507 -260C507 -415.2783203125 415.7744140625 -532 275 -532C134.224609375 -532 43 -415.2783203125 43 -260ZM93 -260C93 -396.7216796875 167.775390625 -482 275 -482C382.2255859375 -482 457 -396.7216796875 457 -260C457 -193.7373046875 439.435546875 -139.5576171875 409.1259765625 -101.3134765625C409.1103515625 -101.30078125 409.09375 -101.287109375 409.078125 -101.2744140625C406.685546875 -99.296875 404.7587890625 -96.9384765625 403.3125 -94.3505859375C371.400390625 -58.0712890625 327.0185546875 -38 275 -38C167.7744140625 -38 93 -123.2783203125 93 -260ZM575 -691C575 -704.6171875 563.6171875 -716 550 -716H0C-13.6171875 -716 -25 -704.6171875 -25 -691C-25 -677.3828125 -13.6171875 -666 0 -666H550C563.6171875 -666 575 -677.3828125 575 -691ZM575 171C575 157.3828125 563.6171875 146 550 146H0C-13.6171875 146 -25 157.3828125 -25 171C-25 184.6171875 -13.6171875 196 0 196H550C563.6171875 196 575 184.6171875 575 171Z"/>
</svg>