<svg xmlns="http://www.w3.org/2000/svg" viewBox="0 -1000 1000 1000">
	<path fill="#000000" d="M80 -532C66.38287353515625 -532 55 -520.6171264648438 55 -507V-25C55 -11.38287353515625 66.38287353515625 0 80 0C93.61712646484375 0 105 -11.38287353515625 105 -25V-398.40586853027344C119.16651916503906 -418.59815979003906 169.20565795898438 -481.99998474121094 236 -481.99998474121094C278.04225158691406 -481.99998474121094 317.5091857910156 -462.2854766845703 336.9473571777344 -398.69215393066406C340.9278259277344 -385.66978454589844 355.14088439941406 -378.1114501953125 368.1632537841797 -382.0919189453125C381.1856231689453 -386.0723876953125 388.74395751953125 -400.2854461669922 384.76348876953125 -413.3078155517578C359.3529357910156 -496.44020080566406 298.0471649169922 -531.9999847412109 236 -531.9999847412109C179.3785858154297 -531.9999847412109 135.1781768798828 -503.98980712890625 105 -475.7525939941406V-506.99998474121094C105 -520.6171112060547 93.61712646484375 -531.9999847412109 80 -531.9999847412109Z"/>
</svg>