<svg xmlns="http://www.w3.org/2000/svg" viewBox="0 -1000 1000 1000">
	<path fill="#000000" d="M445 -691C445 -704.6171875 433.6171875 -716 420 -716H0C-13.6171875 -716 -25 -704.6171875 -25 -691C-25 -677.3828125 -13.6171875 -666 0 -666H420C433.6171875 -666 445 -677.3828125 445 -691ZM445 171C445 157.3828125 433.6171875 146 420 146H0C-13.6171875 146 -25 157.3828125 -25 171C-25 184.6171875 -13.6171875 196 0 196H420C433.6171875 196 445 184.6171875 445 171ZM349.439453125 -2.2841796875C361.8125 -7.970703125 367.40234375 -23.06640625 361.7158203125 -35.439453125L269.9599609375 -235.09375C271.3291015625 -235.2138671875 272.7158203125 -235.431640625 273.6826171875 -235.654296875C279.2919921875 -236.9619140625 363 -260.8251953125 363 -375C363 -463.6435546875 291.708984375 -520 189 -520H80C64.8671875 -520 55 -505.7294921875 55 -495V-260V-25C55 -11.3828125 66.3828125 0 80 0C93.6171875 0 105 -11.3828125 105 -25V-235H214.9755859375L316.2841796875 -14.560546875C321.970703125 -2.1875 337.06640625 3.40234375 349.439453125 -2.2841796875ZM105 -285V-470H189C274.291015625 -470 313 -430.412109375 313 -375C313 -304.509765625 274.5009765625 -288.7548828125 264.2646484375 -285Z"/>
</svg>