<svg xmlns="http://www.w3.org/2000/svg" viewBox="0 -1000 1000 1000">
	<path fill="#000000" d="M362.6650390625 -457.5634765625C371.4267578125 -468.7255859375 368.1396484375 -484.076171875 359.0546875 -492.1796875C354.0888671875 -496.0771484375 306.5390625 -532 215 -532C116.4912109375 -532 43 -456.6123046875 43 -378C43 -260.5009765625 197.193359375 -230.6591796875 197.193359375 -230.6591796875C197.6064453125 -230.560546875 198.19140625 -230.4404296875 198.5 -230.3837890625C207.2470703125 -228.7724609375 337 -197.4130859375 337 -130C337 -71.6591796875 296.8662109375 -38 214 -38C144.7607421875 -38 83.5498046875 -95.8330078125 81.033203125 -98.3134765625C70.2724609375 -107.765625 55.4912109375 -106.8798828125 46.291015625 -97.6455078125C37.0888671875 -88.4111328125 36.2158203125 -73.6748046875 45.7978515625 -62.8447265625C47.7451171875 -60.904296875 118.0380859375 12 214 12C311.1337890625 12 387 -36.2880859375 387 -130C387 -249.8583984375 213.7529296875 -278.361328125 208.3291015625 -279.4111328125C194.2568359375 -282.98046875 93 -315.7275390625 93 -378C93 -425.3876953125 141.5087890625 -482 215 -482C289.4794921875 -482 325.71875 -454.716796875 328.474609375 -452.6484375C337.966796875 -446.1171875 353.90625 -446.40625 362.6650390625 -457.5634765625ZM454 -691C454 -704.6171875 442.6171875 -716 429 -716H0C-13.6171875 -716 -25 -704.6171875 -25 -691C-25 -677.3828125 -13.6171875 -666 0 -666H429C442.6171875 -666 454 -677.3828125 454 -691ZM454 171C454 157.3828125 442.6171875 146 429 146H0C-13.6171875 146 -25 157.3828125 -25 171C-25 184.6171875 -13.6171875 196 0 196H429C442.6171875 196 454 184.6171875 454 171Z"/>
</svg>