<svg xmlns="http://www.w3.org/2000/svg" viewBox="0 -1000 1000 1000">
	<path fill="#000000" d="M43 -495C43 -481.38287353515625 54.38287353515625 -470 68 -470H145V-103.8656005859375C146.27713012695312 14.9080810546875 269.2319030761719 11.98199462890625 269.2319030761719 11.98199462890625C283.6448211669922 10.816436767578125 293.2288513183594 -0.411712646484375 292.9960174560547 -13.446502685546875C292.76324462890625 -26.477340698242188 282.6032257080078 -37.368133544921875 268.5572052001953 -38.00022888183594C260.1603698730469 -37.97001647949219 195.7027130126953 -38.78166198730469 195 -104.1343994140625V-470H268C281.61712646484375 -470 293 -481.38287353515625 293 -495C293 -508.61712646484375 281.61712646484375 -520 268 -520H195V-703C195 -716.6171264648438 183.61712646484375 -728 170 -728C156.38287353515625 -728 145 -716.6171264648438 145 -703V-520H68C54.38287353515625 -520 43 -508.61712646484375 43 -495Z"/>
</svg>