<svg xmlns="http://www.w3.org/2000/svg" viewBox="0 -1000 1000 1000">
	<path fill="#000000" d="M43 -495C43 -481.3828125 54.3828125 -470 68 -470H200.896484375L199 -13.103515625C198.943359375 0.513671875 210.279296875 11.943359375 223.896484375 12C237.513671875 12.056640625 248.943359375 0.720703125 249 -12.896484375L250.896484375 -470H368C381.6171875 -470 393 -481.3828125 393 -495C393 -508.6171875 381.6171875 -520 368 -520H68C54.3828125 -520 43 -508.6171875 43 -495ZM461 -691C461 -704.6171875 449.6171875 -716 436 -716H0C-13.6171875 -716 -25 -704.6171875 -25 -691C-25 -677.3828125 -13.6171875 -666 0 -666H436C449.6171875 -666 461 -677.3828125 461 -691ZM461 171C461 157.3828125 449.6171875 146 436 146H0C-13.6171875 146 -25 157.3828125 -25 171C-25 184.6171875 -13.6171875 196 0 196H436C449.6171875 196 461 184.6171875 461 171Z"/>
</svg>