<svg xmlns="http://www.w3.org/2000/svg" viewBox="0 -1000 1000 1000">
	<path fill="#000000" d="M373 14C386.61712646484375 14 398 2.61712646484375 398 -11V-505C398 -518.6171264648438 386.61712646484375 -530 373 -530C359.38287353515625 -530 348 -518.6171264648438 348 -505V-119.59413146972656C333.83348083496094 -99.40184020996094 283.7943420410156 -36.00001525878906 217 -36.00001525878906C162.9845428466797 -36.00001525878906 105 -69.65794372558594 105 -205.00001525878906V-507.00001525878906C105 -520.6171417236328 93.61712646484375 -532.0000152587891 80 -532.0000152587891C66.38287353515625 -532.0000152587891 55 -520.6171417236328 55 -507.00001525878906V-205.00001525878906C55 -52.34208679199219 131.0154571533203 13.999984741210938 217 13.999984741210938C273.6214141845703 13.999984741210938 317.8218231201172 -14.01019287109375 348 -42.247406005859375V-11.000015258789062C348 2.6171112060546875 359.38287353515625 13.999984741210938 373 13.999984741210938Z"/>
</svg>