<svg xmlns="http://www.w3.org/2000/svg" viewBox="0 -1000 1000 1000">
	<path fill="#000000" d="M80 -532C66.3828125 -532 55 -520.6171875 55 -507V-260C55 -106.076171875 139.0048828125 12 275 12C410.9951171875 12 495 -106.076171875 495 -260V-507C495 -520.6171875 483.6171875 -532 470 -532C456.3828125 -532 445 -520.6171875 445 -507V-260C445 -121.923828125 375.0048828125 -38 275 -38C174.9951171875 -38 105 -121.923828125 105 -260V-507C105 -520.6171875 93.6171875 -532 80 -532ZM575 171C575 157.3828125 563.6171875 146 550 146H0C-13.6171875 146 -25 157.3828125 -25 171C-25 184.6171875 -13.6171875 196 0 196H550C563.6171875 196 575 184.6171875 575 171ZM575 -691C575 -704.6171875 563.6171875 -716 550 -716H0C-13.6171875 -716 -25 -704.6171875 -25 -691C-25 -677.3828125 -13.6171875 -666 0 -666H550C563.6171875 -666 575 -677.3828125 575 -691Z"/>
</svg>