<svg xmlns="http://www.w3.org/2000/svg" viewBox="0 -1000 1000 1000">
	<path fill="#000000" d="M335.84375 -519.3076171875C322.6044921875 -522.490234375 308.8759765625 -514.083984375 305.6923828125 -500.84375L214.6796875 -122.294921875L104.0009765625 -501.99609375C100.1904296875 -515.0693359375 86.0771484375 -522.8115234375 73.00390625 -519.0009765625C59.9306640625 -515.1904296875 52.1884765625 -501.0771484375 55.9990234375 -488.00390625L192.9990234375 -18.00390625C194.798828125 -11.828125 201.0244140625 -3.9072265625 209.2666015625 -1.2265625C222.9326171875 3.21875 237.9482421875 -5.18359375 241.3076171875 -19.15625L354.3076171875 -489.15625C357.490234375 -502.3955078125 349.083984375 -516.1240234375 335.84375 -519.3076171875ZM423 -691C423 -704.6171875 411.6171875 -716 398 -716H0C-13.6171875 -716 -25 -704.6171875 -25 -691C-25 -677.3828125 -13.6171875 -666 0 -666H398C411.6171875 -666 423 -677.3828125 423 -691ZM423 171C423 157.3828125 411.6171875 146 398 146H0C-13.6171875 146 -25 157.3828125 -25 171C-25 184.6171875 -13.6171875 196 0 196H398C411.6171875 196 423 184.6171875 423 171Z"/>
</svg>