<svg xmlns="http://www.w3.org/2000/svg" viewBox="0 -1000 1000 1000">
	<path fill="#000000" d="M352 -532C338.38287353515625 -532 327 -520.6171264648438 327 -507V-217C327 -215.8080291748047 327.0049591064453 -214.6207275390625 327.0148468017578 -213.43812561035156C327.2162322998047 -77.37448120117188 282.18247985839844 -38 209 -38C146.56814575195312 -38 93 -79.88650512695312 93 -217V-507C93 -520.6171264648438 81.61712646484375 -532 68 -532C54.38287353515625 -532 43 -520.6171264648438 43 -507V-217C43 -66.10568237304688 111.43185424804688 12 209 12C278.3888854980469 12 328.29481506347656 -20.059799194335938 354.8982849121094 -82.92814636230469C386.74806213378906 -19.497879028320312 442.34075927734375 12 503 12C605.7712097167969 12 670 -68.64231872558594 670 -217V-505C670 -518.6171264648438 658.6171264648438 -530 645 -530C631.3828735351562 -530 620 -518.6171264648438 620 -505V-217C620 -81.35768127441406 570.2287902832031 -38 503 -38C441.5945739746094 -38 378.03282165527344 -81.49002075195312 377.012451171875 -213.7589874267578C377.0116424560547 -214.86375427246094 377.00750732421875 -215.97250366210938 377 -217.08522033691406V-507C377 -520.6171264648438 365.61712646484375 -532 352 -532Z"/>
</svg>