<svg xmlns="http://www.w3.org/2000/svg" viewBox="0 -1000 1000 1000">
	<path fill="#000000" d="M80 -532C66.3828125 -532 55 -520.6171875 55 -507V-260C55 -122.9658203125 60.26171875 12 177 12C237.3173828125 12 262.7607421875 -55.47265625 276.2099609375 -103.6162109375C291.541015625 -51.9755859375 317.4501953125 12 377 12C494.2197265625 12 495 -124.0966796875 495 -260V-507C495 -520.6171875 483.6171875 -532 470 -532C456.3828125 -532 445 -520.6171875 445 -507V-260C445 -103.896484375 433.7802734375 -38 377 -38C326.44140625 -38 300.8173828125 -247.4306640625 299.953125 -261.529296875C299.2861328125 -272.4072265625 290.3369140625 -283.2861328125 278.08203125 -284.8095703125C263.8212890625 -286.5810546875 250.6728515625 -275.482421875 250.025390625 -261.126953125C249.37109375 -246.611328125 227.1044921875 -38 177 -38C119.73828125 -38 105 -104.86328125 105 -260V-507C105 -520.6171875 93.6171875 -532 80 -532ZM575 -691C575 -704.6171875 563.6171875 -716 550 -716H0C-13.6171875 -716 -25 -704.6171875 -25 -691C-25 -677.3828125 -13.6171875 -666 0 -666H550C563.6171875 -666 575 -677.3828125 575 -691ZM575 171C575 157.3828125 563.6171875 146 550 146H0C-13.6171875 146 -25 157.3828125 -25 171C-25 184.6171875 -13.6171875 196 0 196H550C563.6171875 196 575 184.6171875 575 171Z"/>
</svg>