<svg xmlns="http://www.w3.org/2000/svg" viewBox="0 -1000 1000 1000">
	<path fill="#000000" d="M-25 171C-25 184.6171875 -13.6171875 196 0 196H482C495.6171875 196 507 184.6171875 507 171C507 157.3828125 495.6171875 146 482 146H0C-13.6171875 146 -25 157.3828125 -25 171ZM-25 -691C-25 -677.3828125 -13.6171875 -666 0 -666H482C495.6171875 -666 507 -677.3828125 507 -691C507 -704.6171875 495.6171875 -716 482 -716H0C-13.6171875 -716 -25 -704.6171875 -25 -691ZM65.9306640625 -515.6650390625C54.6748046875 -508.0009765625 51.671875 -492.1865234375 59.3349609375 -480.9306640625L209.755859375 -260L59.3349609375 -39.0693359375C51.671875 -27.8134765625 54.6748046875 -11.9990234375 65.9306640625 -4.3349609375C77.1865234375 3.328125 93.0009765625 0.3251953125 100.6650390625 -10.9306640625L240 -215.578125L379.3349609375 -10.9306640625C386.9990234375 0.3251953125 402.8134765625 3.328125 414.0693359375 -4.3349609375C425.3251953125 -11.9990234375 428.328125 -27.8134765625 420.6650390625 -39.0693359375L270.244140625 -260L420.6650390625 -480.9306640625C428.328125 -492.1865234375 425.3251953125 -508.0009765625 414.0693359375 -515.6650390625C402.8134765625 -523.328125 386.9990234375 -520.3251953125 379.3349609375 -509.0693359375L240 -304.421875L100.6650390625 -509.0693359375C93.0009765625 -520.3251953125 77.1865234375 -523.328125 65.9306640625 -515.6650390625Z"/>
</svg>