<svg xmlns="http://www.w3.org/2000/svg" viewBox="0 -1000 1000 1000">
	<path fill="#000000" d="M80 -532C66.38287353515625 -532 55 -520.6171264648438 55 -507V-260C55 -106.70646667480469 132.9243927001953 12 275 12C350.44252014160156 12 407.7964172363281 -21.473434448242188 445 -75.82115173339844V-25C445 90.61404418945312 396.3039093017578 158 275 158C153.69728088378906 158 101.82583618164062 92.30807495117188 99.24650573730469 89.0364990234375C91.61260986328125 80.20663452148438 76.16171264648438 76.51324462890625 64.86932373046875 85.09867858886719C53.57298278808594 93.68711853027344 52.878204345703125 109.37060546875 59.62321472167969 119.50531005859375C63.61033630371094 124.74955749511719 128.95021057128906 208 275 208C425.6960906982422 208 495 109.38595581054688 495 -25V-260V-507C495 -520.6171264648438 483.61712646484375 -532 470 -532C456.38287353515625 -532 445 -520.6171264648438 445 -507V-260C445 -121.276123046875 380.9233703613281 -38 275 -38C169.0756072998047 -38 105 -121.26614379882812 105 -260V-507C105 -520.6171264648438 93.61712646484375 -532 80 -532Z"/>
</svg>