<svg xmlns="http://www.w3.org/2000/svg" viewBox="0 -1000 1000 1000">
	<path fill="#000000" d="M67.8271484375 -516.8359375C55.93359375 -510.2060546875 51.533203125 -494.7216796875 58.1640625 -482.8271484375L186.02734375 -253.453125L187 -24.8935546875C187.05859375 -11.2763671875 198.4892578125 0.0576171875 212.1064453125 0C225.7236328125 -0.05859375 237.0576171875 -11.4892578125 237 -25.1064453125L236.025390625 -253.9921875L354.2265625 -483.5556640625C360.4599609375 -495.662109375 355.55078125 -510.9931640625 343.4443359375 -517.2265625C331.337890625 -523.4599609375 316.0068359375 -518.55078125 309.7734375 -506.4443359375L210.1259765625 -312.9130859375L101.8359375 -507.1728515625C95.2060546875 -519.06640625 79.7216796875 -523.466796875 67.8271484375 -516.8359375ZM-25 -691C-25 -677.3828125 -13.6171875 -666 0 -666H400C413.6171875 -666 425 -677.3828125 425 -691C425 -704.6171875 413.6171875 -716 400 -716H0C-13.6171875 -716 -25 -704.6171875 -25 -691ZM-25 171C-25 184.6171875 -13.6171875 196 0 196H400C413.6171875 196 425 184.6171875 425 171C425 157.3828125 413.6171875 146 400 146H0C-13.6171875 146 -25 157.3828125 -25 171Z"/>
</svg>