<svg xmlns="http://www.w3.org/2000/svg" viewBox="0 -1000 1000 1000">
	<path fill="#000000" d="M-25 171C-25 184.6171875 -13.6171875 196 0 196H482C495.6171875 196 507 184.6171875 507 171C507 157.3828125 495.6171875 146 482 146H0C-13.6171875 146 -25 157.3828125 -25 171ZM-25 -691C-25 -677.3828125 -13.6171875 -666 0 -666H482C495.6171875 -666 507 -677.3828125 507 -691C507 -704.6171875 495.6171875 -716 482 -716H0C-13.6171875 -716 -25 -704.6171875 -25 -691ZM55 -495C55 -481.3828125 66.3828125 -470 80 -470H351.8173828125L59.314453125 -39.0400390625C51.244140625 -27.1494140625 55.1396484375 -10.3896484375 67.626953125 -3.2763671875C71.390625 -1.1328125 76.53125 0 80 0H399C412.6171875 0 424 -11.3828125 424 -25C424 -38.6171875 412.6171875 -50 399 -50H127.1826171875L419.685546875 -480.9599609375C421.3828125 -483.4609375 423.580078125 -488.681640625 423.9228515625 -493.0380859375C425.05078125 -507.3642578125 413.3701171875 -520 399 -520H80C66.3828125 -520 55 -508.6171875 55 -495Z"/>
</svg>